<?xml version="1.0" encoding="UTF-8" standalone="no"?>
<svg width="300px" height="300px" viewBox="0 0 300 300" version="1.1" xmlns="http://www.w3.org/2000/svg" xmlns:xlink="http://www.w3.org/1999/xlink" xmlns:sketch="http://www.bohemiancoding.com/sketch/ns">
    <!-- Generator: Sketch 3.5 (25232) - http://www.bohemiancoding.com/sketch -->
    <title>aurelia-logo</title>
    <desc>Created with Sketch.</desc>
    <defs></defs>
    <g id="Page-1" stroke="none" stroke-width="1" fill="none" fill-rule="evenodd" sketch:type="MSPage">
        <g id="aurelia-logo" sketch:type="MSLayerGroup">
            <path d="M86.65,0 L86.92,0 C91.44,6.23 96.04,12.4 100.53,18.64 C87.67,20.14 74.84,17.64 61.96,17.88 C70.17,11.89 78.33,5.84 86.65,0 L86.65,0 Z" id="Shape" fill="#F390B6" sketch:type="MSShapeGroup"></path>
            <path d="M149.98,24.84 C157.36,19.47 164.74,14.1 172.15,8.78 C176.84,15.06 181.45,21.39 186.07,27.72 C174.04,26.71 162.04,25.31 149.98,24.84 L149.98,24.84 Z" id="Shape" fill="#F49AC1" sketch:type="MSShapeGroup"></path>
            <path d="M37.59,35.64 C45.65,29.63 53.87,23.85 61.96,17.88 C74.84,17.64 87.67,20.14 100.53,18.64 C105.11,25 109.83,31.25 114.39,37.61 C109.61,37.89 104.82,38.06 100.05,37.61 C86.07,36.04 71.99,37.5 57.98,36.66 C51.21,35.96 44.4,35.73 37.59,35.64 L37.59,35.64 Z" id="Shape" fill="#F282AB" sketch:type="MSShapeGroup"></path>
            <path d="M132.61,37.52 C138.38,33.28 144.22,29.12 149.98,24.84 C162.04,25.31 174.04,26.71 186.07,27.72 C189.75,32.86 193.54,37.92 197.22,43.05 C191.44,43.02 185.69,42.52 179.95,41.84 C164.16,40.49 148.37,39.18 132.61,37.52 L132.61,37.52 Z" id="Shape" fill="#F38FBB" sketch:type="MSShapeGroup"></path>
            <path d="M255.61,26.27 C268.47,43.78 281.18,61.41 294.05,78.91 C295.29,80.73 296.45,82.6 297.63,84.47 C298.41,85.05 299.2,85.62 300,86.19 L300,86.77 C292.97,91.56 286.27,96.82 279.33,101.73 C273.55,92.49 266.58,84.1 260.33,75.19 C261.3,74.5 262.26,73.79 263.22,73.09 C262.24,73.61 261.27,74.13 260.31,74.67 C251.42,63.87 244.24,51.77 235.14,41.15 C241.92,36.13 248.81,31.27 255.61,26.27 L255.61,26.27 Z" id="Shape" fill="#F496BB" sketch:type="MSShapeGroup"></path>
            <path d="M26.21,43.91 C30,41.15 33.81,38.41 37.59,35.64 C44.4,35.73 51.21,35.96 57.98,36.66 C71.99,37.5 86.07,36.04 100.05,37.61 C104.82,38.06 109.61,37.89 114.39,37.61 C116.51,40.46 118.53,43.37 120.61,46.25 L121.16,47 C111.43,46.99 101.66,47.54 91.98,46.28 C86.68,45.57 81.21,45.69 76.22,47.81 C74.17,45.36 72,43.03 69.79,40.75 C72.6,44.48 75.65,48.03 78.58,51.68 C73.4,52.16 68.2,52.39 63,52.28 C53.75,52.07 44.45,52.7 35.25,51.46 C34.66,52.28 34.08,53.1 33.5,53.92 C31.03,50.61 28.61,47.26 26.21,43.91 L26.21,43.91 Z" id="Shape" fill="#F174A0" sketch:type="MSShapeGroup"></path>
            <path d="M120.61,46.25 C124.61,43.35 128.63,40.46 132.61,37.52 C148.37,39.18 164.16,40.49 179.95,41.84 C185.69,42.52 191.44,43.02 197.22,43.05 C200.34,47.32 203.49,51.57 206.56,55.88 C203.64,55.78 200.72,55.73 197.81,55.51 C176.09,53.35 154.33,51.69 132.63,49.46 C129.33,49.18 126.02,49.15 122.71,49.12 C122.19,48.41 121.67,47.71 121.16,47 L120.61,46.25 L120.61,46.25 Z" id="Shape" fill="#F285B6" sketch:type="MSShapeGroup"></path>
            <path d="M69.79,40.75 C72,43.03 74.17,45.36 76.22,47.81 C79.03,51.25 81.91,54.64 84.8,58.02 C89.78,64.05 94.64,70.16 99.55,76.24 C103.56,81.21 107.43,86.28 111.38,91.28 C113.3,93.78 115.23,96.27 117.16,98.76 C121.79,104.84 126.4,110.93 130.99,117.04 C130.54,117.37 130.09,117.7 129.64,118.03 C124.91,111.55 120.14,105.09 115.32,98.68 C113.32,96.03 111.3,93.39 109.31,90.74 C105.46,85.61 101.47,80.59 97.59,75.49 C91.4,67.43 84.98,59.57 78.58,51.68 C75.65,48.03 72.6,44.48 69.79,40.75 L69.79,40.75 Z" id="Shape" fill="#FFFFFF" sketch:type="MSShapeGroup"></path>
            <path d="M224.21,49.12 C227.86,46.48 231.51,43.82 235.14,41.15 C244.24,51.77 251.42,63.87 260.31,74.67 C256.56,76.77 252.95,79.11 249.28,81.34 C242.82,72.31 236.02,63.53 229.68,54.41 C228.31,52.22 226.22,50.67 224.21,49.12 L224.21,49.12 Z" id="Shape" fill="#F286AE" sketch:type="MSShapeGroup"></path>
            <path d="M76.22,47.81 C81.21,45.69 86.68,45.57 91.98,46.28 C101.66,47.54 111.43,46.99 121.16,47 C121.67,47.71 122.19,48.41 122.71,49.12 C124.93,52.12 127.1,55.16 129.24,58.23 C117.53,56.73 105.74,57.36 93.98,57.07 C90.89,57.04 87.84,57.58 84.8,58.02 C81.91,54.64 79.03,51.25 76.22,47.81 L76.22,47.81 Z" id="Shape" fill="#F06C9B" sketch:type="MSShapeGroup"></path>
            <path d="M122.71,49.12 C126.02,49.15 129.33,49.18 132.63,49.46 C154.33,51.69 176.09,53.35 197.81,55.51 C200.72,55.73 203.64,55.78 206.56,55.88 C207.52,57.21 208.48,58.55 209.45,59.88 C208.35,60.69 207.26,61.5 206.18,62.32 C201.04,66.24 195.57,69.69 190.43,73.61 C189.36,74.41 188.3,75.23 187.25,76.05 C179.3,74.61 171.21,74.37 163.2,73.49 C155.36,72.95 147.55,71.84 139.67,71.96 C136.4,67.22 132.53,62.94 129.24,58.23 C127.1,55.16 124.93,52.12 122.71,49.12 L122.71,49.12 Z" id="Shape" fill="#F179AF" sketch:type="MSShapeGroup"></path>
            <path d="M209.45,59.88 C214.35,56.27 219.34,52.78 224.21,49.12 C226.22,50.67 228.31,52.22 229.68,54.41 C236.02,63.53 242.82,72.31 249.28,81.34 C242.66,85.41 236.16,89.64 229.6,93.78 C226.26,87.84 221.99,82.52 218.03,77 C214.11,72.08 210.97,66.5 206.18,62.32 C207.26,61.5 208.35,60.69 209.45,59.88 L209.45,59.88 Z" id="Shape" fill="#F177A3" sketch:type="MSShapeGroup"></path>
            <path d="M35.25,51.46 C44.45,52.7 53.75,52.07 63,52.28 C68.2,52.39 73.4,52.16 78.58,51.68 C84.98,59.57 91.4,67.43 97.59,75.49 C88.05,75.91 78.5,75.59 68.95,75.77 C62.37,76 55.8,73.99 49.28,75.56 C43.94,68.4 38.82,61.09 33.5,53.92 C34.08,53.1 34.66,52.28 35.25,51.46 L35.25,51.46 Z" id="Shape" fill="#F05F92" sketch:type="MSShapeGroup"></path>
            <path d="M84.8,58.02 C87.84,57.58 90.89,57.04 93.98,57.07 C105.74,57.36 117.53,56.73 129.24,58.23 C132.53,62.94 136.4,67.22 139.67,71.96 C140.77,73.56 141.85,75.17 142.95,76.78 C138.35,76 133.7,75.62 129.04,75.77 C119.21,76.02 109.37,75.46 99.55,76.24 C94.64,70.16 89.78,64.05 84.8,58.02 L84.8,58.02 Z" id="Shape" fill="#EF5D91" sketch:type="MSShapeGroup"></path>
            <path d="M190.43,73.61 C195.57,69.69 201.04,66.24 206.18,62.32 C210.97,66.5 214.11,72.08 218.03,77 C221.99,82.52 226.26,87.84 229.6,93.78 C224.26,97.17 218.98,100.66 213.69,104.12 C206.04,93.87 198.81,83.3 190.43,73.61 L190.43,73.61 Z" id="Shape" fill="#F06495" sketch:type="MSShapeGroup"></path>
            <path d="M139.67,71.96 C147.55,71.84 155.36,72.95 163.2,73.49 C171.21,74.37 179.3,74.61 187.25,76.05 C185.98,77.02 184.7,77.99 183.42,78.95 C179.16,82.16 174.67,85.03 170.39,88.22 C168.63,89.51 166.87,90.82 165.1,92.11 C162.74,93.81 160.45,95.59 158.07,97.24 C156.73,95.42 155.39,93.6 154.06,91.78 C150.45,86.7 146.46,81.92 142.95,76.78 C141.85,75.17 140.77,73.56 139.67,71.96 L139.67,71.96 Z" id="Shape" fill="#F068A7" sketch:type="MSShapeGroup"></path>
            <path d="M260.31,74.67 C261.27,74.13 262.24,73.61 263.22,73.09 C262.26,73.79 261.3,74.5 260.33,75.19 C254.23,79.33 247.88,83.1 241.78,87.24 C238.23,89.57 234.67,91.88 231.13,94.22 C228.4,96.05 225.69,97.89 222.94,99.7 C220.05,101.62 217.17,103.57 214.31,105.53 C207.5,110.19 200.61,114.72 193.86,119.46 C191.93,120.8 190,122.14 188.08,123.48 C181.64,127.93 175.25,132.43 168.86,136.94 C160.61,142.77 152.39,148.64 144.2,154.56 C134.3,161.72 124.43,168.91 114.63,176.19 C105.11,183.26 95.62,190.37 86.16,197.52 C70.22,209.51 54.6,221.93 38.79,234.1 C57.07,218.32 76.19,203.52 95.24,188.68 C101.58,183.81 107.94,178.96 114.35,174.18 C124.43,166.58 134.58,159.08 144.82,151.69 C151.22,147.06 157.65,142.47 164.11,137.93 C167.79,135.34 171.48,132.76 175.17,130.18 C179.2,127.37 183.26,124.61 187.31,121.83 C189.28,120.47 191.25,119.13 193.24,117.79 C197.32,115.02 201.42,112.28 205.53,109.54 C208.25,107.74 210.97,105.92 213.69,104.12 C218.98,100.66 224.26,97.17 229.6,93.78 C236.16,89.64 242.66,85.41 249.28,81.34 C252.95,79.11 256.56,76.77 260.31,74.67 L260.31,74.67 Z" id="Shape" fill="#FFFFFF" sketch:type="MSShapeGroup"></path>
            <path d="M187.25,76.05 C188.3,75.23 189.36,74.41 190.43,73.61 C198.81,83.3 206.04,93.87 213.69,104.12 C210.97,105.92 208.25,107.74 205.53,109.54 C198.2,99.32 190.29,89.5 183.42,78.95 C184.7,77.99 185.98,77.02 187.25,76.05 L187.25,76.05 Z" id="Shape" fill="#EF548C" sketch:type="MSShapeGroup"></path>
            <path d="M49.28,75.56 C55.8,73.99 62.37,76 68.95,75.77 C78.5,75.59 88.05,75.91 97.59,75.49 C101.47,80.59 105.46,85.61 109.31,90.74 C92.89,90.89 76.48,90.67 60.08,90.48 L60.03,90.41 C56.48,85.43 52.9,80.48 49.28,75.56 L49.28,75.56 Z" id="Shape" fill="#EE4886" sketch:type="MSShapeGroup"></path>
            <path d="M99.55,76.24 C109.37,75.46 119.21,76.02 129.04,75.77 C133.7,75.62 138.35,76 142.95,76.78 C146.46,81.92 150.45,86.7 154.06,91.78 C147.03,91.71 140,91.74 132.98,91.78 C125.76,91.88 118.58,90.16 111.38,91.28 C107.43,86.28 103.56,81.21 99.55,76.24 L99.55,76.24 Z" id="Shape" fill="#EF4986" sketch:type="MSShapeGroup"></path>
            <path d="M241.78,87.24 C247.88,83.1 254.23,79.33 260.33,75.19 C266.58,84.1 273.55,92.49 279.33,101.73 C273.67,105.75 268.14,109.94 262.51,113.98 C259.16,109.22 256.12,104.21 252.14,99.93 C248.4,95.94 245.11,91.57 241.78,87.24 L241.78,87.24 Z" id="Shape" fill="#F282AB" sketch:type="MSShapeGroup"></path>
            <path d="M170.39,88.22 C174.67,85.03 179.16,82.16 183.42,78.95 C190.29,89.5 198.2,99.32 205.53,109.54 C201.42,112.28 197.32,115.02 193.24,117.79 C189.04,112.91 185.56,107.49 181.64,102.39 C177.88,97.67 174.96,92.26 170.39,88.22 L170.39,88.22 Z" id="Shape" fill="#EE4785" sketch:type="MSShapeGroup"></path>
            <path d="M231.13,94.22 C234.67,91.88 238.23,89.57 241.78,87.24 C245.11,91.57 248.4,95.94 252.14,99.93 C256.12,104.21 259.16,109.22 262.51,113.98 C259.6,116.1 256.7,118.22 253.8,120.35 C253.5,120.57 252.9,121.01 252.6,121.23 C247.92,114.94 243.26,108.63 238.77,102.2 C236.69,99.12 233.96,96.58 231.13,94.22 L231.13,94.22 Z" id="Shape" fill="#F174A1" sketch:type="MSShapeGroup"></path>
            <path d="M165.1,92.11 C166.87,90.82 168.63,89.51 170.39,88.22 C174.96,92.26 177.88,97.67 181.64,102.39 C185.56,107.49 189.04,112.91 193.24,117.79 C191.25,119.13 189.28,120.47 187.31,121.83 C182.62,114.57 177.19,107.85 172.34,100.71 C170.24,97.59 167.67,94.83 165.1,92.11 L165.1,92.11 Z" id="Shape" fill="#EE3180" sketch:type="MSShapeGroup"></path>
            <path d="M60.08,90.48 C76.48,90.67 92.89,90.89 109.31,90.74 C111.3,93.39 113.32,96.03 115.32,98.68 C98.64,97.48 81.89,98.6 65.19,97.67 C63.45,95.3 61.76,92.9 60.08,90.48 L60.08,90.48 Z" id="Shape" fill="#EE3380" sketch:type="MSShapeGroup"></path>
            <path d="M52.12,96.17 C54.72,94.2 57.37,92.3 60.03,90.41 L60.08,90.48 C61.76,92.9 63.45,95.3 65.19,97.67 C72.3,107.52 79.59,117.24 86.73,127.07 C90.21,131.93 93.74,136.76 97.39,141.5 C95.9,142.65 94.42,143.79 92.92,144.92 C91.77,145.77 90.61,146.61 89.45,147.43 C84.7,140.91 80,134.37 75.2,127.89 C71.7,123.11 68.25,118.31 64.73,113.55 C60.55,107.74 56.37,101.93 52.12,96.17 L52.12,96.17 Z" id="Shape" fill="#7F267A" sketch:type="MSShapeGroup"></path>
            <path d="M111.38,91.28 C118.58,90.16 125.76,91.88 132.98,91.78 C140,91.74 147.03,91.71 154.06,91.78 C155.39,93.6 156.73,95.42 158.07,97.24 C155.36,98.97 152.11,99.23 148.98,99.17 C141.88,99.08 134.74,99.46 127.68,98.46 C124.18,97.92 120.63,98.19 117.16,98.76 C115.23,96.27 113.3,93.78 111.38,91.28 L111.38,91.28 Z" id="Shape" fill="#EE3380" sketch:type="MSShapeGroup"></path>
            <path d="M158.07,97.24 C160.45,95.59 162.74,93.81 165.1,92.11 C167.67,94.83 170.24,97.59 172.34,100.71 C177.19,107.85 182.62,114.57 187.31,121.83 C183.26,124.61 179.2,127.37 175.17,130.18 C167.84,120.69 161.18,110.71 153.86,101.22 C149.88,103.37 146.1,105.85 142.56,108.64 C138.7,111.45 134.77,114.14 130.99,117.04 C126.4,110.93 121.79,104.84 117.16,98.76 C120.63,98.19 124.18,97.92 127.68,98.46 C134.74,99.46 141.88,99.08 148.98,99.17 C152.11,99.23 155.36,98.97 158.07,97.24 L158.07,97.24 Z" id="Shape" fill="#EC227C" sketch:type="MSShapeGroup"></path>
            <path d="M222.94,99.7 C225.69,97.89 228.4,96.05 231.13,94.22 C233.96,96.58 236.69,99.12 238.77,102.2 C243.26,108.63 247.92,114.94 252.6,121.23 C249.72,123.34 246.83,125.43 243.94,127.53 C236.18,118.85 230.18,108.8 222.94,99.7 L222.94,99.7 Z" id="Shape" fill="#F06A99" sketch:type="MSShapeGroup"></path>
            <path d="M30.83,111.74 C37.89,106.49 45.12,101.49 52.12,96.17 C56.37,101.93 60.55,107.74 64.73,113.55 C57.85,114.88 50.98,113.12 44.12,112.71 C39.69,112.33 35.26,112.02 30.83,111.74 L30.83,111.74 Z" id="Shape" fill="#EE3C97" sketch:type="MSShapeGroup"></path>
            <path d="M65.19,97.67 C81.89,98.6 98.64,97.48 115.32,98.68 C120.14,105.09 124.91,111.55 129.64,118.03 C127.46,119.61 125.25,121.14 123.06,122.71 C121.1,124.13 119.17,125.59 117.24,127.04 C107.08,126.51 96.89,126.62 86.73,127.07 C79.59,117.24 72.3,107.52 65.19,97.67 L65.19,97.67 Z" id="Shape" fill="#E6237D" sketch:type="MSShapeGroup"></path>
            <path d="M214.31,105.53 C217.17,103.57 220.05,101.62 222.94,99.7 C230.18,108.8 236.18,118.85 243.94,127.53 C241.17,129.54 238.42,131.57 235.66,133.58 C227.56,125.01 221.86,114.55 214.31,105.53 L214.31,105.53 Z" id="Shape" fill="#F05F92" sketch:type="MSShapeGroup"></path>
            <path d="M142.56,108.64 C146.1,105.85 149.88,103.37 153.86,101.22 C161.18,110.71 167.84,120.69 175.17,130.18 C171.48,132.76 167.79,135.34 164.11,137.93 C156.92,128.17 149.93,118.26 142.56,108.64 L142.56,108.64 Z" id="Shape" fill="#E0247E" sketch:type="MSShapeGroup"></path>
            <path d="M193.86,119.46 C200.61,114.72 207.5,110.19 214.31,105.53 C221.86,114.55 227.56,125.01 235.66,133.58 C228.88,138.53 222.06,143.42 215.3,148.38 C208.03,138.83 201.44,128.77 193.86,119.46 L193.86,119.46 Z" id="Shape" fill="#EF4C88" sketch:type="MSShapeGroup"></path>
            <path d="M130.99,117.04 C134.77,114.14 138.7,111.45 142.56,108.64 C149.93,118.26 156.92,128.17 164.11,137.93 C157.65,142.47 151.22,147.06 144.82,151.69 C142.82,149.5 140.8,147.32 139.06,144.92 C133.86,137.42 128.37,130.13 123.06,122.71 C125.25,121.14 127.46,119.61 129.64,118.03 C130.09,117.7 130.54,117.37 130.99,117.04 L130.99,117.04 Z" id="Shape" fill="#D22381" sketch:type="MSShapeGroup"></path>
            <path d="M15.79,122.7 C20.78,119.02 25.83,115.42 30.83,111.74 C35.26,112.02 39.69,112.33 44.12,112.71 C50.98,113.12 57.85,114.88 64.73,113.55 C68.25,118.31 71.7,123.11 75.2,127.89 C55.36,126.6 35.6,124.31 15.79,122.7 L15.79,122.7 Z" id="Shape" fill="#ED2092" sketch:type="MSShapeGroup"></path>
            <path d="M188.08,123.48 C190,122.14 191.93,120.8 193.86,119.46 C201.44,128.77 208.03,138.83 215.3,148.38 C213.48,149.72 211.66,151.06 209.84,152.4 C201.98,143.22 195.72,132.83 188.08,123.48 L188.08,123.48 Z" id="Shape" fill="#EE3180" sketch:type="MSShapeGroup"></path>
            <path d="M252.6,121.23 C252.9,121.01 253.5,120.57 253.8,120.35 C255.63,122.96 257.43,125.58 259.28,128.18 C251.6,132.49 243.99,136.93 236.54,141.61 C228.27,146.67 220.18,152 212.12,157.37 C209.81,158.91 207.58,160.56 205.35,162.22 C204.38,160.74 203.49,159.21 202.59,157.7 C205.01,155.93 207.43,154.17 209.84,152.4 C211.66,151.06 213.48,149.72 215.3,148.38 C222.06,143.42 228.88,138.53 235.66,133.58 C238.42,131.57 241.17,129.54 243.94,127.53 C246.83,125.43 249.72,123.34 252.6,121.23 L252.6,121.23 Z" id="Shape" fill="#7F2579" sketch:type="MSShapeGroup"></path>
            <path d="M8.61,127.93 C11.01,126.2 13.4,124.46 15.79,122.7 C35.6,124.31 55.36,126.6 75.2,127.89 C80,134.37 84.7,140.91 89.45,147.43 C83.98,151.33 78.46,155.17 73.11,159.25 L72.19,159.95 C57.95,158.38 43.65,156.91 29.33,156.38 C22.43,146.89 15.46,137.45 8.61,127.93 L8.61,127.93 Z" id="Shape" fill="#E7068C" sketch:type="MSShapeGroup"></path>
            <path d="M117.24,127.04 C119.17,125.59 121.1,124.13 123.06,122.71 C128.37,130.13 133.86,137.42 139.06,144.92 C140.8,147.32 142.82,149.5 144.82,151.69 C134.58,159.08 124.43,166.58 114.35,174.18 C106.85,164.69 99.81,154.85 92.92,144.92 C94.42,143.79 95.9,142.65 97.39,141.5 C103.88,136.51 110.78,132.09 117.24,127.04 L117.24,127.04 Z" id="Shape" fill="#BC2586" sketch:type="MSShapeGroup"></path>
            <path d="M168.86,136.94 C175.25,132.43 181.64,127.93 188.08,123.48 C195.72,132.83 201.98,143.22 209.84,152.4 C207.43,154.17 205.01,155.93 202.59,157.7 C198.62,160.58 194.62,163.42 190.7,166.37 C183.19,156.73 176.43,146.53 168.86,136.94 L168.86,136.94 Z" id="Shape" fill="#E8227D" sketch:type="MSShapeGroup"></path>
            <path d="M86.73,127.07 C96.89,126.62 107.08,126.51 117.24,127.04 C110.78,132.09 103.88,136.51 97.39,141.5 C93.74,136.76 90.21,131.93 86.73,127.07 L86.73,127.07 Z" id="Shape" fill="#D52380" sketch:type="MSShapeGroup"></path>
            <path d="M236.54,141.61 C243.99,136.93 251.6,132.49 259.28,128.18 C263.27,133.74 267.42,139.2 271.4,144.77 C259.74,144.45 248.06,143.43 236.54,141.61 L236.54,141.61 Z" id="Shape" fill="#ED2092" sketch:type="MSShapeGroup"></path>
            <path d="M144.2,154.56 C152.39,148.64 160.61,142.77 168.86,136.94 C176.43,146.53 183.19,156.73 190.7,166.37 C185.35,170.36 179.89,174.19 174.51,178.13 C174.03,178.47 173.56,178.82 173.08,179.16 C170.67,180.89 168.29,182.66 165.92,184.43 C158.54,174.58 151.06,164.79 144.2,154.56 L144.2,154.56 Z" id="Shape" fill="#D22380" sketch:type="MSShapeGroup"></path>
            <path d="M212.12,157.37 C220.18,152 228.27,146.67 236.54,141.61 C248.06,143.43 259.74,144.45 271.4,144.77 C276.17,151.38 281.05,157.91 285.81,164.54 C275.8,164.82 265.9,163.02 255.94,162.35 C243.62,161.42 231.33,159.95 218.99,159.18 C216.6,159.04 214.36,158.14 212.12,157.37 L212.12,157.37 Z" id="Shape" fill="#EB038C" sketch:type="MSShapeGroup"></path>
            <path d="M89.45,147.43 C90.61,146.61 91.77,145.77 92.92,144.92 C99.81,154.85 106.85,164.69 114.35,174.18 C107.94,178.96 101.58,183.81 95.24,188.68 C87.73,178.97 81.31,168.41 73.11,159.25 C78.46,155.17 83.98,151.33 89.45,147.43 L89.45,147.43 Z" id="Shape" fill="#A6268A" sketch:type="MSShapeGroup"></path>
            <path d="M114.63,176.19 C124.43,168.91 134.3,161.72 144.2,154.56 C151.06,164.79 158.54,174.58 165.92,184.43 C156.28,191.68 146.32,198.48 136.65,205.68 C131.25,200.16 127.14,193.59 122.52,187.43 C119.76,183.78 117.08,180.07 114.63,176.19 L114.63,176.19 Z" id="Shape" fill="#BA2586" sketch:type="MSShapeGroup"></path>
            <path d="M29.33,156.38 C43.65,156.91 57.95,158.38 72.19,159.95 C63.58,166.54 54.53,172.53 45.91,179.11 C40.37,171.54 34.84,163.97 29.33,156.38 L29.33,156.38 Z" id="Shape" fill="#D40F8C" sketch:type="MSShapeGroup"></path>
            <path d="M205.35,162.22 C207.58,160.56 209.81,158.91 212.12,157.37 C214.36,158.14 216.6,159.04 218.99,159.18 C231.33,159.95 243.62,161.42 255.94,162.35 C265.9,163.02 275.8,164.82 285.81,164.54 C287.69,167.1 289.58,169.65 291.45,172.23 C283.49,178.07 275.5,183.88 267.5,189.68 C263.41,188.57 259.23,187.84 254.99,187.61 C243.91,186.89 232.88,185.43 221.79,184.81 C218.6,180.48 215.26,176.26 212.35,171.72 C210.14,168.46 207.61,165.44 205.35,162.22 L205.35,162.22 Z" id="Shape" fill="#DC0A8C" sketch:type="MSShapeGroup"></path>
            <path d="M190.7,166.37 C194.62,163.42 198.62,160.58 202.59,157.7 C203.49,159.21 204.38,160.74 205.35,162.22 C207.61,165.44 210.14,168.46 212.35,171.72 C203.33,179.09 193.7,185.69 184.23,192.48 C181.02,187.68 177.77,182.9 174.51,178.13 C179.89,174.19 185.35,170.36 190.7,166.37 L190.7,166.37 Z" id="Shape" fill="#742477" sketch:type="MSShapeGroup"></path>
            <path d="M72.19,159.95 L73.11,159.25 C81.31,168.41 87.73,178.97 95.24,188.68 C76.19,203.52 57.07,218.32 38.79,234.1 C54.6,221.93 70.22,209.51 86.16,197.52 C94.29,206.55 100.42,217.16 108.16,226.52 C102.15,231.03 95.98,235.31 89.96,239.78 C74.63,250.99 59.28,262.17 43.94,273.36 C29.27,253.28 14.58,233.21 0,213.07 L0,212.58 C15.34,201.47 30.64,190.3 45.91,179.11 C54.53,172.53 63.58,166.54 72.19,159.95 L72.19,159.95 Z" id="Shape" fill="#92278F" sketch:type="MSShapeGroup"></path>
            <path d="M212.35,171.72 C215.26,176.26 218.6,180.48 221.79,184.81 C227.02,192.55 233.02,199.73 238.32,207.41 C228.22,206.86 218.1,207.3 207.99,207.1 C203.43,206.97 198.87,207.25 194.33,207.65 C190.98,202.59 187.59,197.54 184.23,192.48 C193.7,185.69 203.33,179.09 212.35,171.72 L212.35,171.72 Z" id="Shape" fill="#A7268A" sketch:type="MSShapeGroup"></path>
            <path d="M86.16,197.52 C95.62,190.37 105.11,183.26 114.63,176.19 C117.08,180.07 119.76,183.78 122.52,187.43 C127.14,193.59 131.25,200.16 136.65,205.68 C127.37,212.92 117.56,219.44 108.16,226.52 C100.42,217.16 94.29,206.55 86.16,197.52 L86.16,197.52 Z" id="Shape" fill="#A1268B" sketch:type="MSShapeGroup"></path>
            <path d="M173.08,179.16 C173.56,178.82 174.03,178.47 174.51,178.13 C177.77,182.9 181.02,187.68 184.23,192.48 C187.59,197.54 190.98,202.59 194.33,207.65 C207.17,227.38 220.05,247.12 232,267.4 C221.27,251.37 210.96,235.03 200.15,219.04 C194.38,210.42 188.6,201.82 182.75,193.26 C179.54,188.55 176.31,183.86 173.08,179.16 L173.08,179.16 Z" id="Shape" fill="#FFFFFF" sketch:type="MSShapeGroup"></path>
            <path d="M165.92,184.43 C168.29,182.66 170.67,180.89 173.08,179.16 C176.31,183.86 179.54,188.55 182.75,193.26 C172.81,201.31 162.09,208.34 151.96,216.15 C152.27,216.6 152.87,217.49 153.17,217.94 C161.68,230.11 170.72,241.91 179.37,253.98 C176.75,255.89 174.13,257.79 171.51,259.71 C165.76,253 161.15,245.44 155.7,238.51 C149.61,230.24 143.76,221.8 137.67,213.54 C129.29,220.1 121.48,227.33 113.44,234.27 C107.84,239.1 102.44,244.16 97.02,249.19 C94.72,246.01 92.35,242.89 89.96,239.78 C95.98,235.31 102.15,231.03 108.16,226.52 C117.56,219.44 127.37,212.92 136.65,205.68 C146.32,198.48 156.28,191.68 165.92,184.43 L165.92,184.43 Z" id="Shape" fill="#702479" sketch:type="MSShapeGroup"></path>
            <path d="M221.79,184.81 C232.88,185.43 243.91,186.89 254.99,187.61 C259.23,187.84 263.41,188.57 267.5,189.68 C258.34,196.4 249.16,203.09 239.96,209.76 C239.55,209.18 238.73,208 238.32,207.41 C233.02,199.73 227.02,192.55 221.79,184.81 L221.79,184.81 Z" id="Shape" fill="#CB138C" sketch:type="MSShapeGroup"></path>
            <path d="M182.75,193.26 C188.6,201.82 194.38,210.42 200.15,219.04 C192.74,219.04 185.4,217.72 177.99,217.94 C169.71,218.08 161.44,217.95 153.17,217.94 C152.87,217.49 152.27,216.6 151.96,216.15 C162.09,208.34 172.81,201.31 182.75,193.26 L182.75,193.26 Z" id="Shape" fill="#9A278D" sketch:type="MSShapeGroup"></path>
            <path d="M194.33,207.65 C198.87,207.25 203.43,206.97 207.99,207.1 C218.1,207.3 228.22,206.86 238.32,207.41 C238.73,208 239.55,209.18 239.96,209.76 C251.01,225.13 262.28,240.34 273.36,255.68 C255.89,268.39 238.43,281.11 220.99,293.85 C218.37,295.62 215.65,297.36 213.81,300 L212.32,300 L212.21,299.42 C210.75,296.5 208.56,294.04 206.65,291.41 C197.57,278.93 188.46,266.46 179.37,253.98 C170.72,241.91 161.68,230.11 153.17,217.94 C161.44,217.95 169.71,218.08 177.99,217.94 C185.4,217.72 192.74,219.04 200.15,219.04 C210.96,235.03 221.27,251.37 232,267.4 C220.05,247.12 207.17,227.38 194.33,207.65 L194.33,207.65 Z" id="Shape" fill="#92278F" sketch:type="MSShapeGroup"></path>
            <path d="M113.44,234.27 C121.48,227.33 129.29,220.1 137.67,213.54 C143.76,221.8 149.61,230.24 155.7,238.51 C148.77,238.79 141.91,237.7 135.02,237.14 C127.8,236.37 120.4,236.61 113.44,234.27 L113.44,234.27 Z" id="Shape" fill="#A9218E" sketch:type="MSShapeGroup"></path>
            <path d="M97.02,249.19 C102.44,244.16 107.84,239.1 113.44,234.27 C120.4,236.61 127.8,236.37 135.02,237.14 C141.91,237.7 148.77,238.79 155.7,238.51 C161.15,245.44 165.76,253 171.51,259.71 C156.96,270.31 142.42,280.93 127.86,291.52 C117.6,277.4 107.26,263.33 97.02,249.19 L97.02,249.19 Z" id="Shape" fill="#96268F" sketch:type="MSShapeGroup"></path>
        </g>
    </g>
</svg>