<?xml version="1.0" encoding="utf-8"?>
<!-- Generator: Adobe Illustrator 18.1.1, SVG Export Plug-In . SVG Version: 6.00 Build 0)  -->
<svg version="1.1" id="Layer_1" xmlns="http://www.w3.org/2000/svg" xmlns:xlink="http://www.w3.org/1999/xlink" x="0px" y="0px"
	 viewBox="-78 170.5 453.5 453.5" enable-background="new -78 170.5 453.5 453.5" xml:space="preserve">
<g transform="translate(3824.556 776.197)">
	<path fill="#FFFFFF" d="M-3733.6-258c0,0-17,10.4,11.8,13.3c34.8,4.4,53.3,3.7,91.7-3.7c0,0,10.4,6.7,24.4,11.8
		C-3692.2-199.6-3801.7-238.8-3733.6-258z M-3744.7-306.1c0,0-18.5,14.1,10.4,17c37.7,3.7,67.3,4.4,118.4-5.9c0,0,6.7,7.4,17.8,11.1
		C-3702.6-252.8-3819.4-280.9-3744.7-306.1L-3744.7-306.1L-3744.7-306.1z M-3540.5-221.7c0,0,12.6,10.4-14.1,18.5
		c-49.6,14.8-207.9,19.2-252.2,0c-15.5-6.7,14.1-16.3,23.7-17.8c9.6-2.2,14.8-2.2,14.8-2.2c-17-11.8-113.2,24.4-48.8,34.8
		C-3640.4-159.6-3494.7-201-3540.5-221.7L-3540.5-221.7L-3540.5-221.7z M-3725.5-356.4c0,0-80.6,19.2-28.8,25.9
		c22.2,3,65.8,2.2,106.5-0.7c33.3-3,66.6-8.9,66.6-8.9s-11.8,5.2-20,10.4c-82.1,21.5-239.7,11.8-194.5-10.4
		C-3757.3-358.6-3725.5-356.4-3725.5-356.4L-3725.5-356.4z M-3581.2-275.7c82.8-42.9,44.4-84.3,17.8-79.2c-6.7,1.5-9.6,3-9.6,3
		s2.2-4.4,7.4-5.9c52.5-18.5,93.9,55.5-17,84.3C-3582.7-273.5-3582-274.3-3581.2-275.7L-3581.2-275.7z M-3717.3-158.9
		c79.9,5.2,201.9-3,204.9-40.7c0,0-5.9,14.8-65.8,25.9c-68.1,12.6-152.4,11.1-201.9,3C-3780.2-170.7-3769.9-161.8-3717.3-158.9
		L-3717.3-158.9z"/>
	<path fill="#FFFFFF" d="M-3631.5-600.5c0,0,45.9,46.6-43.6,116.9c-71.8,57-16.3,89.5,0,126.5c-42.2-37.7-72.5-71-51.8-102.1
		C-3696.6-505.1-3613-527.2-3631.5-600.5z M-3655.2-388.2c21.5,24.4-5.9,46.6-5.9,46.6s54.7-28.1,29.6-62.9
		c-22.9-33.3-40.7-49.6,55.5-105C-3576.1-509.5-3727.7-471.8-3655.2-388.2L-3655.2-388.2z"/>
</g>
</svg>
