<?xml version="1.0" encoding="UTF-8"?>
<!DOCTYPE svg PUBLIC "-//W3C//DTD SVG 1.1//EN" "http://www.w3.org/Graphics/SVG/1.1/DTD/svg11.dtd">
<svg version="1.1" id="Layer_1" xmlns="http://www.w3.org/2000/svg" xmlns:xlink="http://www.w3.org/1999/xlink" x="0px" y="0px" width="500px" height="500px" viewBox="3.028 -212.646 500 500" enable-background="new 3.028 -212.646 500 500" xml:space="preserve">
<path fill="#ffffff" d="M501.113,26.12c-3.309-3.722-49.084-61.018-57.145-70.736c-8.07-9.721-11.999-7.964-16.966-7.241  c-4.964,0.726-62.876,10.446-69.6,11.584c-6.722,1.138-10.961,3.825-6.823,9.619c3.677,5.151,41.749,59.125,50.134,71.012  L249.356,76.619L128.979-124.637c-4.792-7.104-5.789-9.585-16.694-9.094c-10.906,0.497-94.429,7.437-100.379,7.933  c-5.948,0.498-12.476,3.145-6.528,17.19c5.947,14.044,100.806,218.456,103.45,224.403c2.642,5.947,9.517,15.599,25.611,11.731  c16.491-3.961,73.676-18.885,104.921-27.072c16.512,29.902,50.183,90.55,56.411,99.242c8.315,11.602,14.035,9.68,26.802,5.814  c9.96-3.019,155.928-55.513,162.503-58.215c6.575-2.706,10.637-4.646,6.188-11.221c-3.267-4.832-41.777-56.417-61.945-83.407  c13.815-3.675,62.933-16.751,68.175-18.169C503.591,32.844,504.418,29.844,501.113,26.12z M225.941,82.38  c-1.809,0.388-86.587,20.681-91.109,21.713c-4.525,1.033-4.525,0.517-5.04-1.033c-0.516-1.553-100.796-208.326-102.188-210.913  c-1.393-2.584-1.32-4.632,0-4.632c1.32,0,80.063-7.041,82.848-7.186c2.788-0.146,2.495,0.44,3.52,2.201  c0,0,111.067,191.712,113.005,195.069C228.913,80.958,227.749,81.992,225.941,82.38z M464.97,127.182  c1.35,2.128,2.702,3.481-1.553,5.026c-4.248,1.549-143.476,48.537-146.184,49.696c-2.706,1.16-4.834,1.545-8.312-3.479  c-3.481-5.027-48.779-83.419-48.779-83.419l147.586-38.403c3.675-1.159,4.836-1.932,7.158,1.742  C417.203,62.018,463.617,125.056,464.97,127.182z M474.43,22.396c-3.307,0.726-57.502,14.171-57.502,14.171l-44.318-60.812  c-1.243-1.756-2.279-3.517,0.823-3.931c3.103-0.411,53.471-9.515,55.744-10.031c2.274-0.517,4.242-1.137,7.034,2.689  c2.79,3.829,41.117,52.33,42.562,54.19C480.223,20.536,477.738,21.674,474.43,22.396z"/>
</svg>