<?xml version="1.0" encoding="UTF-8" standalone="no"?>
<svg width="187px" height="293px" viewBox="0 0 187 293" version="1.1" xmlns="http://www.w3.org/2000/svg" xmlns:xlink="http://www.w3.org/1999/xlink" xmlns:sketch="http://www.bohemiancoding.com/sketch/ns">
    <!-- Generator: Sketch 3.3.1 (12005) - http://www.bohemiancoding.com/sketch -->
    <title>Imported Layers</title>
    <desc>Created with Sketch.</desc>
    <defs></defs>
    <g id="Mockups" stroke="none" stroke-width="1" fill="none" fill-rule="evenodd" sketch:type="MSPage">
        <g id="Quickstart" sketch:type="MSArtboardGroup" transform="translate(-657.000000, -631.000000)" fill="#FFFFFF">
            <path d="M699.944026,863.909 C694.138026,863.011 689.254026,862.806 684.732026,861.419 C678.724026,859.575 677.933026,857.259 679.545026,851.305 C680.715026,846.981 681.610026,842.582 682.807026,838.266 C683.949026,834.151 682.504026,830.919 679.337026,828.608 C675.596026,825.878 671.515026,823.616 667.613026,821.104 C665.660026,819.847 663.639026,818.644 661.884026,817.142 C656.037026,812.134 655.584026,808.926 659.754026,802.524 C667.233026,791.041 673.185026,778.874 677.148026,765.707 C682.788026,746.968 682.982026,727.89 680.415026,708.788 C677.090026,684.05 673.073026,659.405 669.369026,634.717 C669.199026,633.585 669.180026,632.431 669.539026,631 C692.846026,666.579 719.417026,699.301 751.354026,727.543 C735.490026,704.393 717.382026,682.57 710.085026,654.368 C715.989026,660.555 721.947026,666.692 727.787026,672.939 C746.876026,693.356 765.276026,714.346 780.276026,738.048 C789.295026,752.298 796.810026,767.169 800.044026,784.017 C803.762026,803.39 796.602026,821.594 780.186026,832.654 C779.004026,833.45 777.972026,834.468 777.125026,835.722 C787.768026,833.29 796.234026,827.495 802.188026,818.481 C814.141026,800.385 815.162026,780.516 810.974026,759.905 C807.305026,741.848 799.322026,726.064 786.776026,712.567 C812.457026,725.698 825.277026,748.33 829.446026,775.474 C836.516026,821.51 819.183026,855.262 774.819026,873.819 C785.508026,874.328 807.085026,864.832 817.489026,855.196 C829.379026,844.182 836.295026,830.229 840.394026,814.638 C840.840026,814.722 841.285026,814.806 841.731026,814.89 C842.281026,819.2 843.001026,823.496 843.353026,827.822 C844.812026,845.711 841.088026,862.816 836.267026,879.944 C834.006026,887.975 830.997026,891.276 822.110026,891.511 C804.903026,891.967 790.659026,901.097 776.484026,910.014 C769.218026,914.586 761.580026,918.944 753.540026,921.782 C747.639026,923.864 740.735026,924.232 734.414026,923.713 C726.285026,923.044 720.816026,917.525 718.280026,909.895 C716.513026,904.578 715.095026,898.938 714.855026,893.385 C714.646026,888.521 712.277026,886.59 708.458026,885.213 C704.561026,883.808 700.531026,882.709 696.759026,881.029 C692.341026,879.061 691.715026,876.376 694.323026,872.228 C696.044026,869.491 697.939026,866.862 699.944026,863.909" id="Imported-Layers" sketch:type="MSShapeGroup"></path>
        </g>
    </g>
</svg>