<?xml version="1.0" encoding="UTF-8" standalone="no"?>
<!DOCTYPE svg PUBLIC "-//W3C//DTD SVG 1.0//EN" "http://www.w3.org/TR/2001/REC-SVG-20010904/DTD/svg10.dtd">
<!-- Created with Inkscape (http://www.inkscape.org/) -->
<svg xmlns:svg="http://www.w3.org/2000/svg" xmlns="http://www.w3.org/2000/svg" xmlns:xlink="http://www.w3.org/1999/xlink" version="1.0" width="800" height="500" id="svg2">
  <defs id="defs4">
    <linearGradient id="linearGradient3481">
      <stop id="stop3483" style="stop-color:#f5844e;stop-opacity:1" offset="0"/>
      <stop id="stop3485" style="stop-color:#f5834d;stop-opacity:0" offset="1"/>
    </linearGradient>
    <linearGradient id="linearGradient3473">
      <stop id="stop3475" style="stop-color:#ffce30;stop-opacity:1" offset="0"/>
      <stop id="stop3477" style="stop-color:#ffce31;stop-opacity:0" offset="1"/>
    </linearGradient>
    <linearGradient id="linearGradient3464">
      <stop id="stop3466" style="stop-color:#ffffff;stop-opacity:0" offset="0"/>
      <stop id="stop3468" style="stop-color:#81c56d;stop-opacity:1" offset="1"/>
    </linearGradient>
    <linearGradient id="linearGradient3443">
      <stop id="stop3445" style="stop-color:#559bd4;stop-opacity:1" offset="0"/>
      <stop id="stop3447" style="stop-color:#ffffff;stop-opacity:0" offset="1"/>
    </linearGradient>
    <linearGradient x1="454.30823" y1="-1835.8932" x2="452.30823" y2="-1712.2634" id="linearGradient3449" xlink:href="#linearGradient3443" gradientUnits="userSpaceOnUse" gradientTransform="matrix(1.456421,0,0,1.456421,-410.45297,2926.8785)"/>
    <linearGradient x1="541.6438" y1="-1815.1028" x2="541.6438" y2="-1720.2479" id="linearGradient3470" xlink:href="#linearGradient3464" gradientUnits="userSpaceOnUse" gradientTransform="matrix(1.456421,0,0,1.456421,-410.45297,2926.8785)"/>
    <linearGradient x1="565.68542" y1="-1760.686" x2="661.85193" y2="-1760.6859" id="linearGradient3479" xlink:href="#linearGradient3473" gradientUnits="userSpaceOnUse" gradientTransform="matrix(1.456421,0,0,1.456421,-410.45297,2926.8785)"/>
    <linearGradient x1="699.32861" y1="-1864.1003" x2="699.32861" y2="-1794.4503" id="linearGradient3487" xlink:href="#linearGradient3481" gradientUnits="userSpaceOnUse" gradientTransform="matrix(1.456421,0,0,1.456421,-410.45297,2926.8785)"/>
  </defs>
  <g id="layer1">
    <path d="M 326.40124,284.05275 L 406.21425,284.05275 L 406.21425,347.90312 L 429.90068,390.64165 L 430.93053,420.50717 L 325.88632,420.50717 L 326.40124,284.05275 z" id="path3417" style="fill:url(#linearGradient3470);fill-opacity:1;fill-rule:evenodd;stroke:none;stroke-width:1px;stroke-linecap:butt;stroke-linejoin:miter;stroke-opacity:1"/>
    <path d="M 145.75205,153.91513 L 133.33606,153.91513 L 133.33606,69.76982 L 105.13016,153.91513 L 93.388931,153.91513 L 65.183023,69.76982 L 65.183023,153.91513 L 52.767034,153.91513 L 52.767034,54.992098 L 72.403201,54.992098 L 99.19207,137.45044 L 126.11589,54.992098 L 145.75205,54.992098 L 145.75205,153.91513 z M 179.08631,153.91513 L 166.33293,153.91513 L 166.33293,82.320819 L 179.08631,82.320819 L 179.08631,153.91513 z M 179.08631,68.757607 L 166.33293,68.757607 L 166.33293,54.992098 L 179.08631,54.992098 L 179.08631,68.757607 z M 226.92839,155.6021 C 216.76163,155.6021 208.63052,152.32952 202.53501,145.78408 C 196.43946,139.23863 193.3917,130.02793 193.3917,118.15169 C 193.3917,106.23059 196.43946,97.008533 202.53501,90.485661 C 208.63052,83.962788 216.76163,80.701424 226.92839,80.701279 C 234.75582,80.701424 241.28996,82.680701 246.53082,86.639398 C 251.77158,90.598096 254.86432,96.311345 255.80908,103.77885 L 242.7183,103.77885 C 242.53831,99.505276 240.93008,96.243767 237.8936,93.99447 C 234.85704,91.745319 231.20198,90.620671 226.92839,90.620525 C 220.85531,90.620671 215.92941,92.926185 212.15065,97.537069 C 208.37185,102.14824 206.48246,109.01964 206.48248,118.15169 C 206.48246,127.23889 208.37185,134.08785 212.15065,138.69888 C 215.92941,143.30991 220.85531,145.61542 226.92839,145.61542 C 231.20198,145.61542 234.85704,144.49077 237.8936,142.24148 C 240.93008,139.99218 242.53831,136.75325 242.7183,132.52453 L 255.80908,132.52453 C 254.86432,139.99218 251.77158,145.70528 246.53082,149.66413 C 241.28996,153.62283 234.75582,155.6021 226.92839,155.6021 L 226.92839,155.6021 z M 304.19099,93.927038 C 302.39153,93.387288 299.80487,93.117413 296.43099,93.117268 C 289.95305,93.117413 284.39734,96.513787 279.76387,103.30654 L 279.76387,153.91513 L 267.01047,153.91513 L 267.01047,82.320819 L 279.76387,82.320819 L 279.76387,92.307498 C 285.11712,84.570115 291.32512,80.701424 298.38787,80.701279 C 300.18725,80.701424 302.12162,80.881292 304.19099,81.241174 L 304.19099,93.927038 z M 339.86409,80.701279 C 350.07576,80.701424 358.22937,83.962788 364.32496,90.485661 C 370.42043,97.008533 373.46819,106.23059 373.46827,118.15169 C 373.46819,130.02793 370.42043,139.23863 364.32496,145.78408 C 358.22937,152.32952 350.07576,155.6021 339.86409,155.6021 C 329.69734,155.6021 321.56623,152.32952 315.47071,145.78408 C 309.37517,139.23863 306.3274,130.02793 306.3274,118.15169 C 306.3274,106.23059 309.37517,97.008533 315.47071,90.485661 C 321.56623,83.962788 329.69734,80.701424 339.86409,80.701279 L 339.86409,80.701279 z M 339.86409,145.61542 C 345.93709,145.61542 350.86301,143.30991 354.64184,138.69888 C 358.42055,134.08785 360.30995,127.23889 360.31001,118.15169 C 360.30995,109.01964 358.42055,102.14824 354.64184,97.537069 C 350.86301,92.926185 345.93709,90.620671 339.86409,90.620525 C 333.79102,90.620671 328.86511,92.926185 325.08635,97.537069 C 321.30755,102.14824 319.41817,109.01964 319.41818,118.15169 C 319.41817,127.23889 321.30755,134.08785 325.08635,138.69888 C 328.86511,143.30991 333.79102,145.61542 339.86409,145.61542 L 339.86409,145.61542 z M 410.25838,155.6021 C 390.68967,155.6021 380.45547,147.90958 379.55577,132.52453 L 392.30917,132.52453 C 392.39912,141.25184 398.33721,145.61542 410.12343,145.61542 C 415.38668,145.61542 419.40164,144.52442 422.16829,142.3427 C 424.93485,140.16084 426.31816,137.42801 426.3182,134.14407 C 426.31816,130.90513 424.96859,128.62219 422.26951,127.29496 C 419.57034,125.96801 414.00339,124.24725 405.56864,122.13296 C 397.13384,120.01868 390.97083,117.65694 387.0796,115.04776 C 383.18835,112.43859 381.24273,107.85013 381.24273,101.28211 C 381.24273,95.344135 383.66069,90.429443 388.49665,86.538177 C 393.33257,82.646912 399.79922,80.701424 407.89665,80.701279 C 426.65555,80.701424 436.23745,87.381736 436.64238,100.74236 L 423.95647,100.74236 C 423.50657,93.994616 418.44571,90.620671 408.77386,90.620525 C 404.50021,90.620671 400.9576,91.430441 398.14604,93.049835 C 395.33442,94.669376 393.92862,97.031108 393.92865,100.13503 C 393.92862,102.92422 395.00828,104.93729 397.1676,106.17437 C 399.32688,107.41146 404.73639,109.076 413.39612,111.16771 C 422.05578,113.25957 428.48871,115.7001 432.69491,118.48914 C 436.90098,121.27819 439.00405,126.09166 439.00412,132.92941 C 439.00405,139.45243 436.40614,144.86187 431.21038,149.15802 C 426.01451,153.45403 419.03052,155.6021 410.25838,155.6021 L 410.25838,155.6021 z M 480.73781,80.701279 C 490.94948,80.701424 499.10309,83.962788 505.19868,90.485661 C 511.29415,97.008533 514.34191,106.23059 514.34199,118.15169 C 514.34191,130.02793 511.29415,139.23863 505.19868,145.78408 C 499.10309,152.32952 490.94948,155.6021 480.73781,155.6021 C 470.57106,155.6021 462.43995,152.32952 456.34443,145.78408 C 450.24889,139.23863 447.20112,130.02793 447.20112,118.15169 C 447.20112,106.23059 450.24889,97.008533 456.34443,90.485661 C 462.43995,83.962788 470.57106,80.701424 480.73781,80.701279 L 480.73781,80.701279 z M 480.73781,145.61542 C 486.81081,145.61542 491.73671,143.30991 495.51556,138.69888 C 499.29427,134.08785 501.18367,127.23889 501.18373,118.15169 C 501.18367,109.01964 499.29427,102.14824 495.51556,97.537069 C 491.73671,92.926185 486.81081,90.620671 480.73781,90.620525 C 474.66474,90.620671 469.73883,92.926185 465.96007,97.537069 C 462.18127,102.14824 460.29189,109.01964 460.2919,118.15169 C 460.29189,127.23889 462.18127,134.08785 465.96007,138.69888 C 469.73883,143.30991 474.66474,145.61542 480.73781,145.61542 L 480.73781,145.61542 z M 545.10486,92.307498 L 545.10486,153.91513 L 532.41895,153.91513 L 532.41895,92.307498 L 521.89235,92.307498 L 521.89235,82.320819 L 532.41895,82.320819 L 532.41895,75.977814 C 532.41894,60.862786 539.09928,53.305272 552.45999,53.305126 C 556.55364,53.305272 559.72511,53.575146 561.97442,54.114896 L 561.97442,65.18122 C 559.45519,64.731477 556.89103,64.506606 554.2819,64.50646 C 551.17787,64.506606 548.87237,65.372593 547.36538,67.104424 C 545.85834,68.836399 545.10484,71.839248 545.10486,76.112824 L 545.10486,82.320819 L 558.668,82.320819 L 558.668,92.307498 L 545.10486,92.307498 z M 608.16404,154.85991 C 605.37491,155.3998 596.4168,154.85991 593.13288,154.85991 C 587.91453,154.85991 584.09077,153.92649 581.66158,152.0595 C 579.23234,150.19266 577.72534,147.79714 577.14053,144.87309 C 576.55572,141.94903 576.26331,137.9679 576.26331,132.92941 L 576.26331,92.307498 L 565.8789,92.307498 L 565.8789,82.320819 L 576.26331,82.320819 L 576.26331,64.50646 L 588.94923,64.50646 L 588.94923,82.320819 L 604.93233,82.320819 L 604.93233,92.307498 L 588.94923,92.307498 L 588.94923,133.60417 C 588.9492,138.50765 589.56776,141.62294 590.80489,142.95003 C 592.04196,144.27712 593.74016,144.94066 595.89949,144.94052 C 598.10374,144.94066 606.13966,145.3004 608.16404,144.94052 L 608.16404,154.85991 z" id="text3397" style="font-size:94.88703156px;font-style:normal;font-variant:normal;font-weight:normal;font-stretch:normal;text-align:start;line-height:100%;writing-mode:lr-tb;text-anchor:start;fill:#000000;fill-opacity:1;stroke:none;stroke-width:1px;stroke-linecap:butt;stroke-linejoin:miter;stroke-opacity:1;font-family:Microsoft Sans Serif;-inkscape-font-specification:Microsoft Sans Serif"/>
    <path d="M 170.37969,432.35049 L 315.58787,432.35049 L 313.52818,242.85891 L 269.75976,212.99339 L 227.02119,216.59789 L 179.6483,250.58274 L 170.37969,432.35049 z" id="path3415" style="fill:url(#linearGradient3449);fill-opacity:1;fill-rule:evenodd;stroke:none;stroke-width:1px;stroke-linecap:butt;stroke-linejoin:miter;stroke-opacity:1"/>
    <path d="M 364.51353,-1736.4675 A 24.395184,24.395184 0 1 1 315.72316,-1736.4675 A 24.395184,24.395184 0 1 1 364.51353,-1736.4675 z" transform="matrix(1.456421,0,0,1.456421,-410.45297,2926.8785)" id="path3413" style="opacity:1;fill:#000000;fill-opacity:1;fill-rule:nonzero;stroke:none;stroke-width:4;stroke-linecap:round;stroke-linejoin:miter;stroke-miterlimit:4;stroke-dasharray:none;stroke-opacity:1"/>
    <path d="M 413.42315,307.73911 L 413.93808,347.90312 L 446.89312,405.57448 L 480.36309,420.50717 L 539.57918,418.4475 L 583.3476,376.7388 L 583.3476,304.6496 L 413.42315,307.73911 z" id="path3419" style="fill:url(#linearGradient3479);fill-opacity:1;fill-rule:evenodd;stroke:none;stroke-width:1px;stroke-linecap:butt;stroke-linejoin:miter;stroke-opacity:1"/>
    <path d="M 546.7881,217.11273 L 580.77299,290.74676 L 582.31776,324.73161 L 663.16061,324.73161 L 669.33968,211.96356 L 546.7881,217.11273 z" id="path3421" style="fill:url(#linearGradient3487);fill-opacity:1;fill-rule:evenodd;stroke:none;stroke-width:1px;stroke-linecap:butt;stroke-linejoin:miter;stroke-opacity:1"/>
    <path d="M 654.14526,141.42778 L 654.14526,192.67544 L 510.09612,192.67544 C 504.94845,191.98044 499.629,191.62871 494.12101,191.62871 C 462.27542,191.62901 436.36025,202.76189 416.38454,224.98993 C 396.40869,247.21812 386.39134,278.45078 386.39137,318.70145 C 386.39135,357.60056 396.30719,387.81153 416.06594,409.36365 C 416.33464,409.65668 416.61389,409.93923 416.88518,410.22833 L 339.28525,410.22833 L 339.28525,289.16333 C 339.28503,270.38992 338.54791,257.25883 337.10062,249.74909 C 334.78437,238.18467 330.73849,228.21212 324.94861,219.80128 C 319.15831,211.39104 310.43091,204.59334 298.77854,199.41139 C 287.12582,194.23017 274.35251,191.62901 260.45646,191.62871 C 228.4661,191.62901 204.02517,204.7601 187.08926,231.04311 L 187.08926,197.04471 L 151.90759,197.04471 L 151.90759,436.30744 L 191.00339,436.30744 L 191.00339,305.63924 C 191.00331,275.00066 197.03071,254.20472 209.11762,243.24063 C 221.20434,232.27713 235.57195,226.76516 252.21858,226.76487 C 262.64061,226.76516 271.73656,229.21151 279.48096,234.09256 C 287.22503,238.9739 292.59816,245.52372 295.63813,253.70866 C 298.67776,261.89418 300.18926,274.2356 300.18945,290.75637 L 300.18945,436.30744 L 458.48421,436.30744 C 469.92273,439.89752 482.49472,441.72358 496.26013,441.72343 C 523.03915,441.72358 545.07401,434.94161 562.29971,421.42471 C 579.52502,407.90752 591.29414,388.92322 597.66344,364.44224 L 557.29327,359.2536 C 551.35824,376.37528 543.30375,388.85564 533.17129,396.66555 C 523.03848,404.47532 510.818,408.36236 496.48769,408.36236 C 477.23552,408.36236 461.17209,401.39397 448.28926,387.42631 C 435.40624,373.4588 428.25448,353.31358 426.80705,327.03028 L 598.75575,327.03028 C 598.90027,322.22453 598.98307,318.60139 598.98332,316.19829 C 598.98309,276.69841 589.21417,246.08488 569.67285,224.30716 C 569.64397,224.27497 569.61073,224.24832 569.58182,224.21613 L 654.14526,224.21613 L 654.14526,366.21718 C 654.14523,390.548 655.73959,406.51242 658.92414,414.09702 C 662.10865,421.68148 667.58322,427.82845 675.39991,432.48434 C 683.21646,437.14022 694.21113,439.44792 708.39695,439.44792 L 751.54342,439.44792 L 751.54342,401.58098 L 715.13289,401.58098 C 709.3427,401.58098 704.90963,400.62061 701.79754,398.66813 C 698.68528,396.71566 696.43666,394.09847 695.06159,390.79429 C 693.68637,387.49025 693.01346,380.05755 693.0135,368.49284 L 693.0135,224.21613 L 743.94272,224.21613 L 743.94272,192.67544 L 693.0135,192.67544 L 693.0135,141.42778 L 654.14526,141.42778 z M 494.53063,224.98993 C 514.36154,224.99008 530.50775,232.8096 542.95662,248.42913 C 551.06257,258.49198 555.96564,273.54395 557.70289,293.66921 L 428.94617,293.66921 C 430.24889,272.79287 437.01341,256.16171 449.24503,243.69576 C 461.47651,231.23011 476.58127,224.99008 494.53063,224.98993 z" id="text3451" style="font-size:311.00479126px;font-style:normal;font-variant:normal;font-weight:normal;font-stretch:normal;text-align:start;line-height:100%;writing-mode:lr-tb;text-anchor:start;fill:#000000;fill-opacity:1;stroke:none;stroke-width:1px;stroke-linecap:butt;stroke-linejoin:miter;stroke-opacity:1;font-family:Arial;-inkscape-font-specification:Arial"/>
    <text x="544" y="-2108" id="text3489" xml:space="preserve" style="font-size:87.54772186px;font-style:normal;font-variant:normal;font-weight:normal;font-stretch:normal;text-align:start;line-height:100%;writing-mode:lr-tb;text-anchor:start;fill:#000000;fill-opacity:1;stroke:none;stroke-width:1px;stroke-linecap:butt;stroke-linejoin:miter;stroke-opacity:1;font-family:Arial;-inkscape-font-specification:Arial"><tspan x="544" y="-2108" id="tspan3491"/></text>
    <path d="M 617.43106,78.501646 C 618.8072,78.501646 620.15077,78.854828 621.46175,79.560901 C 622.7727,80.26712 623.79396,81.277585 624.52551,82.59215 C 625.25702,83.906716 625.62279,85.277354 625.6228,86.704209 C 625.62279,88.116646 625.26245,89.474613 624.5418,90.778401 C 623.82111,92.082189 622.81073,93.094256 621.51064,93.815039 C 620.21052,94.535676 618.85066,94.895995 617.43106,94.895995 C 616.01144,94.895995 614.65158,94.535676 613.35149,93.815039 C 612.05139,93.094256 611.03919,92.082189 610.3149,90.778401 C 609.59061,89.474613 609.22845,88.116646 609.22845,86.704209 C 609.22845,85.277354 609.59604,83.906716 610.3312,82.59215 C 611.06635,81.277585 612.0894,80.26712 613.40039,79.560901 C 614.71134,78.854828 616.0549,78.501646 617.43106,78.501646 L 617.43106,78.501646 z M 617.43106,79.859759 C 616.27944,79.859759 615.15859,80.15483 614.06853,80.745117 C 612.97848,81.335404 612.12562,82.179255 611.50998,83.276522 C 610.89432,84.373936 610.58651,85.516498 610.58651,86.704209 C 610.58651,87.88493 610.88889,89.016569 611.49368,90.099418 C 612.09846,91.182267 612.94407,92.025971 614.03052,92.630823 C 615.11695,93.235529 616.25046,93.538028 617.43106,93.538028 C 618.61165,93.538028 619.74517,93.235529 620.83161,92.630823 C 621.91805,92.025971 622.76184,91.182267 623.36302,90.099418 C 623.96416,89.016569 624.26475,87.88493 624.26476,86.704209 C 624.26475,85.516498 623.95872,84.373936 623.34672,83.276522 C 622.73468,82.179255 621.88182,81.335404 620.78815,80.745117 C 619.69447,80.15483 618.57544,79.859759 617.43106,79.859759 L 617.43106,79.859759 z M 613.83495,91.234698 L 613.83495,82.412865 L 616.86611,82.412865 C 617.90185,82.412865 618.65148,82.494279 619.11505,82.657252 C 619.57858,82.820226 619.94797,83.104519 620.22321,83.510132 C 620.49843,83.915746 620.63605,84.346701 620.63606,84.802997 C 620.63605,85.447609 620.40608,86.008914 619.94617,86.486911 C 619.48623,86.965054 618.87602,87.233036 618.11552,87.291001 C 618.42696,87.421351 618.67684,87.577042 618.86517,87.758075 C 619.22006,88.105723 619.65464,88.688874 620.16888,89.507237 L 621.24447,91.234698 L 619.50615,91.234698 L 618.72393,89.844107 C 618.10827,88.750335 617.61212,88.065963 617.23551,87.790699 C 616.97475,87.587965 616.59451,87.486453 616.09475,87.486453 L 615.25818,87.486453 L 615.25818,91.234698 L 613.83495,91.234698 z M 615.25818,86.269759 L 616.98563,86.269759 C 617.8113,86.269759 618.37444,86.146546 618.67503,85.900265 C 618.97561,85.653984 619.1259,85.328183 619.12591,84.922569 C 619.1259,84.661724 619.05347,84.428114 618.90861,84.22174 C 618.76376,84.015365 618.56276,83.861421 618.30564,83.760054 C 618.04851,83.658687 617.57229,83.607858 616.87698,83.607858 L 615.25818,83.607858 L 615.25818,86.269759 z" id="text3496" style="font-size:15.2773447px;font-style:normal;font-variant:normal;font-weight:normal;font-stretch:normal;text-align:start;line-height:100%;writing-mode:lr-tb;text-anchor:start;fill:#000000;fill-opacity:1;stroke:none;stroke-width:1px;stroke-linecap:butt;stroke-linejoin:miter;stroke-opacity:1;font-family:Arial;-inkscape-font-specification:Arial"/>
    <path d="M 755.20994,206.26924 L 755.20994,193.91864 L 750.59642,193.91864 L 750.59642,192.26619 L 761.69563,192.26619 L 761.69563,193.91864 L 757.06301,193.91864 L 757.06301,206.26924 L 755.20994,206.26924 z M 763.54868,206.26924 L 763.54868,192.26619 L 766.33781,192.26619 L 769.65229,202.18107 C 769.95794,203.10429 770.18081,203.79522 770.32092,204.2537 C 770.48011,203.74439 770.72846,202.99608 771.06597,202.00906 L 774.41865,192.26619 L 776.91168,192.26619 L 776.91168,206.26924 L 775.12548,206.26924 L 775.12548,194.54913 L 771.05642,206.26924 L 769.38484,206.26924 L 765.33488,194.34858 L 765.33488,206.26924 L 763.54868,206.26924 z" id="text3501" style="font-size:13.43163967px;font-style:normal;font-variant:normal;font-weight:normal;font-stretch:normal;text-align:start;line-height:100%;writing-mode:lr-tb;text-anchor:start;fill:#000000;fill-opacity:1;stroke:none;stroke-width:1px;stroke-linecap:butt;stroke-linejoin:miter;stroke-opacity:1;font-family:Arial;-inkscape-font-specification:Arial"/>
  </g>
</svg>