<?xml version="1.0" encoding="UTF-8" standalone="no"?>
<svg width="29px" height="33px" viewBox="0 0 29 33" version="1.1" xmlns="http://www.w3.org/2000/svg" xmlns:xlink="http://www.w3.org/1999/xlink" xmlns:sketch="http://www.bohemiancoding.com/sketch/ns">
    <!-- Generator: Sketch 3.3.1 (12005) - http://www.bohemiancoding.com/sketch -->
    <title>nodejs-green</title>
    <desc>Created with Sketch.</desc>
    <defs></defs>
    <g id="Page-1" stroke="none" stroke-width="1" fill="none" fill-rule="evenodd" sketch:type="MSPage">
        <g id="nodejs-green" sketch:type="MSLayerGroup" fill="#FFFFFF">
            <path d="M14.578,32.805 C14.148,32.805 13.721,32.693 13.345,32.475 L9.418,30.152 C8.832,29.824 9.118,29.708 9.311,29.64 C10.094,29.369 10.252,29.306 11.087,28.833 C11.174,28.784 11.289,28.802 11.379,28.855 L14.395,30.646 C14.505,30.707 14.659,30.707 14.76,30.646 L26.52,23.858 C26.63,23.795 26.7,23.67 26.7,23.54 L26.7,9.967 C26.7,9.835 26.63,9.711 26.518,9.643 L14.762,2.861 C14.653,2.797 14.509,2.797 14.399,2.861 L2.646,9.645 C2.532,9.711 2.46,9.838 2.46,9.967 L2.46,23.54 C2.46,23.67 2.532,23.792 2.645,23.854 L5.867,25.715 C7.615,26.589 8.686,25.56 8.686,24.526 L8.686,11.125 C8.686,10.936 8.838,10.787 9.027,10.787 L10.519,10.787 C10.705,10.787 10.859,10.936 10.859,11.125 L10.859,24.526 C10.859,26.859 9.589,28.197 7.377,28.197 C6.697,28.197 6.162,28.197 4.668,27.461 L1.584,25.685 C0.822,25.245 0.351,24.421 0.351,23.54 L0.351,9.967 C0.351,9.086 0.822,8.262 1.584,7.824 L13.345,1.028 C14.089,0.607 15.078,0.607 15.816,1.028 L27.576,7.824 C28.338,8.264 28.811,9.086 28.811,9.967 L28.811,23.54 C28.811,24.421 28.338,25.242 27.576,25.685 L15.816,32.475 C15.44,32.693 15.014,32.805 14.578,32.805" id="Fill-7" sketch:type="MSShapeGroup"></path>
            <path d="M18.211,23.455 C13.064,23.455 11.986,21.092 11.986,19.111 C11.986,18.922 12.138,18.772 12.326,18.772 L13.847,18.772 C14.017,18.772 14.158,18.894 14.185,19.06 C14.414,20.608 15.099,21.389 18.211,21.389 C20.688,21.389 21.743,20.829 21.743,19.514 C21.743,18.756 21.444,18.194 17.594,17.817 C14.376,17.499 12.386,16.788 12.386,14.213 C12.386,11.84 14.386,10.425 17.739,10.425 C21.507,10.425 23.371,11.733 23.607,14.539 C23.616,14.635 23.582,14.728 23.518,14.8 C23.453,14.868 23.363,14.909 23.269,14.909 L21.742,14.909 C21.584,14.909 21.444,14.796 21.412,14.643 C21.046,13.014 20.155,12.494 17.739,12.494 C15.034,12.494 14.72,13.436 14.72,14.142 C14.72,14.998 15.091,15.247 18.743,15.73 C22.357,16.208 24.074,16.884 24.074,19.424 C24.074,21.987 21.938,23.455 18.211,23.455" id="Fill-8" sketch:type="MSShapeGroup"></path>
        </g>
    </g>
</svg>