<?xml version="1.0" encoding="UTF-8" standalone="no"?>
<svg width="192px" height="98px" viewBox="0 0 192 98" version="1.1" xmlns="http://www.w3.org/2000/svg" xmlns:xlink="http://www.w3.org/1999/xlink" xmlns:sketch="http://www.bohemiancoding.com/sketch/ns">
    <!-- Generator: Sketch 3.3.1 (12005) - http://www.bohemiancoding.com/sketch -->
    <title>text2985</title>
    <desc>Created with Sketch.</desc>
    <defs></defs>
    <g id="Page-1" stroke="none" stroke-width="1" fill="none" fill-rule="evenodd" sketch:type="MSPage">
        <g id="php-logo" sketch:type="MSLayerGroup" transform="translate(-2.000000, -1.000000)" fill="#FFFFFF">
            <g id="layer1" transform="translate(0.368340, 0.452960)" sketch:type="MSShapeGroup">
                <g id="text2985" transform="translate(0.842510, 0.776960)">
                    <path d="M15.94715,20.96808 L44.35516,20.96808 C52.69376,21.03888 58.73576,23.44146 62.48116,28.17608 C66.22642,32.91078 67.46308,39.37678 66.19116,47.57408 C65.69642,51.31944 64.60108,54.9941 62.90516,58.59808 C61.27976,62.2021 59.01842,65.45276 56.12116,68.35008 C52.58776,72.02474 48.8071,74.35674 44.77916,75.34608 C40.7511,76.33542 36.58178,76.83008 32.27116,76.83008 L19.55116,76.83008 L15.52315,96.97008 L0.78915,96.97008 L15.94715,20.96808 M28.34916,33.05208 L21.98916,64.85208 C22.41312,64.92268 22.83712,64.95808 23.26116,64.95808 L24.74516,64.95808 C31.52912,65.02868 37.18244,64.35742 41.70516,62.94408 C46.22776,61.4601 49.26644,56.30144 50.82116,47.46808 C52.0931,40.04812 50.8211,35.77278 47.00516,34.64208 C43.25978,33.51146 38.56044,32.98146 32.90716,33.05208 C32.05912,33.12268 31.24646,33.15808 30.46916,33.15808 C29.76246,33.15812 29.02046,33.15812 28.24316,33.15808 L28.34916,33.05208" id="path3058"></path>
                    <path d="M82.97512,0.72208 L97.6031,0.72208 L93.46908,20.96808 L106.6131,20.96808 C113.82104,21.10948 119.19168,22.59346 122.7251,25.42008 C126.32904,28.2468 127.38906,33.61746 125.90514,41.53208 L118.80316,76.83008 L103.96316,76.83008 L110.74716,43.12208 C111.45372,39.58878 111.24176,37.08012 110.11116,35.59608 C108.98044,34.11212 106.54246,33.37012 102.79712,33.37008 L91.03108,33.26408 L82.33908,76.83008 L67.71116,76.83008 L82.97508,0.72208" id="path3060"></path>
                    <path d="M141.61316,20.96808 L170.02116,20.96808 C178.35972,21.03888 184.40176,23.44146 188.14714,28.17608 C191.8924,32.91078 193.12904,39.37678 191.85712,47.57408 C191.36238,51.31944 190.26706,54.9941 188.57112,58.59808 C186.94572,62.2021 184.68438,65.45276 181.78712,68.35008 C178.25374,72.02474 174.47306,74.35674 170.44514,75.34608 C166.4171,76.33542 162.24774,76.83008 157.93714,76.83008 L145.21712,76.83008 L141.18912,96.97008 L126.45514,96.97008 L141.61316,20.96808 M154.01512,33.05208 L147.65512,64.85208 C148.0791,64.92268 148.5031,64.95808 148.92712,64.95808 L150.41112,64.95808 C157.19508,65.02868 162.84842,64.35742 167.37112,62.94408 C171.89374,61.4601 174.9324,56.30144 176.48712,47.46808 C177.75906,40.04812 176.48706,35.77278 172.67112,34.64208 C168.92574,33.51146 164.2264,32.98146 158.57312,33.05208 C157.72508,33.12268 156.91242,33.15808 156.13512,33.15808 C155.42842,33.15812 154.68642,33.15812 153.90912,33.15808 L154.01512,33.05208" id="path3062"></path>
                </g>
            </g>
        </g>
    </g>
</svg>