<?xml version="1.0" encoding="UTF-8" standalone="no"?>
<svg width="164px" height="162px" viewBox="0 0 164 162" version="1.1" xmlns="http://www.w3.org/2000/svg" xmlns:xlink="http://www.w3.org/1999/xlink" xmlns:sketch="http://www.bohemiancoding.com/sketch/ns">
    <!-- Generator: Sketch 3.3.3 (12081) - http://www.bohemiancoding.com/sketch -->
    <title>Imported-Layers</title>
    <desc>Created with Sketch.</desc>
    <defs></defs>
    <g id="Page-1" stroke="none" stroke-width="1" fill="none" fill-rule="evenodd" sketch:type="MSPage">
        <g id="rails" sketch:type="MSLayerGroup" fill="#FFFFFF">
            <g id="Mockups" sketch:type="MSShapeGroup">
                <g id="Docs-Home">
                    <g id="Imported-Layers">
                        <path d="M0,134 C0.909,131.393 2.227,128.848 2.631,126.165 C3.243,122.089 5.337,121.458 8.827,122.357 C11.674,123.09 14.59,123.552 18.045,124.249 C17.134,128.914 16.294,133.214 15.31,138.252 C9.997,137.471 4.999,136.735 0,136 L0,134" id="Fill-1"></path>
                        <path d="M107,0 C107.939,0.261 108.915,0.838 109.81,0.732 C115.211,0.091 115.943,3.566 116.324,7.597 C107.049,8.769 105.95,8.014 105,0 L107,0" id="Fill-2"></path>
                        <path d="M161.347,36.334 C156.593,34.377 152.003,31.898 147.099,30.582 C133.451,26.922 120.864,28.709 109.675,38.289 C93.235,52.366 86.396,70.733 85.069,91.613 C83.663,113.73 87.996,135.03 94.959,155.893 C95.433,157.313 95.936,158.725 96.373,160.156 C96.455,160.425 96.288,160.771 96.177,161.427 L20.239,161.427 C20.239,155.559 19.895,149.79 20.295,144.074 C22.684,109.96 30.933,77.704 51.054,49.333 C64.559,30.292 81.554,16.318 105.414,12.745 C126.49,9.589 144.909,15.796 161.032,29.365 C163.953,31.824 163.84,31.959 161.347,36.334" id="Fill-3"></path>
                        <path d="M27.13,88.66 C22.78,86.954 19.112,85.516 14.812,83.829 C16.172,79.762 17.448,75.945 18.924,71.532 C23.249,73.476 27.089,75.202 31.416,77.147 C29.966,81.043 28.661,84.546 27.13,88.66" id="Fill-4"></path>
                        <path d="M53.738,38.863 C51.769,41.951 50.033,44.674 48.038,47.803 C44.244,45.311 40.85,43.083 37.133,40.641 C39.574,37.576 41.708,34.897 44.102,31.891 C47.38,34.262 50.388,36.439 53.738,38.863" id="Fill-5"></path>
                        <path d="M109.138,147.088 C96.213,147.253 95.488,146.771 93.414,136.889 C104.907,136.799 106.858,138.028 109.138,147.088" id="Fill-6"></path>
                        <path d="M77.929,5.671 C80.087,8.545 81.957,11.034 84.15,13.956 C81.468,15.72 79.034,17.322 76.32,19.107 C73.83,16.395 71.523,13.881 68.831,10.949 C71.979,9.122 74.671,7.561 77.929,5.671" id="Fill-7"></path>
                        <path d="M88.576,100.86 C97.574,103.424 98.862,104.848 99.366,112.787 C89.758,111.138 87.799,108.973 88.576,100.86" id="Fill-8"></path>
                        <path d="M98.452,85.773 C89.683,79.614 89.621,79.453 93.152,72.611 C100.702,77.616 101.12,78.602 98.452,85.773" id="Fill-9"></path>
                        <path d="M106.439,60.315 C104.519,57.642 102.813,55.268 100.981,52.717 C102.327,51.04 103.523,49.549 104.75,48.021 C110.947,54.449 111.084,55.256 106.439,60.315" id="Fill-10"></path>
                        <path d="M121.25,43.221 C120.366,40.967 119.601,39.014 118.688,36.686 C120.778,35.941 122.438,35.349 124.04,34.777 C127.518,40.799 127.445,41.044 121.25,43.221" id="Fill-11"></path>
                        <path d="M152.591,18.677 C149.327,16.743 144.115,16.938 144.047,9.964 C147.63,13.095 151.875,13.956 152.591,18.677" id="Fill-12"></path>
                        <path d="M143.934,33.275 C146.126,34.164 148.194,35.003 150.263,35.842 C149.342,36.487 148.468,37.587 147.492,37.686 C145.199,37.918 142.53,38.019 143.934,33.275" id="Fill-13"></path>
                    </g>
                </g>
            </g>
        </g>
    </g>
</svg>