<?xml version="1.0" encoding="UTF-8" standalone="no"?>
<svg width="403px" height="403px" viewBox="0 0 403 403" version="1.1" xmlns="http://www.w3.org/2000/svg" xmlns:xlink="http://www.w3.org/1999/xlink" xmlns:sketch="http://www.bohemiancoding.com/sketch/ns">
    <!-- Generator: Sketch 3.3.3 (12081) - http://www.bohemiancoding.com/sketch -->
    <title>Imported-Layers</title>
    <desc>Created with Sketch.</desc>
    <defs></defs>
    <g id="Page-1" stroke="none" stroke-width="1" fill="none" fill-rule="evenodd" sketch:type="MSPage">
        <g id="socketio" sketch:type="MSLayerGroup" fill="#FFFFFF">
            <g id="Page-1" sketch:type="MSShapeGroup">
                <g id="socketio">
                    <g id="Imported-Layers">
                        <path d="M209,0 C220.153,1.673 231.564,2.355 242.417,5.178 C321.734,25.808 375.736,73.693 396.222,154.266 C412.586,218.628 396.659,276.924 355.274,328.19 C326.544,363.779 289.602,387.015 244.796,397.065 C185.909,410.274 132.105,397.875 83.629,362.862 C39.587,331.051 11.75,288.154 3.459,234.228 C-6.587,168.889 11.032,111.279 56.514,62.881 C88.014,29.363 126.932,9.516 172.3,2.284 C178.497,1.296 184.765,0.75 191,0 L209,0 L209,0 Z M25.982,201.304 C25.076,304.447 113.947,376.434 198.833,376.968 C305.982,377.643 375.973,286.938 376.943,204.431 C378.223,95.523 287.896,26.138 201.486,25.487 C105.256,24.761 25.982,104.785 25.982,201.304 L25.982,201.304 L25.982,201.304 Z" id="Fill-1"></path>
                        <path d="M291.105,77.555 C290.679,77.166 290.254,76.779 289.829,76.391 C243.259,114.705 196.688,153.019 150.118,191.333 C150.306,191.817 150.494,192.301 150.682,192.784 C152.397,192.883 154.113,193.066 155.828,193.068 C173.16,193.089 190.495,192.908 207.823,193.182 C213.336,193.27 216.73,191.188 219.676,186.682 C241.533,153.257 263.573,119.951 285.532,86.592 C287.477,83.637 289.251,80.57 291.105,77.555 L291.105,77.555 L291.105,77.555 Z M113.742,330.323 C114.124,330.639 114.506,330.954 114.888,331.27 C161.464,292.974 208.041,254.677 255.489,215.664 C253.379,215.095 252.646,214.73 251.909,214.722 C233.105,214.526 214.301,214.36 195.497,214.209 C191.318,214.176 188.318,216.1 186.022,219.6 C162.587,255.322 139.092,291.005 115.634,326.712 C114.891,327.842 114.368,329.116 113.742,330.323 L113.742,330.323 L113.742,330.323 Z" id="Fill-2"></path>
                        <path d="M291.105,77.555 C289.251,80.57 287.477,83.637 285.532,86.592 C263.573,119.951 241.533,153.257 219.676,186.682 C216.73,191.188 213.336,193.27 207.823,193.182 C190.495,192.908 173.16,193.089 155.828,193.068 C154.113,193.066 152.397,192.883 150.682,192.784 C150.494,192.301 150.306,191.817 150.118,191.333 C196.688,153.019 243.259,114.705 289.829,76.391 C290.254,76.779 290.679,77.166 291.105,77.555" id="Fill-3"></path>
                        <path d="M113.742,330.323 C114.368,329.116 114.891,327.842 115.634,326.712 C139.092,291.005 162.587,255.322 186.022,219.6 C188.318,216.1 191.318,214.176 195.497,214.209 C214.301,214.36 233.105,214.526 251.909,214.722 C252.646,214.73 253.379,215.095 255.489,215.664 C208.041,254.677 161.464,292.974 114.888,331.27 C114.506,330.954 114.124,330.639 113.742,330.323" id="Fill-4"></path>
                    </g>
                </g>
            </g>
        </g>
    </g>
</svg>