<svg width="17px" height="18px" viewBox="15 117 17 18" version="1.1" xmlns="http://www.w3.org/2000/svg" xmlns:xlink="http://www.w3.org/1999/xlink">
    <!-- Generator: Sketch 3.8.2 (29753) - http://www.bohemiancoding.com/sketch -->
    <desc>Created with Sketch.</desc>
    <defs></defs>
    <path d="M28.4352566,131.556536 L26.5507171,125.999679 L31.4837368,122.566286 L25.3859934,122.566286 L23.5012303,117.009643 L23.5006711,117.008143 L29.5994211,117.008143 L31.4845197,122.56575 L31.4845197,122.565643 L31.4860855,122.564786 C32.5810197,125.788929 31.4534276,129.456 28.4352566,131.556536 L28.4352566,131.556536 L28.4352566,131.556536 Z M18.5669803,131.556536 L18.5654145,131.557607 L23.4997763,134.991857 L28.4352566,131.556643 L23.5013421,128.122286 L18.5669803,131.556536 L18.5669803,131.556536 L18.5669803,131.556536 Z M15.5171579,122.564893 L15.5171579,122.564893 C14.3647368,125.963571 15.7024803,129.564857 18.5659737,131.557179 L18.5664211,131.555464 L20.4511842,125.998929 L15.5191711,122.566179 L21.6154605,122.566179 L23.5003355,117.009536 L23.5007829,117.008036 L17.4016974,117.008036 L15.5171579,122.564893 L15.5171579,122.564893 L15.5171579,122.564893 Z" id="Shape" stroke="none" fill-rule="evenodd"></path>
</svg>
