<svg width="17px" height="18px" viewBox="15 67 17 18" version="1.1" xmlns="http://www.w3.org/2000/svg" xmlns:xlink="http://www.w3.org/1999/xlink">
    <!-- Generator: Sketch 3.8.2 (29753) - http://www.bohemiancoding.com/sketch -->
    <desc>Created with Sketch.</desc>
    <defs></defs>
    <path d="M28.4352566,81.5565357 L26.5507171,75.9996786 L31.4837368,72.5662857 L25.3859934,72.5662857 L23.5012303,67.0096429 L23.5006711,67.0081429 L29.5994211,67.0081429 L31.4845197,72.56575 L31.4845197,72.5656429 L31.4860855,72.5647857 C32.5810197,75.7889286 31.4534276,79.456 28.4352566,81.5565357 L28.4352566,81.5565357 L28.4352566,81.5565357 Z M18.5669803,81.5565357 L18.5654145,81.5576071 L23.4997763,84.9918571 L28.4352566,81.5566429 L23.5013421,78.1222857 L18.5669803,81.5565357 L18.5669803,81.5565357 L18.5669803,81.5565357 Z M15.5171579,72.5648929 L15.5171579,72.5648929 C14.3647368,75.9635714 15.7024803,79.5648571 18.5659737,81.5571786 L18.5664211,81.5554643 L20.4511842,75.9989286 L15.5191711,72.5661786 L21.6154605,72.5661786 L23.5003355,67.0095357 L23.5007829,67.0080357 L17.4016974,67.0080357 L15.5171579,72.5648929 L15.5171579,72.5648929 L15.5171579,72.5648929 Z" id="Shape" stroke="none" fill-rule="evenodd"></path>
</svg>
