<?xml version="1.0" encoding="utf-8"?>
<!-- Generator: Adobe Illustrator 18.1.1, SVG Export Plug-In . SVG Version: 6.00 Build 0)  -->
<svg version="1.1" id="Layer_1" xmlns="http://www.w3.org/2000/svg" xmlns:xlink="http://www.w3.org/1999/xlink" x="0px" y="0px"
	 viewBox="0 0 150.1 167.8" enable-background="new 0 0 150.1 167.8" xml:space="preserve">
<g>
	<polygon fill="#FFFFFF" points="31,135.8 30.9,135.8 75.1,167.8 119.2,135.8 75.1,103.7 	"/>
	<path fill="#FFFFFF" d="M3.7,51.9L3.7,51.9C-6.6,83.6,5.3,117.2,31,135.8l0,0l16.9-51.9L3.7,51.9l54.5,0L75.1,0l0,0H20.5L3.7,51.9z
		"/>
	<path fill="#FFFFFF" d="M146.5,51.9L146.5,51.9L146.5,51.9L129.6,0H75.1l0,0l16.9,51.9L146.5,51.9l-44.1,32.1l16.8,51.9
		C146.2,116.2,156.3,82,146.5,51.9z"/>
</g>
</svg>
