<svg xmlns="http://www.w3.org/2000/svg" version="1" width="436.505" height="152.503" viewBox="0 0 436.505 152.503" overflow="visible"><g fill="#FFF"><path d="M51.464 0h23.872v110.496C63.09 112.82 54.1 113.75 44.334 113.75 15.19 113.75 0 100.577 0 75.31 0 50.97 16.122 35.16 41.078 35.16c3.875 0 6.82.31 10.386 1.24V0zm0 55.62c-2.79-.93-5.115-1.24-8.06-1.24-12.09 0-19.067 7.442-19.067 20.462 0 12.712 6.666 19.687 18.912 19.687 2.633 0 4.804-.156 8.214-.62V55.62z"/><path d="M113.312 36.865v55.338c0 19.067-1.395 28.212-5.58 36.118-3.876 7.598-8.992 12.402-19.532 17.673l-22.167-10.54c10.54-4.96 15.656-9.3 18.91-15.968 3.412-6.82 4.498-14.726 4.498-35.497V36.865h23.872zM89.442.127h23.87V24.62h-23.87V.126zM127.73 42.29c10.543-4.96 20.618-7.13 31.624-7.13 12.246 0 20.306 3.255 23.872 9.61 2.014 3.566 2.634 8.216 2.634 18.138v48.517c-10.697 1.55-24.182 2.636-34.102 2.636-19.996 0-28.988-6.977-28.988-22.477 0-16.742 11.936-24.492 41.234-26.973v-5.27c0-4.34-2.17-5.89-8.216-5.89-8.835 0-18.756 2.48-28.058 7.287V42.29zm37.36 37.978c-15.813 1.55-20.928 4.03-20.928 10.23 0 4.65 2.946 6.82 9.456 6.82 3.566 0 6.82-.308 11.47-1.083V80.268zM197.487 40.585c14.105-3.72 25.73-5.424 37.512-5.424 12.245 0 21.08 2.79 26.353 8.216 4.96 5.114 6.51 10.694 6.51 22.632v46.812H243.99V66.938c0-9.145-3.1-12.557-11.625-12.557-3.255 0-6.2.31-11.007 1.706v56.734h-23.87V40.585zM277.142 125.842c8.372 4.34 16.742 6.354 25.577 6.354 15.654 0 22.32-6.354 22.32-21.546v-.465c-4.65 2.324-9.3 3.255-15.5 3.255-20.927 0-34.26-13.796-34.26-35.652 0-27.13 19.688-42.473 54.564-42.473 10.232 0 19.688 1.084 31.16 3.41l-8.175 17.218c-6.357-1.24-.51-.166-5.313-.63v2.48l.31 10.074.153 13.022c.155 3.253.155 6.51.31 9.764v6.51c0 20.463-1.704 30.073-6.82 37.978-7.44 11.627-20.306 17.362-38.597 17.362-9.3 0-17.36-1.395-25.732-4.65V125.84zm47.434-71.306h-2.48c-4.65-.155-10.074 1.084-13.796 3.41-5.734 3.255-8.68 9.146-8.68 17.516 0 11.937 5.89 18.757 16.43 18.757 3.256 0 5.892-.622 8.99-1.55v-8.217c0-2.79-.153-5.89-.153-9.145l-.154-11.005-.156-7.906v-1.86zM398.062 34.85c23.87 0 38.443 15.037 38.443 39.373 0 24.958-15.19 40.614-39.373 40.614-23.873 0-38.6-15.037-38.6-39.218.002-25.115 15.194-40.77 39.53-40.77zm-.467 60.764c9.147 0 14.573-7.596 14.573-20.772 0-13.02-5.27-20.77-14.415-20.77-9.457 0-14.884 7.596-14.884 20.77 0 13.177 5.426 20.772 14.725 20.772z"/></g></svg>