<?xml version="1.0" encoding="UTF-8" standalone="no"?>
<svg width="270px" height="211px" viewBox="0 0 270 211" version="1.1" xmlns="http://www.w3.org/2000/svg" xmlns:xlink="http://www.w3.org/1999/xlink" xmlns:sketch="http://www.bohemiancoding.com/sketch/ns">
    <!-- Generator: Sketch 3.3.1 (12005) - http://www.bohemiancoding.com/sketch -->
    <title>Imported Layers</title>
    <desc>Created with Sketch.</desc>
    <defs></defs>
    <g id="Page-1" stroke="none" stroke-width="1" fill="none" fill-rule="evenodd" sketch:type="MSPage">
        <g id="Imported-Layers" sketch:type="MSLayerGroup" transform="translate(-1.000000, 0.000000)" fill="#000000">
            <path d="M66,0 C78.03,4.708 90.361,8.772 102.043,14.227 C180.186,50.72 235.309,108.667 264.812,190.211 C267.054,196.409 268.945,202.734 271,209 L271,210 C255.689,210.011 240.378,209.97 225.067,210.081 C222.438,210.1 220.963,209.57 219.946,206.789 C201.161,155.432 165.981,117.788 120.606,88.847 C111.938,83.318 102.748,78.593 93.697,73.684 C91.29,72.379 90.201,71.003 89.848,68.09 C87.051,45.027 80.149,23.368 67.036,3.941 C66.215,2.724 65.672,1.318 65,0 L66,0" id="Fill-1" sketch:type="MSShapeGroup"></path>
            <path d="M44.687,80.39 C55.469,83.586 66.381,86.404 77.012,90.044 C118.097,104.113 154.773,125.297 184.218,157.806 C196.83,171.729 206.95,187.281 213.932,204.787 C214.531,206.291 214.963,207.862 215.581,209.73 L0.94,209.73 C30.584,204.012 51.484,187.547 61.075,158.691 C70.586,130.074 63.89,104.349 44.687,80.39" id="Fill-2" sketch:type="MSShapeGroup"></path>
        </g>
    </g>
</svg>