<?xml version="1.0" encoding="utf-8"?>
<!-- Generator: Adobe Illustrator 17.1.0, SVG Export Plug-In . SVG Version: 6.00 Build 0)  -->
<!DOCTYPE svg PUBLIC "-//W3C//DTD SVG 1.1//EN" "http://www.w3.org/Graphics/SVG/1.1/DTD/svg11.dtd">
<svg width="115px" height="115px" version="1.1" id="Calque_1" xmlns="http://www.w3.org/2000/svg" xmlns:xlink="http://www.w3.org/1999/xlink" x="0px" y="0px"
	 viewBox="0 0 115 115" enable-background="new 0 0 115 115" xml:space="preserve">
<g>
	<path fill="#FFFFFF" d="M82.5,21.4c-5.8,0.2-10.9,3.4-14.7,7.8c-4.2,4.9-7,10.6-9,16.5c-3.6-2.9-6.4-6.8-12.1-8.4
		c-4.5-1.3-9.1-0.8-13.4,2.5c-2,1.5-3.4,3.8-4.1,6c-1.7,5.6,1.8,10.6,3.4,12.4l3.5,3.8c0.7,0.7,2.5,2.7,1.6,5.4
		c-0.9,3-4.5,5-8.3,3.8c-1.7-0.5-4-1.7-3.5-3.5c0.2-0.7,0.7-1.3,1-1.9c0.2-0.5,0.4-0.9,0.4-1.2c0.7-2.2-0.2-5.1-2.6-5.8
		c-2.2-0.7-4.5-0.1-5.4,2.7c-1,3.2,0.6,9.1,8.9,11.7c9.7,3,18-2.3,19.1-9.2c0.7-4.3-1.2-7.6-4.8-11.7l-2.9-3.2
		c-1.8-1.8-2.4-4.8-0.5-7.1c1.5-2,3.7-2.8,7.3-1.8c5.3,1.4,7.6,5.1,11.5,8c-1.6,5.3-2.7,10.6-3.6,15.4l-0.6,3.6
		c-2.8,14.7-4.9,22.7-10.5,27.3c-1.1,0.8-2.7,2-5.1,2.1c-1.3,0-1.7-0.8-1.7-1.2c0-0.9,0.7-1.3,1.2-1.7c0.7-0.4,1.9-1.1,1.8-3.2
		c-0.1-2.5-2.2-4.7-5.2-4.6c-2.3,0.1-5.7,2.2-5.6,6.1c0.1,4.1,3.9,7.1,9.6,6.9c3-0.1,9.8-1.3,16.5-9.3c7.8-9.1,10-19.6,11.6-27.3
		l1.8-10.1c1,0.1,2.1,0.2,3.3,0.2c9.7,0.2,14.6-4.8,14.6-8.5c0-2.2-1.5-4.4-3.6-4.3c-1.5,0-3.4,1-3.8,3.1c-0.4,2,3.1,3.9,0.3,5.7
		c-2,1.3-5.5,2.2-10.4,1.4l0.9-5c1.8-9.4,4.1-21,12.7-21.3c0.6,0,2.9,0,3,1.5c0,0.5-0.1,0.6-0.7,1.8c-0.6,0.9-0.8,1.7-0.8,2.6
		c0.1,2.4,1.9,4,4.6,3.9c3.5-0.1,4.6-3.6,4.5-5.3C92.8,23.8,88.4,21.2,82.5,21.4z"/>
</g>
</svg>
