<?xml version="1.0" encoding="UTF-8" standalone="no"?>
<svg width="379px" height="168px" viewBox="0 0 379 168" version="1.1" xmlns="http://www.w3.org/2000/svg" xmlns:xlink="http://www.w3.org/1999/xlink" xmlns:sketch="http://www.bohemiancoding.com/sketch/ns">
    <!-- Generator: Sketch 3.0.4 (8053) - http://www.bohemiancoding.com/sketch -->
    <title>Untitled 2</title>
    <desc>Created with Sketch.</desc>
    <defs></defs>
    <g id="Page-1" stroke="none" stroke-width="1" fill="none" fill-rule="evenodd" sketch:type="MSPage">
        <g id="Group" sketch:type="MSLayerGroup" transform="translate(188.000000, 45.000000)" fill="#D0D2D3">
            <path d="M66.8,27.1 C59.4,27.1 53.2,29.6 48.8,34.2 C44.4,38.8 42.1,45.3 42.1,52.9 C42.1,60.5 44.4,67 48.8,71.6 C53.2,76.3 59.5,78.7 66.8,78.7 C74.2,78.7 80.4,76.2 84.8,71.6 C89.2,67 91.5,60.5 91.5,52.9 C91.5,45.3 89.2,38.8 84.8,34.2 C80.4,29.6 74.2,27.1 66.8,27.1 L66.8,27.1 Z M74.5,66.3 C72.5,68.9 70,70.1 66.8,70.1 C63.6,70.1 61.1,68.9 59.1,66.3 C56.7,63.2 55.3,58.5 55.3,53 C55.3,47.5 56.6,42.8 59.1,39.7 C61.1,37.1 63.6,35.9 66.8,35.9 C70,35.9 72.5,37.1 74.5,39.7 C76.9,42.8 78.3,47.5 78.3,53 C78.3,58.5 77,63.2 74.5,66.3 L74.5,66.3 Z" id="Shape" sketch:type="MSShapeGroup"></path>
            <path d="M104.1,34.3 C99.7,38.9 97.4,45.4 97.4,53 C97.4,60.6 99.7,67.1 104.1,71.7 C108.5,76.4 114.8,78.8 122.1,78.8 C127.6,78.8 132.5,77.4 136.4,74.8 L136.4,67.3 L122.1,67.3 C116.6,67.3 110.6,64.4 110.6,52.9 C110.6,41.4 116.6,38.5 122.1,38.5 L136.4,38.5 L136.4,31 C132.4,28.4 127.6,27 122.1,27 C114.8,27.1 108.6,29.6 104.1,34.3 L104.1,34.3 Z" id="Shape" sketch:type="MSShapeGroup"></path>
            <path d="M12.4,65.9 L12.4,0.2 L-0.2,0.2 L-0.2,77.9 L38.9,77.9 L38.9,66.4 L12.9,66.4 C12.6,66.3 12.4,66.1 12.4,65.9 L12.4,65.9 Z" id="Shape" sketch:type="MSShapeGroup"></path>
            <path d="M173.5,52.7 L191.4,28.1 L175.2,28.1 L159.5,49.7 C159.2,50.1 158.7,49.9 158.7,49.4 L158.7,0 L146.1,0 L146.1,77.7 L158.7,77.7 L158.7,56.4 C158.7,55.9 159.3,55.8 159.5,56.1 L175.2,77.7 L191.4,77.7 L173.5,53.1 C173.4,53.1 173.4,52.9 173.5,52.7 L173.5,52.7 Z" id="Shape" sketch:type="MSShapeGroup"></path>
        </g>
        <g id="badge" sketch:type="MSLayerGroup" fill="#EB5424">
            <g id="Page-1" sketch:type="MSShapeGroup">
                <g id="badge">
                    <g id="Clipped">
                        <path d="M119.127,135.861 L102.277,83.997 L146.384,51.952 L91.863,51.952 L75.011,0.09 L75.006,0.076 L129.536,0.076 L146.391,51.947 L146.391,51.946 L146.405,51.938 C156.195,82.03 146.113,116.256 119.127,135.861 L119.127,135.861 L119.127,135.861 Z M30.893,135.861 L30.879,135.871 L74.998,167.924 L119.127,135.862 L75.012,103.808 L30.893,135.861 L30.893,135.861 Z M3.624,51.939 L3.624,51.939 C-6.68,83.66 5.281,117.272 30.884,135.867 L30.888,135.851 L47.74,83.99 L3.642,51.951 L58.15,51.951 L75.003,0.089 L75.007,0.075 L20.474,0.075 L3.624,51.939 L3.624,51.939 Z" id="Shape"></path>
                    </g>
                </g>
            </g>
        </g>
    </g>
</svg>