<?xml version="1.0" encoding="utf-8"?>
<!-- Generator: Adobe Illustrator 18.1.1, SVG Export Plug-In . SVG Version: 6.00 Build 0)  -->
<svg version="1.1" id="Layer_1" xmlns="http://www.w3.org/2000/svg" xmlns:xlink="http://www.w3.org/1999/xlink" x="0px" y="0px"
	 viewBox="0 85 612 511" enable-background="new 0 85 612 511" xml:space="preserve">
<g>
	<path fill="#FBB03B" d="M543.5,492.7c-75.1,31.9-156.8,47.2-231.1,47.2c-110.1,0-216.7-30.1-302.9-80.3c-7.5-4.4-13.1,3.3-6.9,9
		C82.5,540.8,188,584,305.3,584c83.7,0,180.7-26.4,247.8-75.8C564.3,500.1,554.8,487.8,543.5,492.7z"/>
	<path fill="#FBB03B" d="M609.6,454.7c-7.3-9.1-70.2-16.9-108.5,10.2c-6,4.1-4.9,9.8,1.7,9.1c21.6-2.5,69.7-8.4,78.2,2.6
		c8.6,11-9.6,56.2-17.6,76.4c-2.5,6.1,2.9,8.6,8.4,3.9C607.8,526.8,617,463.8,609.6,454.7z"/>
	<g>
		<g>
			<path fill="none" d="M247.6,370.8c0-42.9,38.4-50.8,74.8-50.8v0c-36.5,0-74.9,7.8-74.9,50.8c0,21.8,11.2,36.5,30.6,36.5
				c0,0,0,0,0,0C258.8,407.2,247.6,392.5,247.6,370.8z"/>
			<path fill="#FFFFFF" d="M412,406.9c-9.2-12.8-19-23.1-19-46.7v-78.5c0-33.2,2.4-63.8-22.2-86.7c-19.4-18.5-51.4-25.1-75.9-25.1
				c-47.9,0-101.5,17.8-112.7,77.1c-1.1,6.3,3.3,9.7,7.5,10.5l48.9,5.3c4.5-0.2,7.9-4.7,8.7-9.2c4.2-20.4,21.4-30.2,40.5-30.2
				c10.4,0,22.1,3.8,28.3,13.1c7.1,10.4,6.1,24.5,6.1,36.5l0.1,6.7c-29.2,3.3-67.4,5.5-94.8,17.5c-31.6,13.6-53.8,41.5-53.8,82.4
				c0,52.4,33,78.5,75.4,78.5c35.9,0,55.5-8.5,83.1-36.7c9.2,13.3,12.2,19.7,28.9,33.6c3.7,2,8.6,1.8,12-1.2l0.1,0.1
				c10-9,28.3-24.9,38.6-33.5C416,416.9,415.3,411.4,412,406.9z M322.5,330.9c-0.1,19.6,0.5,36-9.4,53.4c-8,14.2-20.7,23-34.9,23
				c0,0,0,0-0.1,0c0,0,0,0,0,0c-19.4,0-30.6-14.7-30.6-36.5c0-43,38.5-50.8,74.9-50.8v0c0,0,0.1,0,0.1,0V330.9z"/>
		</g>
		<path fill="#FFFFFF" d="M247.6,370.8c0-42.9,38.4-50.8,74.8-50.8v0c-36.5,0-74.9,7.8-74.9,50.8c0,21.8,11.2,36.5,30.6,36.5
			c0,0,0,0,0,0C258.8,407.2,247.6,392.5,247.6,370.8z"/>
	</g>
</g>
</svg>
