<?xml version="1.0" encoding="UTF-8" standalone="no"?>
<svg width="54px" height="63px" viewBox="0 0 54 63" version="1.1" xmlns="http://www.w3.org/2000/svg" xmlns:xlink="http://www.w3.org/1999/xlink" xmlns:sketch="http://www.bohemiancoding.com/sketch/ns">
    <!-- Generator: Sketch 3.3.3 (12081) - http://www.bohemiancoding.com/sketch -->
    <title>Group</title>
    <desc>Created with Sketch.</desc>
    <defs></defs>
    <g id="Mockups" stroke="none" stroke-width="1" fill="none" fill-rule="evenodd" sketch:type="MSPage">
        <g id="Docs-Home" sketch:type="MSArtboardGroup" transform="translate(-1042.000000, -2047.000000)" fill="#FFFFFF">
            <g id="Group" sketch:type="MSLayerGroup" transform="translate(-51.000000, 711.000000)">
                <g transform="translate(1093.000000, 1336.000000)" id="Shape" sketch:type="MSShapeGroup">
                    <path d="M34.8582442,5.827892 L37.9757777,1.320004 C38.1608904,1.052044 38.1148055,0.700308 37.8727826,0.533988 C37.631069,0.368592 37.2843499,0.450366 37.100629,0.718634 L33.8606149,5.40162 C31.7254007,4.564014 29.3543494,4.09724 26.8552502,4.09724 C24.356151,4.09724 21.9844811,4.563552 19.8494215,5.40162 L16.6098714,0.71848 C16.4241401,0.45052 16.0780396,0.368438 15.8361713,0.533834 C15.594303,0.699692 15.5483728,1.051582 15.7334856,1.31985 L18.8521015,5.827738 C13.8936475,8.124802 10.4164046,12.489778 9.97334028,17.584098 L43.7353043,17.584098 C43.2937865,12.489778 39.816389,8.124956 34.8582442,5.827892 Z M19.8020995,12.933452 C18.7701385,12.933452 17.9339609,12.100774 17.9339609,11.073286 C17.9339609,10.045952 18.7696746,9.212966 19.8020995,9.212966 C20.8332872,9.212966 21.6691554,10.045644 21.6691554,11.073286 C21.6693101,12.10062 20.8332872,12.933452 19.8020995,12.933452 Z M33.9066998,12.933452 C32.8755121,12.933452 32.0394892,12.100774 32.0394892,11.073286 C32.0394892,10.045644 32.8755121,9.212966 33.9066998,9.212966 C34.9389701,9.212966 35.7746837,10.045952 35.7746837,11.073286 C35.7746837,12.10062 34.9386608,12.933452 33.9066998,12.933452 Z"></path>
                    <path d="M7.80565009,38.830092 C7.80565009,40.901392 6.11937672,42.580608 4.03921687,42.580608 L4.03921687,42.580608 C1.95921166,42.580608 0.272938297,40.901392 0.272938297,38.830092 L0.272938297,23.65986 C0.272938297,21.58856 1.95921166,19.909344 4.03921687,19.909344 L4.03921687,19.909344 C6.11937672,19.909344 7.80565009,21.58856 7.80565009,23.65986 L7.80565009,38.830092 L7.80565009,38.830092 Z"></path>
                    <path d="M9.97272169,20.025306 L9.97272169,47.424216 C9.97272169,49.05138 11.2974298,50.370698 12.9318964,50.370698 L16.4320271,50.370698 L16.4320271,58.801274 C16.4320271,60.872728 18.1181458,62.55179 20.1983056,62.55179 C22.2784655,62.55179 23.9647389,60.872728 23.9647389,58.801274 L23.9647389,50.370698 L29.7440604,50.370698 L29.7440604,58.801274 C29.7440604,60.872728 31.4300245,62.55179 33.510339,62.55179 C35.5906535,62.55179 37.2766175,60.872728 37.2766175,58.801274 L37.2766175,50.370698 L40.7767482,50.370698 C42.4112148,50.370698 43.7362322,49.05215 43.7362322,47.424216 L43.7362322,20.025306 L9.97272169,20.025306 L9.97272169,20.025306 Z"></path>
                    <path d="M45.9031492,38.830092 C45.9031492,40.901392 47.5892679,42.580608 49.6694278,42.580608 L49.6694278,42.580608 C51.749433,42.580608 53.4357063,40.901392 53.4357063,38.830092 L53.4357063,23.65986 C53.4357063,21.58856 51.749433,19.909344 49.6694278,19.909344 L49.6694278,19.909344 C47.5892679,19.909344 45.9031492,21.58856 45.9031492,23.65986 L45.9031492,38.830092 L45.9031492,38.830092 Z"></path>
                </g>
            </g>
        </g>
    </g>
</svg>