<?xml version="1.0" encoding="UTF-8" standalone="no"?>
<svg width="756px" height="928px" viewBox="0 0 756 928" version="1.1" xmlns="http://www.w3.org/2000/svg" xmlns:xlink="http://www.w3.org/1999/xlink" xmlns:sketch="http://www.bohemiancoding.com/sketch/ns">
    <!-- Generator: Sketch 3.3.1 (12005) - http://www.bohemiancoding.com/sketch -->
    <title>path188</title>
    <desc>Created with Sketch.</desc>
    <defs></defs>
    <g id="Page-1" stroke="none" stroke-width="1" fill="none" fill-rule="evenodd" sketch:type="MSPage">
        <g id="Apple_logo_black" sketch:type="MSLayerGroup" transform="translate(-1.000000, 0.000000)" fill="#FFFFFF">
            <path d="M563.47242,0.00054380294 C516.79753,1.8741036 460.3019,31.097888 426.78874,70.341657 C396.78652,105.02507 370.47468,160.60752 377.6066,213.88949 C429.66054,217.92504 482.81745,187.39944 515.22328,148.21336 C547.62377,108.96959 569.497,54.389852 563.47242,0.00054380294 L563.47242,0.00054380294 Z M545.7122,223.65262 C479.78387,224.54186 418.68905,266.90357 384.93727,266.90357 C348.32518,266.90357 291.71565,225.44849 231.82623,226.6182 C152.9874,227.78791 80.418427,272.40878 39.829299,342.94262 C-41.992299,484.88759 18.950329,695.25582 98.607948,810.4728 C137.61796,866.79459 184.06225,930.23624 245.1214,927.89681 C303.95809,925.55738 326.16443,889.9106 397.16616,889.9106 C468.16789,889.9106 488.17348,927.90843 550.34385,926.79721 C613.56699,925.569 653.70799,869.2359 692.42558,812.73863 C737.10871,747.35155 755.58284,684.08693 756.63559,680.75324 C755.23193,680.16839 633.3342,633.44578 632.04751,493.02144 C630.99478,375.58201 727.95798,319.20108 732.34441,316.45224 C677.77719,236.61916 592.86838,225.67238 562.57275,224.38568 C556.92979,223.81453 551.29935,223.57725 545.7122,223.65262 L545.7122,223.65262 Z" id="path188" sketch:type="MSShapeGroup"></path>
        </g>
    </g>
</svg>