<?xml version="1.0" encoding="UTF-8" standalone="no"?>
<svg width="351px" height="336px" viewBox="0 0 351 336" version="1.1" xmlns="http://www.w3.org/2000/svg" xmlns:xlink="http://www.w3.org/1999/xlink" xmlns:sketch="http://www.bohemiancoding.com/sketch/ns">
    <!-- Generator: Sketch 3.3.3 (12081) - http://www.bohemiancoding.com/sketch -->
    <title>cordova</title>
    <desc>Created with Sketch.</desc>
    <defs></defs>
    <g id="Page-1" stroke="none" stroke-width="1" fill="none" fill-rule="evenodd" sketch:type="MSPage">
        <g id="cordova" sketch:type="MSLayerGroup" fill="#264355">
            <path d="M266.539463,287.972017 L238.371463,287.972017 C237.003463,303.793017 235.647463,319.481017 234.265463,335.464017 L116.618463,335.464017 C115.267463,319.867017 113.907463,304.179017 112.518463,288.145017 L84.3324631,288.145017 C85.6394631,303.954017 86.9244631,319.504017 88.2394631,335.424017 L31.6054631,335.424017 C30.3144631,327.371017 28.9414631,319.077017 27.6604631,310.770017 C20.0474631,261.427017 12.4534631,212.081017 4.85746307,162.735017 C3.21146307,152.043017 1.48446307,141.362017 0.0474630699,130.642017 C-0.18653693,128.890017 0.47146307,126.697017 1.43246307,125.153017 C26.7664631,84.4380167 52.1654631,43.7640167 77.7174631,3.1870167 C78.7004631,1.6250167 81.3084631,0.206016695 83.1634631,0.202016695 C144.654463,0.0470166951 206.146463,0.0980166951 267.638463,1.66951247e-05 C270.592463,-0.00498330488 272.060463,1.1130167 273.525463,3.4650167 C298.789463,44.0250167 324.162463,84.5170167 349.379463,125.105017 C350.467463,126.856017 350.922463,129.486017 350.612463,131.547017 C342.889463,182.726017 335.034463,233.886017 327.176463,285.045017 C324.601463,301.813017 321.951463,318.569017 319.303463,335.534017 L262.638463,335.534017 C263.934463,319.738017 265.218463,304.089017 266.539463,287.972017 L266.539463,287.972017 L266.539463,287.972017 Z M79.3024631,255.848017 L271.491463,255.848017 C272.520463,247.956017 273.563463,240.239017 274.527463,232.512017 C278.689463,199.148017 282.875463,165.786017 286.879463,132.403017 C287.191463,129.797017 286.794463,126.722017 285.654463,124.387017 C276.456463,105.538017 266.928463,86.8490167 257.697463,68.0160167 C256.181463,64.9220167 254.519463,63.6320167 250.939463,63.6900167 C236.946463,63.9180167 222.946463,63.7760167 208.949463,63.7940167 C207.485463,63.7960167 206.021463,63.9460167 204.004463,64.0580167 C205.070463,72.0270167 206.094463,79.6810167 207.146463,87.5530167 L143.718463,87.5530167 C144.773463,79.6420167 145.793463,71.9840167 146.852463,64.0350167 C144.744463,63.9300167 143.276463,63.7950167 141.806463,63.7930167 C127.809463,63.7770167 113.810463,63.8990167 99.8164631,63.6980167 C96.4984631,63.6510167 94.7864631,64.6800167 93.3264631,67.6570167 C84.0164631,86.6340167 74.4434631,105.481017 65.1574631,124.470017 C64.0774631,126.677017 63.6234631,129.559017 63.9084631,132.008017 C66.2314631,152.013017 68.7934631,171.989017 71.2934631,191.973017 C73.9384631,213.110017 76.5934631,234.245017 79.3024631,255.848017 L79.3024631,255.848017 L79.3024631,255.848017 Z" id="Fill-1" sketch:type="MSShapeGroup"></path>
            <path d="M235.855181,183.595 C234.355181,191.754 233.070181,199.928 231.209181,207.969 C230.786181,209.796 228.366181,211.16 226.866181,212.738 C225.498181,211.219 223.431181,209.921 222.872181,208.148 C217.733181,191.855 217.732181,175.438 222.733181,159.119 C223.330181,157.168 225.482181,155.694 226.913181,154 C228.465181,155.785 230.939181,157.358 231.406181,159.392 C233.218181,167.278 234.390181,175.311 235.855181,183.595" id="Fill-2" sketch:type="MSShapeGroup"></path>
            <path d="M134.897102,186.216 C133.379102,194.62 132.142102,202.64 130.352102,210.534 C129.909102,212.487 127.668102,214.032 126.254102,215.765 C124.687102,214.011 122.296102,212.504 121.684102,210.464 C116.788102,194.134 116.662102,177.706 121.967102,161.429 C122.532102,159.693 124.654102,158.464 126.055102,157 C127.451102,158.482 129.706102,159.768 130.098102,161.48 C131.979102,169.686 133.355102,178.007 134.897102,186.216" id="Fill-3" sketch:type="MSShapeGroup"></path>
        </g>
    </g>
</svg>