<?xml version="1.0" encoding="UTF-8" standalone="no"?>
<svg width="58px" height="47px" viewBox="0 0 58 47" version="1.1" xmlns="http://www.w3.org/2000/svg" xmlns:xlink="http://www.w3.org/1999/xlink" xmlns:sketch="http://www.bohemiancoding.com/sketch/ns">
    <!-- Generator: Sketch 3.3.3 (12081) - http://www.bohemiancoding.com/sketch -->
    <title>generic</title>
    <desc>Created with Sketch.</desc>
    <defs></defs>
    <g id="Page-1" stroke="none" stroke-width="1" fill="none" fill-rule="evenodd" sketch:type="MSPage">
        <g id="generic" sketch:type="MSLayerGroup" fill="#616D78">
            <g id="Page-1" sketch:type="MSShapeGroup">
                <g id="generic-code">
                    <path d="M40.0783617,5.5685461 L9.40748936,5.5685461 C8.73628369,5.5685461 8.19157447,5.02383688 8.19157447,4.35198582 C8.19157447,3.68013475 8.73628369,3.13542553 9.40748936,3.13542553 L40.0783617,3.13542553 C40.7495674,3.13542553 41.294922,3.68013475 41.294922,4.35198582 C41.294922,5.02448227 40.7495674,5.5685461 40.0783617,5.5685461 L40.0783617,5.5685461 L40.0783617,5.5685461 Z" id="Shape"></path>
                    <path d="M21.3323617,13.1654326 L9.40748936,13.1654326 C8.73628369,13.1654326 8.19157447,12.6207234 8.19157447,11.9488723 C8.19157447,11.2763759 8.73628369,10.7316667 9.40748936,10.7316667 L21.3323617,10.7316667 C22.0048582,10.7316667 22.548922,11.2763759 22.548922,11.9488723 C22.548922,12.6207234 22.0042128,13.1654326 21.3323617,13.1654326 L21.3323617,13.1654326 L21.3323617,13.1654326 Z" id="Shape"></path>
                    <path d="M31.7308865,28.3856667 L9.40684397,28.3856667 C8.7356383,28.3856667 8.19092908,27.8416028 8.19092908,27.1691064 C8.19092908,26.4979007 8.7356383,25.9525461 9.40684397,25.9525461 L31.7308865,25.9525461 C32.403383,25.9525461 32.9487376,26.4979007 32.9487376,27.1691064 C32.9487376,27.8416028 32.403383,28.3856667 31.7308865,28.3856667 L31.7308865,28.3856667 L31.7308865,28.3856667 Z" id="Shape"></path>
                    <path d="M50.1328936,28.3856667 L37.4735674,28.3856667 C36.8023617,28.3856667 36.2576525,27.8416028 36.2576525,27.1691064 C36.2576525,26.4979007 36.8023617,25.9525461 37.4735674,25.9525461 L50.1328936,25.9525461 C50.8047447,25.9525461 51.3494539,26.4979007 51.3494539,27.1691064 C51.3494539,27.8416028 50.8047447,28.3856667 50.1328936,28.3856667 L50.1328936,28.3856667 L50.1328936,28.3856667 Z" id="Shape"></path>
                    <path d="M49.863766,20.7642553 L9.40748936,20.7642553 C8.73628369,20.7642553 8.19157447,20.2195461 8.19157447,19.547695 C8.19157447,18.8751986 8.73628369,18.3317801 9.40748936,18.3317801 L49.8644113,18.3317801 C50.5362624,18.3317801 51.081617,18.875844 51.081617,19.547695 C51.0809716,20.2201915 50.535617,20.7642553 49.863766,20.7642553 L49.863766,20.7642553 L49.863766,20.7642553 Z" id="Shape"></path>
                    <path d="M4.82070213,8.5063617 C4.50058865,8.5063617 4.18112057,8.38115603 3.94232624,8.13074468 L1.13165248,5.19292908 C0.683751773,4.72437589 0.681815603,3.98604965 1.12842553,3.51491489 L3.90166667,0.588070922 C4.36441135,0.100156028 5.1343617,0.0801489362 5.6222766,0.542248227 C6.10890071,1.00434752 6.13084397,1.77429787 5.66874468,2.26221277 L3.6912695,4.34811348 L5.70165957,6.44821277 C6.16504965,6.93419149 6.14762411,7.70414184 5.66293617,8.1688227 C5.42607801,8.39406383 5.12339007,8.5063617 4.82070213,8.5063617 L4.82070213,8.5063617 L4.82070213,8.5063617 Z" id="Shape"></path>
                    <path d="M4.82070213,38.8855177 C4.50058865,38.8855177 4.18112057,38.7609574 3.94232624,38.5105461 L1.13165248,35.5727305 C0.683751773,35.1022411 0.681815603,34.3645603 1.12842553,33.8934255 L3.90166667,30.9691631 C4.36505674,30.4818936 5.1343617,30.4612411 5.6222766,30.9233404 C6.10890071,31.3860851 6.13019858,32.1540993 5.66874468,32.6420142 L3.6912695,34.7266241 L5.70165957,36.8267234 C6.16504965,37.3133475 6.14762411,38.0826525 5.66293617,38.5460426 C5.42607801,38.7732199 5.12339007,38.8855177 4.82070213,38.8855177 L4.82070213,38.8855177 L4.82070213,38.8855177 Z" id="Shape"></path>
                    <path d="M42.4340355,46.4901489 C42.1332837,46.4901489 41.8318865,46.3791418 41.5969645,46.1558369 C41.1090496,45.694383 41.0890426,44.9237872 41.5511418,44.4358723 L43.5279716,42.3519078 L41.5188723,40.249227 C41.0535461,39.7638936 41.071617,38.9945887 41.5575957,38.5292624 C42.0429291,38.065227 42.812234,38.0826525 43.2775603,38.5686312 L46.0875887,41.508383 C46.5354894,41.9769362 46.5367801,42.714617 46.091461,43.1857518 L43.3169291,46.1119504 C43.0781348,46.3617163 42.7560851,46.4901489 42.4340355,46.4901489 L42.4340355,46.4901489 L42.4340355,46.4901489 Z" id="Shape"></path>
                    <path d="M53.7380426,31.0672624 C53.4372908,31.0672624 53.136539,30.9569007 52.9009716,30.7335957 C52.4130567,30.2714965 52.3924043,29.5015461 52.8545035,29.0136312 L54.8313333,26.9277305 L52.8228794,24.8282766 C52.3581986,24.3429433 52.3762695,23.5729929 52.8609574,23.1076667 C53.3456454,22.6442766 54.1162411,22.6604113 54.580922,23.1463901 L57.3909504,26.0835603 C57.8388511,26.5514681 57.8407872,27.2897943 57.3948227,27.7609291 L54.6215816,30.6871277 C54.3821418,30.940766 54.0600922,31.0672624 53.7380426,31.0672624 L53.7380426,31.0672624 L53.7380426,31.0672624 Z" id="Shape"></path>
                    <path d="M24.9600993,35.957383 L9.40748936,35.957383 C8.73628369,35.957383 8.19157447,35.4139645 8.19157447,34.7408227 C8.19157447,34.069617 8.73628369,33.5249078 9.40748936,33.5249078 L24.9600993,33.5249078 C25.6319504,33.5249078 26.1766596,34.069617 26.1766596,34.7408227 C26.1766596,35.4146099 25.631305,35.957383 24.9600993,35.957383 L24.9600993,35.957383 L24.9600993,35.957383 Z" id="Shape"></path>
                    <path d="M49.863766,35.9535106 L30.6808369,35.9535106 C30.0089858,35.9535106 29.4642766,35.4088014 29.4642766,34.7375957 C29.4642766,34.0638085 30.0089858,33.5203901 30.6808369,33.5203901 L49.8644113,33.5203901 C50.5362624,33.5203901 51.081617,34.0638085 51.081617,34.7375957 C51.0809716,35.4088014 50.535617,35.9535106 49.863766,35.9535106 L49.863766,35.9535106 L49.863766,35.9535106 Z" id="Shape"></path>
                    <path d="M38.9663546,43.5587872 L9.40748936,43.5587872 C8.73628369,43.5587872 8.19157447,43.0134326 8.19157447,42.3415816 C8.19157447,41.6690851 8.73628369,41.1243759 9.40748936,41.1243759 L38.967,41.1243759 C39.6394965,41.1243759 40.1842057,41.6690851 40.1842057,42.3415816 C40.1835603,43.0134326 39.6388511,43.5587872 38.9663546,43.5587872 L38.9663546,43.5587872 L38.9663546,43.5587872 Z" id="Shape"></path>
                </g>
            </g>
        </g>
    </g>
</svg>