<?xml version="1.0" encoding="utf-8"?>
<!-- Generator: Adobe Illustrator 18.1.1, SVG Export Plug-In . SVG Version: 6.00 Build 0)  -->
<svg version="1.1" id="Layer_1" xmlns:sketch="http://www.bohemiancoding.com/sketch/ns"
	 xmlns="http://www.w3.org/2000/svg" xmlns:xlink="http://www.w3.org/1999/xlink" x="0px" y="0px" viewBox="-216 308 178 178"
	 enable-background="new -216 308 178 178" xml:space="preserve">
<title>ionic</title>
<desc>Created with Sketch.</desc>
<g id="Page-1" sketch:type="MSPage">
	<g id="ionic" sketch:type="MSLayerGroup">
		<g id="Group" sketch:type="MSShapeGroup">
			<circle id="Oval" fill="#FFFFFF" cx="-127" cy="396.9" r="36.3"/>
			<path id="Shape" fill="#FFFFFF" d="M-52.9,335.3c0-6.9-5.6-12.5-12.5-12.5c-3.1,0-6,1.2-8.2,3.1C-88.4,314.7-106.9,308-127,308
				c-49,0-88.9,39.9-88.9,88.9c0,49,39.9,88.9,88.9,88.9s88.9-39.9,88.9-88.9c0-20-6.7-38.5-17.9-53.4
				C-54,341.3-52.9,338.4-52.9,335.3L-52.9,335.3z M-127,482.9c-47.4,0-85.9-38.5-85.9-85.9S-174.4,311-127,311
				c19.3,0,37.1,6.4,51.4,17.1c-1.4,2-2.3,4.5-2.3,7.2c0,6.9,5.6,12.5,12.5,12.5c2.7,0,5.2-0.9,7.2-2.3
				c10.7,14.3,17.1,32.2,17.1,51.4C-41,444.3-79.6,482.9-127,482.9L-127,482.9z"/>
		</g>
	</g>
</g>
</svg>
