<?xml version="1.0" encoding="UTF-8" standalone="no"?>
<svg width="495px" height="141px" viewBox="0 0 495 141" version="1.1" xmlns="http://www.w3.org/2000/svg" xmlns:xlink="http://www.w3.org/1999/xlink" xmlns:sketch="http://www.bohemiancoding.com/sketch/ns">
    <!-- Generator: Sketch 3.3.1 (12005) - http://www.bohemiancoding.com/sketch -->
    <title>jquery</title>
    <desc>Created with Sketch.</desc>
    <defs></defs>
    <g id="Page-1" stroke="none" stroke-width="1" fill="none" fill-rule="evenodd" sketch:type="MSPage">
        <g id="jquery" sketch:type="MSLayerGroup" fill="#FFFFFF">
            <path d="M141.491,55.256 L141.492,55.25 L137.539,69.257 L141.491,55.256 L141.491,55.256 Z" id="Shape" sketch:type="MSShapeGroup"></path>
            <path id="Shape" sketch:type="MSShapeGroup" d="M161.818,85.664 L157.463,85.639 L161.818,85.664 L161.818,85.664 Z"></path>
            <path id="Shape" sketch:type="MSShapeGroup" d="M160.698,106.583 L160.702,106.583 L134.609,106.678 L160.698,106.583 L160.698,106.583 Z"></path>
            <path id="Shape" sketch:type="MSShapeGroup" d="M166.169,85.689 L161.812,85.664 L166.169,85.689 L166.169,85.689 Z"></path>
            <path d="M162.985,104.805 L167.53,87.471 L162.985,104.809 L162.985,104.805 L162.985,104.805 Z" id="Shape" sketch:type="MSShapeGroup"></path>
            <path d="M259.055,24.977 L250.589,64.781 L259.055,24.977 L259.055,24.977 Z" id="Shape" sketch:type="MSShapeGroup"></path>
            <path d="M237.29,24.977 L230.862,54.712 L237.29,24.974 L237.29,24.977 L237.29,24.977 Z" id="Shape" sketch:type="MSShapeGroup"></path>
            <path d="M257.605,23.186 L239.499,23.186 C238.495,23.186 237.498,23.992 237.283,24.974 L230.855,54.711 L224.427,84.449 C224.214,85.431 223.218,86.234 222.214,86.234 L209.399,86.234 C196.72,86.234 198.187,77.463 200.784,65.451 C200.81,65.33 200.836,65.212 200.862,65.088 L201.147,63.574 C201.164,63.476 201.184,63.378 201.2,63.289 L201.779,60.206 L202.399,56.901 C202.588,55.905 202.874,54.448 203.061,53.533 L205.983,39.256 L208.907,24.978 C209.109,23.994 208.449,23.185 207.445,23.185 L188.86,23.185 C187.855,23.185 186.86,23.994 186.655,24.976 L182.659,43.934 L178.664,62.89 C178.66,62.898 178.659,62.911 178.658,62.919 L178.286,64.681 C173.683,85.695 174.904,105.732 199.918,106.359 C200.327,106.372 200.644,106.375 200.644,106.375 L239.909,106.375 C240.913,106.375 241.908,105.568 242.118,104.584 L250.586,64.783 L259.053,24.978 C259.261,23.992 258.609,23.187 257.605,23.186 L257.605,23.186 L257.605,23.186 Z" id="Shape" sketch:type="MSShapeGroup"></path>
            <path d="M329.834,86.441 C330.84,86.441 331.498,87.249 331.296,88.23 L329.537,96.825" id="Shape" sketch:type="MSShapeGroup"></path>
            <path d="M327.782,105.423 L329.539,96.824 L327.781,105.425 C327.781,105.423 327.782,105.423 327.782,105.423 L327.782,105.423 L327.782,105.423 Z" id="Shape" sketch:type="MSShapeGroup"></path>
            <path id="Shape" sketch:type="MSShapeGroup" d="M325.577,107.23 C325.58,107.23 325.583,107.228 325.585,107.228 C320.258,107.271 304.246,107.392 292.211,107.392 C306.857,107.393 325.576,107.23 325.577,107.23 L325.577,107.23 L325.577,107.23 Z"></path>
            <path d="M281.41,75.374 C281.394,74.434 282.467,72.812 283.472,72.812 L281.208,72.775 C280.191,83.021 281.41,75.374 281.41,75.374 L281.41,75.374 L281.41,75.374 Z" id="Shape" sketch:type="MSShapeGroup"></path>
            <path id="Shape" sketch:type="MSShapeGroup" d="M293.861,107.391 C293.746,107.391 293.627,107.391 293.509,107.393 C293.627,107.391 293.746,107.391 293.861,107.391 L293.861,107.391 Z"></path>
            <path d="M329.834,86.441 C330.84,86.441 331.498,87.249 331.296,88.23 L329.537,96.825 L329.251,98.226" id="Shape" sketch:type="MSShapeGroup"></path>
            <path id="Shape" sketch:type="MSShapeGroup" d="M302.434,107.368 L302.36,107.368 L302.434,107.368 L302.434,107.368 Z"></path>
            <path id="Shape" sketch:type="MSShapeGroup" d="M297.988,107.383 L297.728,107.383 L297.988,107.383 L297.988,107.383 Z"></path>
            <path id="Shape" sketch:type="MSShapeGroup" d="M296.632,107.387 C296.486,107.387 296.346,107.387 296.205,107.391 C296.346,107.387 296.486,107.387 296.632,107.387 L296.632,107.387 Z"></path>
            <path id="Shape" sketch:type="MSShapeGroup" d="M295.252,107.391 L294.878,107.391 L295.252,107.391 L295.252,107.391 Z"></path>
            <path id="Shape" sketch:type="MSShapeGroup" d="M297.729,107.383 C297.362,107.383 296.998,107.385 296.632,107.385 C296.994,107.385 297.361,107.383 297.729,107.383 L297.729,107.383 Z"></path>
            <path id="Shape" sketch:type="MSShapeGroup" d="M302.361,107.368 C300.896,107.375 299.433,107.38 297.993,107.384 C299.434,107.381 300.898,107.375 302.361,107.368 L302.361,107.368 Z"></path>
            <path id="Shape" sketch:type="MSShapeGroup" d="M325.59,107.229 L325.59,107.229 C321.686,107.259 312.043,107.333 302.427,107.372 C312.037,107.334 321.683,107.259 325.59,107.229 L325.59,107.229 Z"></path>
            <path d="M327.782,105.426 L329.255,98.227 L327.781,105.432 C327.781,105.43 327.782,105.43 327.782,105.426 L327.782,105.426 L327.782,105.426 Z" id="Shape" sketch:type="MSShapeGroup"></path>
            <path id="Shape" sketch:type="MSShapeGroup" d="M296.208,107.391 L295.252,107.391 L296.208,107.391 L296.208,107.391 Z"></path>
            <path id="Shape" sketch:type="MSShapeGroup" d="M293.507,107.393 L292.215,107.393 L293.507,107.393 L293.507,107.393 Z"></path>
            <path id="Shape" sketch:type="MSShapeGroup" d="M294.874,107.391 L293.855,107.391 L294.874,107.391 L294.874,107.391 Z"></path>
            <path d="M30.029,75.589 L32.841,63.122 L29.626,77.374 L26.54,91.891 L29.245,79.166 C29.452,78.18 29.807,76.57 30.029,75.589 L30.029,75.589 L30.029,75.589 Z" id="Shape" sketch:type="MSShapeGroup"></path>
            <path d="M63.69,22.976 L43.807,22.976 C42.801,22.976 41.798,23.779 41.574,24.758 L39.689,33.08 L37.804,41.405 C37.582,42.384 38.222,43.187 39.229,43.187 L59.267,43.187 C60.271,43.187 61.27,42.384 61.486,41.402 L63.308,33.08 L65.13,24.764 L65.13,24.762 C65.343,23.779 64.697,22.976 63.69,22.976 L63.69,22.976 L63.69,22.976 Z" id="Shape" sketch:type="MSShapeGroup"></path>
            <path d="M59.363,50.659 L59.363,50.657 L53.531,77.636 L59.363,50.659 L59.363,50.659 Z" id="Shape" sketch:type="MSShapeGroup"></path>
            <path id="Shape" sketch:type="MSShapeGroup" d="M1.601,140.053 C1.601,140.053 11.624,140.182 17.996,140.182 C13.156,140.182 5.163,140.092 1.593,140.051 C1.597,140.051 1.599,140.053 1.603,140.053 L1.601,140.053 L1.601,140.053 Z"></path>
            <path d="M35.652,50.655 L32.837,63.122 L35.652,50.655 L35.652,50.655 Z" id="Shape" sketch:type="MSShapeGroup"></path>
            <path d="M57.925,48.871 L37.884,48.871 C36.879,48.871 35.875,49.674 35.653,50.656 L32.838,63.124 L30.026,75.592 C29.804,76.572 29.45,78.184 29.242,79.166 L26.537,91.891 L23.834,104.62 C23.624,105.599 23.192,107.186 22.87,108.141 C22.87,108.141 19.127,119.28 12.832,119.153 C12.564,119.149 12.304,119.145 12.046,119.139 C8.997,119.079 6.6,119.036 6.6,119.036 L6.596,119.036 C5.593,119.019 4.584,119.807 4.349,120.779 L2.271,129.515 L0.195,138.247 C-0.038,139.224 0.592,140.028 1.591,140.045 C5.16,140.089 13.154,140.181 17.994,140.181 C33.716,140.181 42.003,131.467 47.316,106.404 L53.534,77.634 L59.366,50.655 C59.578,49.675 58.928,48.871 57.925,48.871 L57.925,48.871 L57.925,48.871 Z" id="Shape" sketch:type="MSShapeGroup"></path>
            <path d="M342.604,106.372 C341.599,106.372 340.95,105.566 341.162,104.582 L356.237,33.968" id="Shape" sketch:type="MSShapeGroup"></path>
            <path d="M363.555,104.58 L369.655,74.439 L363.555,104.58 L363.555,104.58 Z" id="Shape" sketch:type="MSShapeGroup"></path>
            <path d="M341.377,105.479 C341.254,104.987 341.326,103.78 341.539,102.795 L348.694,69.277 L341.157,104.582 C340.945,105.566 341.595,106.374 342.597,106.374 L344.428,106.374 C343.427,106.374 341.498,105.971 341.377,105.479 L341.377,105.479 L341.377,105.479 Z" id="Shape" sketch:type="MSShapeGroup"></path>
            <path d="M362.363,105.971 C361.816,106.192 360.545,106.372 359.538,106.372 L361.369,106.372 C362.374,106.372 363.361,105.566 363.557,104.58 L363.919,102.788 C363.723,103.773 362.912,105.747 362.363,105.971 L362.363,105.971 L362.363,105.971 Z" id="Shape" sketch:type="MSShapeGroup"></path>
            <path d="M366.607,89.51 L369.296,76.208 C369.295,76.216 369.294,76.229 369.291,76.234 L366.607,89.51 L366.607,89.51 Z" id="Shape" sketch:type="MSShapeGroup"></path>
            <path d="M426.092,38.698 L426.923,42.129 C427.152,43.111 426.517,43.908 425.514,43.911" id="Shape" sketch:type="MSShapeGroup"></path>
            <path d="M363.921,102.789 L366.608,89.511 L363.921,102.789 L363.921,102.789 Z" id="Shape" sketch:type="MSShapeGroup"></path>
            <path d="M425.266,35.184 L426.088,38.699 L425.266,35.184 L425.266,35.184 Z" id="Shape" sketch:type="MSShapeGroup"></path>
            <path d="M369.297,76.209 C369.497,75.225 369.827,73.63 370.037,72.652 L372.911,59.188 L369.654,74.441 L369.297,76.209 L369.297,76.209 Z" id="Shape" sketch:type="MSShapeGroup"></path>
            <path d="M356.48,32.811 C356.279,33.761 356.024,34.961 355.85,35.756 L348.7,69.277 L356.237,33.969 L356.48,32.811 L356.48,32.811 Z" id="Shape" sketch:type="MSShapeGroup"></path>
            <path d="M426.917,42.129 L426.087,38.698 L425.265,35.183 L424.849,33.404 C423.221,27.08 418.446,23.43 408.071,23.43 L391.918,23.412 L377.043,23.395 L360.3,23.395 C359.295,23.395 358.3,24.198 358.093,25.183 L358.093,25.183 L357.354,28.681 L356.482,32.811 L356.239,33.968 L348.702,69.276 L341.548,102.794 C341.335,103.777 341.263,104.984 341.385,105.477 C341.506,105.971 343.435,106.373 344.445,106.373 L359.546,106.373 C360.552,106.373 361.824,106.189 362.371,105.97 C362.919,105.747 363.728,103.774 363.93,102.787 L366.618,89.509 L369.305,76.235 C369.306,76.229 369.307,76.217 369.31,76.212 L369.668,74.441 L372.924,59.191 L375.8,45.719 C376.013,44.74 377.003,43.94 378.006,43.937 L425.523,43.914 C426.512,43.909 427.147,43.111 426.917,42.129 L426.917,42.129 L426.917,42.129 Z" id="Shape" sketch:type="MSShapeGroup"></path>
            <path d="M488.086,11.104 C487.08,11.111 485.436,11.117 484.43,11.117 L469.22,11.117 C468.215,11.117 466.927,11.797 466.363,12.627 L432.733,61.896 C432.164,62.728 431.513,62.604 431.294,61.625 L428.819,50.77 C428.592,49.789 427.589,48.988 426.585,48.988 L404.965,48.988 C403.958,48.988 403.361,49.777 403.637,50.744 L413.325,84.682 C413.598,85.649 413.621,87.241 413.372,88.21 L409.147,104.637 C408.895,105.612 409.515,106.408 410.52,106.408 L431.888,106.408 C432.893,106.408 433.92,105.611 434.17,104.637 L438.394,88.21 C438.643,87.236 439.342,85.781 439.951,84.979 L494.55,12.518 C495.155,11.715 494.827,11.061 493.823,11.068 L488.086,11.104 L488.086,11.104 Z" id="Shape" sketch:type="MSShapeGroup"></path>
            <path d="M316.322,53.609 L316.32,53.588 C316.194,54.679 315.184,55.48 314.18,55.48 L286.773,55.48 C285.825,55.48 285.339,54.835 285.482,54.041 C285.49,54.018 285.495,53.998 285.505,53.978 C285.505,53.978 285.496,53.98 285.485,53.987 C285.493,53.955 285.493,53.926 285.503,53.895 C285.503,53.895 285.558,53.702 285.627,53.429 C288.245,46.469 293.578,41.901 303.603,41.901 C314.886,41.899 317.089,47.411 316.322,53.609 L316.322,53.609 L316.322,53.609 Z M308.28,21.97 C273.095,21.97 264.759,43.326 260.082,64.881 C255.402,86.852 255.807,107.393 292.215,107.393 L293.507,107.393 C293.622,107.391 293.74,107.391 293.856,107.391 L296.208,107.391 C296.353,107.387 296.487,107.387 296.634,107.387 C296.997,107.387 297.363,107.385 297.734,107.385 L297.992,107.385 C299.43,107.383 300.896,107.375 302.359,107.37 L302.433,107.37 C312.046,107.332 321.691,107.261 325.596,107.228 C326.594,107.21 327.575,106.408 327.78,105.431 L329.254,98.226 L329.541,96.826 L331.299,88.232 C331.502,87.249 330.844,86.441 329.838,86.441 L297.108,86.441 C284.089,86.441 280.223,82.982 281.647,72.812 L333.97,72.812 L333.965,72.818 C333.978,72.818 333.989,72.812 334.001,72.812 C334.832,72.794 335.601,72.224 335.906,71.459 C335.964,71.313 336.01,71.159 336.033,71.001 L336.027,71.007 C343.791,41.706 341.561,21.971 308.28,21.97 L308.28,21.97 L308.28,21.97 Z" id="Shape" sketch:type="MSShapeGroup"></path>
            <path d="M141.986,53.497 L141.491,55.25 C141.491,55.256 141.49,55.256 141.49,55.256 L137.539,69.257 L133.59,83.256 C133.317,84.223 132.272,85.016 131.264,85.016 L110.352,85.016 C94.49,85.016 90.628,72.61 94.49,54.31 C98.351,35.594 105.924,23.958 121.535,22.781 C142.87,21.171 147.138,36.177 141.986,53.497 L141.986,53.497 L141.986,53.497 Z M156.328,83.938 C156.328,83.938 166.187,60 168.426,46.171 C171.492,27.662 162.224,0.818 126.428,0.818 C90.834,0.818 75.379,26.447 69.481,54.308 C63.584,82.371 71.31,106.98 106.7,106.781 L134.618,106.677 L160.712,106.581 C161.717,106.573 162.744,105.775 163.001,104.805 L167.546,87.467 C167.799,86.494 167.184,85.694 166.18,85.69 L161.824,85.666 L157.469,85.642 C156.615,85.634 156.125,85.082 156.229,84.349 C156.248,84.215 156.278,84.08 156.335,83.941 L156.328,83.941 L156.328,83.938 L156.328,83.938 Z" id="Shape" sketch:type="MSShapeGroup"></path>
            <path d="M332.521,67.916 C332.521,68.578 331.984,69.117 331.321,69.117 C330.659,69.117 330.122,68.578 330.122,67.916 C330.122,67.254 330.659,66.719 331.321,66.719 C331.984,66.718 332.521,67.253 332.521,67.916 L332.521,67.916 Z" id="Shape" sketch:type="MSShapeGroup"></path>
        </g>
    </g>
</svg>