<?xml version="1.0" encoding="utf-8"?>
<!-- Generator: Adobe Illustrator 18.1.1, SVG Export Plug-In . SVG Version: 6.00 Build 0)  -->
<svg version="1.1" id="Layer_1" xmlns:sketch="http://www.bohemiancoding.com/sketch/ns"
	 xmlns="http://www.w3.org/2000/svg" xmlns:xlink="http://www.w3.org/1999/xlink" x="0px" y="0px" viewBox="106 -54 824 900"
	 enable-background="new 106 -54 824 900" xml:space="preserve">
<title>Imported Layers</title>
<desc>Created with Sketch.</desc>
<g id="Page-1" sketch:type="MSPage">
	<g id="Imported-Layers" sketch:type="MSLayerGroup">
		<path id="Fill-1" sketch:type="MSShapeGroup" fill="#FFFFFF" d="M106,176c0.6-2.9,1.2-5.8,1.9-8.7c4.3-18.3,17.4-30.3,36.2-31
			c13.6-0.5,27.2,1,40.8,1.9c12.6,0.8,25.2,2,37.8,3.1c1.6,0.1,3.2,0.5,5.4,0.9c0.6,28,1.1,55.9,1.7,84.6
			c-9.5-0.6-18.5-1.1-27.6-1.6c-8.1-0.5-16.3-1.4-24.4-1.4c-24.3,0.1-37.6,14.3-36.7,38.5c0.5,13.5,0.7,27,1,40.4
			c1,47.8,2,95.5,3,143.3c0.4,18,0.8,35.9,1.5,53.9c1,25.9,17.6,41.1,43.5,39.9c11.6-0.6,23.2-1.8,34.9-2.6c3.3-0.2,6.6,0,10.8,0
			c0,3.6-0.1,7.4,0,11.1c0.6,27.5,1.1,54.9,1.9,82.4c0.1,4.2-1,5.6-5.4,6c-20.2,1.8-40.4,4.2-60.6,6.2c-11.1,1.1-21.9-0.4-32.2-5.1
			c-16.6-7.6-23.5-21.6-24.2-38.9c-0.9-22.1-1-44.3-1.5-66.4c-0.7-32.3-1.3-64.6-2-96.9c-0.7-32.8-1.3-65.6-2-98.4
			c-0.7-33.8-1.3-67.6-2-101.4c-0.3-16.6-0.6-33.3-1-49.9c0-1.4-0.6-2.8-0.8-4.2V176"/>
		<path id="Fill-2" sketch:type="MSShapeGroup" fill="#FFFFFF" d="M431.8,26.3c1.9-11.3,2.7-22.8,5.8-33.7
			c8.6-29.7,31.5-46.8,62.8-46.4c16.7,0.2,33.5,2.4,50.2,4.6c32.5,4.2,65,8.9,97.4,13.5c33.1,4.7,66.2,9.6,99.3,14.5
			c23.2,3.4,46.4,6.9,69.6,10.4c28.1,4.2,48.2,19.8,61.8,44.1c9.1,16.2,10.2,34.1,11.1,52.2c2,38.1,4.4,76.1,6.7,114.2
			c1.7,28.6,3.5,57.2,5.3,85.7c2.5,38,5.1,76.1,7.6,114.1c1.8,27.4,3.5,54.8,5.3,82.2c2.2,32.6,4.5,65.1,6.7,97.7
			c1.8,26.7,3.5,53.5,5.3,80.2c0.9,12.8,1.5,25.6,2.8,38.4c3.1,31.5-16,70.3-41.7,84.5c-10.6,5.9-22.4,7.3-34,9.3
			c-41.8,7.3-83.6,14.5-125.4,21.7c-45.1,7.8-90.2,15.6-135.2,23.3c-14.6,2.5-29.1,5.5-43.8,7.4c-18.6,2.5-37,0.9-54.1-7.7
			c-22.5-11.3-33.7-30.8-37.1-54.8c-1.9-13.6-2-27.5-2.5-41.3c-1.5-44.1-2.7-88.2-4.1-132.3c-1-31.3-2-62.6-3-93.9
			c-1.3-42.6-2.7-85.2-4-127.8c-1-30.8-2-61.6-3-92.4c-1.4-42.4-2.7-84.9-4-127.3c-1-30.5-2-60.9-3-91.4
			c-0.5-16.3-1.1-32.6-1.7-48.9C432.7,26.4,432.3,26.4,431.8,26.3L431.8,26.3z M572.7,657.2c2.2,0,4.3,0.2,6.5,0
			c15.7-1.6,31.5-3.3,47.2-4.9c27.5-2.8,55-5.6,82.5-8.4c31.3-3.2,62.6-6.6,93.9-9.7c12.8-1.3,25.4-2.9,37.4-7.9
			c25.1-10.5,40-32.4,38.9-57.8c-0.5-11.8-1.4-23.6-2.2-35.4c-2.5-40.4-5.1-80.7-7.6-121.1c-1.9-30.7-3.6-61.5-5.4-92.2
			c-2.3-41.1-4.7-82.1-6.7-123.2c-0.8-16.4-2.8-32.4-13.1-45.8c-11.3-14.8-25.4-25.2-45-26.1c-13.6-0.6-27.2-2-40.8-3
			c-29.4-2.2-58.8-4.5-88.1-6.8c-24.2-1.9-48.4-3.9-72.7-5.5c-17.9-1.2-35.9-2.7-53.8-2.2c-23.2,0.6-40.5,15.9-46.8,38.3
			c-4,14.3-2.1,28.8-1.6,43.2c1.6,47.9,3.7,95.8,5.5,143.7c1.2,32.6,2.3,65.2,3.4,97.8c1.5,43.8,3,87.5,4.6,131.3
			c0.5,13.6,0.5,27.4,2.3,40.8C515.7,636.8,539.2,657.4,572.7,657.2L572.7,657.2z"/>
		<path id="Fill-3" sketch:type="MSShapeGroup" fill="#FFFFFF" d="M410.9,42.5c1.3,40.2,2.6,80,4,120.8c-8.9-0.7-17.5-1.4-26-1.9
			c-15.9-0.9-31.9-2.7-47.8-2.4c-26.7,0.6-44.5,19.5-44.1,46.1c0.5,42.5,1.5,84.9,2.3,127.4c0.6,31.6,1.3,63.3,2,94.9
			c0.7,33.8,1.2,67.6,2.1,101.4c0.3,11.8,0.5,23.7,2.6,35.3c6.1,34.6,34.6,45.5,60.4,42.7c18.9-2,37.8-3.7,56.7-5.5
			c1.8-0.2,3.6,0,5.8,0c1.5,46.8,2.9,93.3,4.4,140.2c-14,1.8-27.3,3.6-40.6,5.3c-17.5,2.2-35,5-52.5,6.5c-23,2-44.7-1.4-61.8-18.9
			c-10.4-10.6-15.2-24-15.9-38.4c-1.2-26.3-1.6-52.6-2.2-78.9c-0.8-39.1-1.5-78.3-2.3-117.4c-0.6-33.5-1.3-66.9-2-100.4
			c-0.7-37-1.3-73.9-2-110.9c-0.6-33.8-1.3-67.6-2-101.4c-0.6-30.5-1.3-60.9-1.7-91.4c-0.3-20,5-38,21.5-50.9
			c13.3-10.4,29.2-12.7,45.4-11.5c18.6,1.4,37.1,3.6,55.6,5.5C385.2,39.9,397.6,41.2,410.9,42.5"/>
		<path id="Fill-4" sketch:type="MSShapeGroup" fill="#FFFFFF" d="M418.7,579.4c-18.6,1.5-36.6,3.1-54.7,4.2
			c-4.9,0.3-10-0.9-14.7-2.3c-12.2-3.4-19.7-11.9-21.7-24.2c-1.4-8.6-1.3-17.5-2-26.8c8.2-0.7,15.6-1.1,23-2.1
			c11.3-1.5,21.7-5.2,29.8-13.7c5.7-6,8.8-13.2,8.8-21.6c0-53.8,0-107.6-0.2-161.4c-0.1-19.6-0.5-39.3-1-58.9
			c-0.4-18.5-11.8-33.4-29.9-37.8c-6.8-1.7-14.2-1.3-21.3-1.8c-4.8-0.3-9.6-0.6-15.4-0.9c0-10.5-0.9-20.7,0.2-30.6
			c1.6-13.7,10.1-20,25.4-21.2c15.9-1.2,31.6,1,47.2,3.5c3.8,0.6,7.6,1.3,11.4,1.5c3.7,0.2,5.4,1.8,5.7,5.4c0.3,3.8,1,7.6,1.2,11.4
			c0.9,29.5,1.9,58.9,2.5,88.4c0.8,34.8,1.1,69.6,2.1,104.4c1.2,38.4,3.2,76.8,4.3,115.3c0.6,21,0.1,42,0,62.9
			C419.6,574.7,419.1,576.5,418.7,579.4"/>
		<path id="Fill-5" sketch:type="MSShapeGroup" fill="#FFFFFF" d="M516.6,171.5c0.7-6.9,0.6-13.8,2.1-20.3
			c3.1-13.7,13.4-21.9,28.4-21.9c14.5,0,28.9,1.2,43.4,2.1c16.4,1.1,32.9,2.5,49.3,3.8c2.5,0.2,4.9,0.6,7.8,0.9
			c7.3,162.8,14.7,325.4,22,488.6c-7.6,1.2-15.1,2.3-22.5,3.6c-21,3.4-42,7.6-63.4,6.3c-7.7-0.5-15.6-1.8-23-4.1
			c-17.3-5.6-27.5-20.4-28.1-39.6c5.7-0.6,11.4-1.1,17.1-1.7c14.5-1.6,29.3-1.6,43.2-7c19.1-7.4,32.5-20.1,34.7-41.2
			c1.1-11-0.3-22.3-0.7-33.4c-0.9-22.8-2-45.6-3-68.4c-1.7-37.8-3.3-75.5-5-113.3c-1.4-31.4-2.7-62.9-4-94.3
			c-1.1-26-14.4-45.4-38.1-53.1c-8.8-2.9-18.7-2.7-28.1-3.7c-9.1-0.9-18.2-1.5-27.4-2.3C520.1,172.5,518.8,172,516.6,171.5"/>
	</g>
</g>
</svg>
