<?xml version="1.0" encoding="utf-8"?>
<!-- Generator: Adobe Illustrator 18.1.1, SVG Export Plug-In . SVG Version: 6.00 Build 0)  -->
<svg version="1.1"
	 id="svg3671" sodipodi:docname="New document 4" inkscape:version="0.48.5 r10040" xmlns:inkscape="http://www.inkscape.org/namespaces/inkscape" xmlns:sodipodi="http://sodipodi.sourceforge.net/DTD/sodipodi-0.dtd" xmlns:svg="http://www.w3.org/2000/svg" xmlns:rdf="http://www.w3.org/1999/02/22-rdf-syntax-ns#" xmlns:cc="http://creativecommons.org/ns#" xmlns:dc="http://purl.org/dc/elements/1.1/"
	 xmlns="http://www.w3.org/2000/svg" xmlns:xlink="http://www.w3.org/1999/xlink" x="0px" y="0px" viewBox="311 398.8 770 183"
	 enable-background="new 311 398.8 770 183" xml:space="preserve">
<sodipodi:namedview  inkscape:window-maximized="0" inkscape:window-y="-21" inkscape:window-x="657" inkscape:window-height="1041" inkscape:window-width="1256" inkscape:current-layer="layer1" inkscape:document-units="px" inkscape:pageopacity="0.0" fit-margin-bottom="0.5" fit-margin-right="0.5" inkscape:pageshadow="2" id="base" fit-margin-left="0.5" fit-margin-top="0.5" borderopacity="1.0" bordercolor="#666666" pagecolor="#ffffff" inkscape:cy="283.29076" inkscape:cx="621.35281" inkscape:zoom="0.57695313" showgrid="false">
	</sodipodi:namedview>
<g id="layer1" transform="translate(124.99999,-182.24065)" inkscape:label="Layer 1" inkscape:groupmode="layer">
	<g id="g3007" transform="matrix(14.230769,0,0,-14.230769,20.195613,545.3506)">
		<path id="path3009" inkscape:connector-curvature="0" fill="#FFFFFF" d="M12.4-11.4c0-0.1,0-0.1,0-0.2c0.1-0.1,0.3-0.2,0.4-0.2
			c0.7-0.4,1.4-0.5,2.1-0.5c1.4,0,2.3,0.8,2.3,2v0c0,1.1-1,1.6-2,1.9l-0.1,0c-0.7,0.2-1.3,0.4-1.3,0.9v0c0,0.4,0.4,0.7,0.9,0.7
			c0.6,0,1.4-0.2,1.8-0.5c0,0,0.1-0.1,0.2,0c0,0.1,0.3,0.7,0.3,0.8c0,0.1,0,0.1-0.1,0.2c-0.5,0.3-1.3,0.6-2.1,0.6l-0.1,0
			c-1.3,0-2.2-0.8-2.2-1.9v0c0-1.2,1-1.6,2-1.9l0.2,0C15.4-9.8,16-10,16-10.5v0c0-0.4-0.4-0.8-1-0.8c-0.2,0-1,0-1.9,0.5
			c-0.1,0.1-0.2,0.1-0.2,0.1c0,0-0.1,0.1-0.2-0.1L12.4-11.4z"/>
	</g>
	<g id="g3011" transform="matrix(14.230769,0,0,-14.230769,320.19446,545.3506)">
		<path id="path3013" inkscape:connector-curvature="0" fill="#FFFFFF" d="M12.4-11.4c0-0.1,0-0.1,0-0.2c0.1-0.1,0.3-0.2,0.4-0.2
			c0.7-0.4,1.4-0.5,2.1-0.5c1.4,0,2.3,0.8,2.3,2v0c0,1.1-1,1.6-2,1.9l-0.1,0c-0.7,0.2-1.3,0.4-1.3,0.9v0c0,0.4,0.4,0.7,0.9,0.7
			c0.6,0,1.4-0.2,1.8-0.5c0,0,0.1-0.1,0.2,0c0,0.1,0.3,0.7,0.3,0.8c0,0.1,0,0.1-0.1,0.2c-0.5,0.3-1.3,0.6-2.1,0.6l-0.1,0
			c-1.3,0-2.2-0.8-2.2-1.9v0c0-1.2,1-1.6,2-1.9l0.2,0C15.4-9.8,16-10,16-10.5v0c0-0.4-0.4-0.8-1-0.8c-0.2,0-1,0-1.9,0.5
			c-0.1,0.1-0.2,0.1-0.2,0.1c0,0-0.1,0.1-0.2-0.1L12.4-11.4z"/>
	</g>
	<g id="g3015" transform="matrix(14.230769,0,0,-14.230769,524.9952,510.98046)">
		<path id="path3017" inkscape:connector-curvature="0" fill="#FFFFFF" d="M12.4-11.4c0-0.7-0.1-1.2-0.4-1.6
			c-0.3-0.4-0.6-0.6-1.2-0.6c-0.5,0-0.9,0.2-1.2,0.6c-0.3,0.4-0.4,0.9-0.4,1.6c0,0.7,0.1,1.2,0.4,1.6c0.2,0.4,0.6,0.6,1.2,0.6
			c0.5,0,0.9-0.2,1.2-0.6C12.3-10.2,12.4-10.7,12.4-11.4 M13.6-10.1c-0.1,0.4-0.3,0.8-0.5,1c-0.2,0.3-0.6,0.5-0.9,0.7
			c-0.4,0.2-0.8,0.3-1.3,0.3c-0.5,0-0.9-0.1-1.3-0.3C9.2-8.6,8.9-8.8,8.7-9.1c-0.2-0.3-0.4-0.6-0.5-1C8-10.5,7.9-11,7.9-11.4
			c0-0.5,0.1-0.9,0.2-1.3c0.1-0.4,0.3-0.8,0.5-1c0.2-0.3,0.6-0.5,0.9-0.7c0.4-0.2,0.8-0.3,1.3-0.3c0.5,0,0.9,0.1,1.3,0.3
			c0.4,0.2,0.7,0.4,0.9,0.7c0.2,0.3,0.4,0.6,0.5,1c0.1,0.4,0.2,0.8,0.2,1.3S13.8-10.5,13.6-10.1"/>
	</g>
	<g id="g3019" transform="matrix(14.230769,0,0,-14.230769,682.5683,539.71093)">
		<path id="path3021" inkscape:connector-curvature="0" fill="#FFFFFF" d="M12.4-11.4c0,0.1-0.2,0.1-0.2,0.1
			c-0.2-0.1-0.4-0.1-0.6-0.2c-0.2,0-0.4,0-0.7,0c-0.6,0-1,0.2-1.4,0.5c-0.3,0.3-0.5,0.9-0.5,1.6c0,0.7,0.2,1.2,0.5,1.6
			c0.3,0.4,0.7,0.6,1.3,0.6c0.5,0,0.9-0.1,1.3-0.2c0,0,0.1,0,0.1,0.1c0.1,0.3,0.2,0.5,0.3,0.8c0,0.1,0,0.1-0.1,0.1
			c-0.2,0.1-0.5,0.2-0.8,0.2c-0.3,0-0.6,0.1-0.9,0.1c-0.5,0-1-0.1-1.3-0.3c-0.4-0.2-0.7-0.4-1-0.7S8.1-7.7,8-8.1
			C7.9-8.5,7.8-9,7.8-9.4c0-1,0.3-1.8,0.8-2.4c0.5-0.6,1.3-0.9,2.4-0.9c0.6,0,1.2,0.1,1.7,0.3c0,0,0.1,0,0,0.1L12.4-11.4z"/>
	</g>
	<g id="g3023" transform="matrix(14.230769,0,0,-14.230769,712.4969,501.47858)">
		<path id="path3025" inkscape:connector-curvature="0" fill="#FFFFFF" d="M12.4-11.4c0.1,0.4,0.2,0.7,0.3,1
			c0.2,0.4,0.6,0.6,1.2,0.6s0.9-0.2,1.1-0.6c0.2-0.3,0.2-0.6,0.3-1H12.4z M16.5-10.6c-0.1,0.4-0.4,0.8-0.5,1
			c-0.3,0.3-0.5,0.5-0.8,0.6c-0.3,0.1-0.7,0.2-1.2,0.2c-0.5,0-1-0.1-1.3-0.3c-0.4-0.2-0.7-0.4-0.9-0.7c-0.2-0.3-0.4-0.7-0.6-1.1
			c-0.1-0.4-0.2-0.8-0.2-1.3c0-0.5,0.1-0.9,0.2-1.3c0.1-0.4,0.3-0.7,0.6-1c0.3-0.3,0.6-0.5,1-0.7c0.4-0.2,0.9-0.2,1.5-0.2
			c1.2,0,1.8,0.3,2,0.4c0,0,0.1,0.1,0,0.2L16.1-14c0,0.1-0.2,0.1-0.2,0.1c-0.3-0.1-0.7-0.3-1.7-0.3c-0.6,0-1.1,0.2-1.4,0.5
			c-0.3,0.3-0.4,0.7-0.5,1.4l4.1,0c0,0,0.1,0,0.1,0.1C16.6-12.3,16.7-11.5,16.5-10.6"/>
	</g>
	<g id="g3027" transform="matrix(14.230769,0,0,-14.230769,248.76169,501.47858)">
		<path id="path3029" inkscape:connector-curvature="0" fill="#FFFFFF" d="M12.4-11.4c0.1,0.4,0.2,0.7,0.3,1
			c0.2,0.4,0.6,0.6,1.2,0.6s0.9-0.2,1.1-0.6c0.2-0.3,0.2-0.6,0.3-1H12.4z M16.5-10.6c-0.1,0.4-0.4,0.8-0.5,1
			c-0.3,0.3-0.5,0.5-0.8,0.6c-0.3,0.1-0.7,0.2-1.2,0.2c-0.5,0-1-0.1-1.3-0.3c-0.4-0.2-0.7-0.4-0.9-0.7c-0.2-0.3-0.4-0.7-0.6-1.1
			c-0.1-0.4-0.2-0.8-0.2-1.3c0-0.5,0.1-0.9,0.2-1.3c0.1-0.4,0.3-0.7,0.6-1c0.3-0.3,0.6-0.5,1-0.7c0.4-0.2,0.9-0.2,1.5-0.2
			c1.2,0,1.8,0.3,2,0.4c0,0,0.1,0.1,0,0.2L16.1-14c0,0.1-0.2,0.1-0.2,0.1c-0.3-0.1-0.7-0.3-1.7-0.3c-0.6,0-1.1,0.2-1.4,0.5
			c-0.3,0.3-0.4,0.7-0.5,1.4l4.1,0c0,0,0.1,0,0.1,0.1C16.6-12.3,16.7-11.5,16.5-10.6"/>
	</g>
	<g id="g3031" transform="matrix(14.230769,0,0,-14.230769,123.60065,539.3936)">
		<path id="path3033" inkscape:connector-curvature="0" fill="#FFFFFF" d="M12.4-11.4c-0.2,0.1-0.2,0.2-0.2,0.2
			c-0.1,0.1-0.1,0.3-0.1,0.5c0,0.4,0.1,0.6,0.4,0.8c0,0,0.3,0.3,1.2,0.3c0.6,0,1.1-0.1,1.1-0.1v-1.9h0c0,0-0.5-0.1-1.1-0.1
			C12.8-11.7,12.4-11.4,12.4-11.4 M14.1-8.6c-0.2,0-0.4,0-0.6,0c-0.3,0-0.7,0-1-0.1c-0.3-0.1-0.6-0.2-0.8-0.4
			c-0.2-0.2-0.4-0.4-0.6-0.7s-0.2-0.6-0.2-0.9c0-0.4,0.1-0.7,0.2-0.9c0.1-0.3,0.3-0.5,0.5-0.6c0.2-0.2,0.5-0.3,0.8-0.4
			c0.3-0.1,0.7-0.1,1.1-0.1c0.4,0,0.8,0,1.2,0.1c0.4,0.1,0.9,0.2,1,0.2c0.1,0,0.3,0.1,0.3,0.1c0.1,0,0.1,0.1,0.1,0.1l0,3.7
			c0,0.8-0.2,1.4-0.6,1.8c-0.4,0.4-1.1,0.6-1.9,0.6c-0.3,0-0.8,0-1.1-0.1c0,0-0.9-0.2-1.3-0.5c0,0-0.1-0.1,0-0.2l0.3-0.8
			c0-0.1,0.1-0.1,0.1-0.1s0,0,0.1,0c0.8,0.4,1.8,0.4,1.8,0.4c0.4,0,0.8-0.1,1-0.3c0.2-0.2,0.3-0.4,0.3-1v-0.2
			C14.4-8.6,14.1-8.6,14.1-8.6"/>
	</g>
	<g id="g3035" transform="matrix(14.230769,0,0,-14.230769,613.6685,468.87159)">
		<path id="path3037" inkscape:connector-curvature="0" fill="#FFFFFF" d="M12.4-11.4c0,0.1,0,0.1-0.1,0.1c-0.1,0-0.4,0.1-0.7,0.1
			c-0.5,0-0.8-0.1-1-0.2c-0.3-0.1-0.5-0.3-0.7-0.5v0.5c0,0.1,0,0.1-0.1,0.1h-1c-0.1,0-0.1-0.1-0.1-0.1v-6.1c0-0.1,0.1-0.1,0.1-0.1
			h1.1c0.1,0,0.1,0.1,0.1,0.1v3c0,0.4,0,0.8,0.1,1.1c0.1,0.3,0.2,0.5,0.4,0.6c0.1,0.1,0.3,0.2,0.5,0.3c0.2,0.1,0.4,0.1,0.5,0.1
			c0.2,0,0.4-0.1,0.4-0.1c0.1,0,0.1,0,0.1,0.1C12.2-12.1,12.4-11.5,12.4-11.4"/>
	</g>
	<g id="g3039" transform="matrix(14.230769,0,0,-14.230769,470.8741,428.84334)">
		<path id="path3041" inkscape:connector-curvature="0" fill="#FFFFFF" d="M12.4-11.4c-0.1,0-0.2,0.1-0.4,0.1c-0.2,0-0.3,0-0.6,0
			c-0.7,0-1.3-0.2-1.7-0.6c-0.4-0.4-0.7-1-0.8-1.8L8.9-14H8c0,0-0.1,0-0.1-0.1L7.7-15c0-0.1,0-0.1,0.1-0.1h0.9l-0.9-5.1
			c-0.1-0.4-0.2-0.7-0.2-1c-0.1-0.3-0.2-0.4-0.3-0.6c-0.1-0.1-0.2-0.2-0.4-0.3c-0.1,0-0.3-0.1-0.5-0.1c-0.1,0-0.2,0-0.3,0
			c-0.1,0-0.1,0-0.2,0.1c0,0-0.1,0-0.1-0.1c0-0.1-0.3-0.7-0.3-0.8c0-0.1,0-0.1,0.1-0.2c0.1,0,0.2-0.1,0.4-0.1
			c0.2-0.1,0.4-0.1,0.6-0.1c0.4,0,0.7,0.1,1,0.2C7.7-23,8-22.8,8.2-22.6c0.2,0.3,0.4,0.5,0.5,0.9c0.1,0.4,0.3,0.8,0.4,1.4l0.9,5.2
			h1.3c0,0,0.1,0,0.1,0.1l0.2,0.8c0,0.1,0,0.1-0.1,0.1h-1.3c0,0,0.1,0.5,0.2,0.9c0.1,0.2,0.2,0.3,0.3,0.4c0.1,0.1,0.2,0.2,0.3,0.2
			c0.1,0,0.3,0.1,0.4,0.1c0.1,0,0.2,0,0.3,0c0.1,0,0.2,0,0.2-0.1c0.1,0,0.2,0,0.2,0.1l0.3,0.9C12.5-11.5,12.5-11.4,12.4-11.4"/>
	</g>
	<g id="g3043" transform="matrix(14.230769,0,0,-14.230769,212.19431,554.07548)">
		<path id="path3045" inkscape:connector-curvature="0" fill="#FFFFFF" d="M12.4-11.4c0-0.1,0-0.1-0.1-0.1h-1.1
			c-0.1,0-0.1,0.1-0.1,0.1v8.7c0,0.1,0,0.1,0.1,0.1h1.1c0.1,0,0.1-0.1,0.1-0.1V-11.4z"/>
	</g>
</g>
</svg>
