<?xml version="1.0" encoding="utf-8"?>
<!-- Generator: Adobe Illustrator 18.1.1, SVG Export Plug-In . SVG Version: 6.00 Build 0)  -->
<svg version="1.1" id="svg5220" xmlns:svg="http://www.w3.org/2000/svg"
	 xmlns="http://www.w3.org/2000/svg" xmlns:xlink="http://www.w3.org/1999/xlink" x="0px" y="0px" viewBox="206 136 1024 522"
	 enable-background="new 206 136 1024 522" xml:space="preserve">
<linearGradient id="path3060_1_" gradientUnits="userSpaceOnUse" x1="412.2603" y1="794.4003" x2="413.218" y2="794.4003" gradientTransform="matrix(0 513.7015 -513.7015 0 408801.3438 -211629.1562)">
	<stop  offset="0" style="stop-color:#00B8F1"/>
	<stop  offset="0.2199" style="stop-color:#06A5E5"/>
	<stop  offset="0.2199" style="stop-color:#06A5E5"/>
	<stop  offset="0.7943" style="stop-color:#1870C5"/>
	<stop  offset="1" style="stop-color:#1D61BC"/>
</linearGradient>
<path id="path3060" fill="url(#path3060_1_)" d="M219.4,149.6v492H722l491.9-491.9l0,0L219.4,149.6L219.4,149.6z"/>
<path id="path3100" fill="#FFFFFF" d="M815.3,385h-21.6v-78.8h21.6c28.8,0,51.7,9.5,51.7,38.9C867,375.5,844.1,385,815.3,385
	 M583.3,441.4c-11.4,0-22.1-2.1-31.4-5.6l31-97.9h0.7l30.4,98.2C604.9,439.4,594.5,441.4,583.3,441.4 M809.6,242.1h-97.9v232.8
	l-85.5-232.8h-84.8l-73.1,194.6c-7.7-49-58.5-66-98.5-78.7c-26.3-8.5-54.4-20.9-54.1-34.7c0.2-11.3,15.1-21.7,44.3-20.2
	c19.7,1,37.1,2.6,71.6,19.3l34-59.2c-31.5-16.1-75.2-26.2-110.9-26.3h-0.2c-41.7,0-76.4,13.6-97.9,35.8
	c-15,15.6-23.1,35.2-23.4,57.1c-0.6,30,10.5,51.3,33.6,68.3c19.6,14.3,44.5,23.6,66.6,30.5c27.2,8.4,49.4,15.7,49.1,31.3
	c-0.2,5.7-2.3,11-6.4,15.2c-6.8,7-17.2,9.6-31.6,10c-27.7,0.6-48.3-3.8-81.1-23.1l-30.2,60.1c32.7,18.6,71.3,29.5,110.8,29.5h5.1
	c34.3-0.7,62.1-10.5,84.2-28.3l3.6-3.1l-9.8,26.3h88.9l14.9-45.4c15.6,5.3,33.4,8.3,52.2,8.3c18.4,0,35.7-2.8,51.1-7.8l14.4,45h145
	v-94h31.6c76.4,0,121.7-38.9,121.7-104.2C947.1,275.6,903.2,242.2,809.6,242.1"/>
</svg>
