<?xml version="1.0" encoding="utf-8"?>
<!-- Generator: Adobe Illustrator 18.1.1, SVG Export Plug-In . SVG Version: 6.00 Build 0)  -->
<svg version="1.1" id="Layer_1" xmlns="http://www.w3.org/2000/svg" xmlns:xlink="http://www.w3.org/1999/xlink" x="0px" y="0px"
	 viewBox="0 0 206.5 206.1" enable-background="new 0 0 206.5 206.1" xml:space="preserve">
<g id="ragfK5.tif">
	<path fill="#FFFFFF" d="M111,0c8.3,1.8,16.7,2.8,24.8,5.6c14.1,4.8,26.6,12.2,37.5,22.3c2.7,2.5,4.2,2.5,5.9-0.7
		c2.5-4.7,5.2-9.2,7.9-13.8c2,0.5,1.9,2.2,2.3,3.5c7.1,22,13.7,44.3,16.2,67.4c7.2,65-32.7,110.7-84.9,120.2
		c-28.8,5.2-55.2-1.6-78.9-18.8c-1-0.7-2.4-1.2-2.7-3.2c3.8-0.7,7.8-1.4,9.8-5.4c0.9-1.9,1.1-3.8,0.6-5.8c-1.1-4.4-4.6-6.7-9.5-6.1
		c-5.2,0.5-7.3,3.9-7.3,12.5c-5-3.4-8.2-8-11.6-12.4C9.8,150.5,3.2,133.8,0.9,115.3c-0.1-1.1-0.6-2.2-0.9-3.3c0-5.7,0-11.3,0-17
		c0.3-1.4,0.8-2.9,0.9-4.3C5.4,50,36.4,14.4,76,3.9C82.6,2.1,89.4,1.5,96,0C101,0,106,0,111,0z M175.9,81.5
		c-0.9,7.5-3.6,14.3-7.1,20.6c-17.2,30.8-42.5,51.6-76.8,61.2c-9.1,2.5-18.1,5.7-27.2,8.5c5.3,0,10.5,0.1,15.6,0
		c18-0.5,35.9,2,53.9,0.2c12.9-1.3,25.6-3.3,36.8-10c20.4-12.2,28-31.8,29.6-54.2c2-27.8-4.4-54.3-13.2-80.3
		c-0.3-0.9-0.4-2.1-1.8-2.1c-0.3,0.2-0.6,0.4-0.7,0.7c-17.6,27.3-42.8,41.4-74.9,44.2c-10.6,0.9-21.3,0.6-31.8,2.9
		c-23.4,5.2-39.8,18-45.7,42.1c-3.2,13-1.3,25.2,6.7,36.1c4.2,5.7,9.4,8.6,17.3,6.6c13.2-3.5,26.6-6.1,39.7-10.1
		c33-10.3,59-29.5,76.3-59.8C173.8,85.9,174.8,83.7,175.9,81.5z"/>
</g>
</svg>
