<?xml version="1.0" encoding="UTF-8" standalone="no"?>
<svg width="40px" height="29px" viewBox="0 0 40 29" version="1.1" xmlns="http://www.w3.org/2000/svg" xmlns:xlink="http://www.w3.org/1999/xlink" xmlns:sketch="http://www.bohemiancoding.com/sketch/ns">
    <!-- Generator: Sketch 3.3.1 (12005) - http://www.bohemiancoding.com/sketch -->
    <title>vanillajs</title>
    <desc>Created with Sketch.</desc>
    <defs></defs>
    <g id="Mockups" stroke="none" stroke-width="1" fill="none" fill-rule="evenodd" sketch:type="MSPage">
        <g id="Quickstart" sketch:type="MSArtboardGroup" transform="translate(-875.000000, -574.000000)" fill="#000000">
            <g id="vanillajs" sketch:type="MSLayerGroup" transform="translate(875.000000, 574.000000)">
                <path d="M38.24,4.66391826 C36.7817211,5.61765576 35.355727,6.55036826 33.9478932,7.47111826 C33.5512166,6.98560993 33.2118694,6.46868493 32.7763798,6.05760993 C31.7194065,5.0598891 30.4669436,4.78390576 29.0944807,5.24971826 C27.3677151,5.83588076 26.789911,8.13147243 28.1030267,9.41762243 C28.6983976,10.0007641 29.4775074,10.4213849 30.2293175,10.8008016 C31.9069436,11.6474808 33.6513947,12.3602766 35.3089614,13.2436891 C36.8486647,14.0643891 38.2211276,15.1692891 39.0145994,16.7899058 C40.9916914,20.8279141 40.1256973,26.5818766 34.2862908,28.3284016 C30.4744214,29.4684641 26.8124629,29.0351558 23.4390504,26.8332099 C22.0369139,25.9178974 21.0318101,24.5905433 20.1780415,23.0337266 C21.709911,22.1302558 23.2048665,21.2485349 24.6580415,20.3914641 C25.3431454,21.1379724 25.9369733,21.9585516 26.6923442,22.5732308 C28.4843917,24.0315683 30.5319881,24.1932433 32.6179228,23.3573183 C34.6319288,22.5502724 34.9717507,19.9509058 33.1970326,18.6981058 C32.1232047,17.9401183 30.8617211,17.4595641 29.6919881,16.8399308 C28.1201187,16.0071474 26.4643323,15.2968891 25.0080712,14.2891391 C22.5717507,12.6031516 21.7127596,10.0568308 21.8964985,7.14269326 C22.1508605,3.10661826 25.3281899,0.513293262 28.9147774,0.139434928 C30.4156677,-0.0170442383 31.8760831,0.0601682617 33.3146588,0.465926595 C35.375549,1.04725576 36.8874777,2.35443076 38.24,4.66391826" id="Fill-1-Copy" sketch:type="MSShapeGroup"></path>
                <path d="M0,23.670816 C1.54551929,22.7049951 3.03928783,21.7714368 4.5535905,20.8250701 C4.89388724,21.339941 5.20617211,21.8493743 5.55430267,22.3323451 C6.50967359,23.657766 7.82801187,23.9899368 9.33804154,23.6745618 C10.3964392,23.4534368 11.1486053,22.6054285 11.2281306,21.473341 C11.3224926,20.1311243 11.3519288,18.7820201 11.3552522,17.435816 C11.3686647,11.8797785 11.361543,6.32362013 11.36273,0.767582628 C11.36273,0.668740961 11.3725816,0.570020128 11.380178,0.426590961 L16.9245104,0.426590961 C16.940178,0.558782628 16.9731751,0.709703461 16.9738872,0.860865961 C16.9944214,5.42945346 17.0225519,9.99792013 17.0250445,14.5665076 C17.0263501,16.7969701 17.0278932,19.029366 16.9433828,21.2575326 C16.7820772,25.510866 14.0030861,28.4096576 9.85115727,28.8200076 C7.69210682,29.0332785 5.63548961,28.7739701 3.70623145,27.7396368 C2.02017804,26.8358035 0.874302671,25.415166 0,23.670816" id="Fill-2-Copy" sketch:type="MSShapeGroup"></path>
            </g>
        </g>
    </g>
</svg>