<?xml version="1.0" encoding="UTF-8" standalone="no"?>
<svg width="127px" height="113px" viewBox="0 0 127 113" version="1.1" xmlns="http://www.w3.org/2000/svg" xmlns:xlink="http://www.w3.org/1999/xlink" xmlns:sketch="http://www.bohemiancoding.com/sketch/ns">
    <!-- Generator: Sketch 3.3.3 (12081) - http://www.bohemiancoding.com/sketch -->
    <title>Logo</title>
    <desc>Created with Sketch.</desc>
    <defs></defs>
    <g id="Page-1" stroke="none" stroke-width="1" fill="none" fill-rule="evenodd" sketch:type="MSPage">
        <g id="xamarin" sketch:type="MSLayerGroup" fill="#FFFFFF">
            <g id="Page-1" sketch:type="MSShapeGroup">
                <g id="xamagon">
                    <path d="M36.64462,0 C33.2146221,0.0072736 29.8570407,1.9542688 28.1303574,4.9244767 L1.2748461,51.5755051 C-0.4249487,54.5536654 -0.4249487,58.446335 1.2748461,61.424495 L28.1303574,108.075523 C29.8572221,111.045755 33.2146221,112.993272 36.64462,113 L90.355453,113 C93.785451,112.992726 97.142849,111.045755 98.869714,108.075523 L125.725221,61.424495 C127.425014,58.446335 127.424839,54.5536654 125.725221,51.5755051 L98.869714,4.9244767 C97.142849,1.9542688 93.785451,0.0067281 90.355453,0 L36.64462,0 L36.64462,0 Z M37.1320485,27.2914163 C37.2058317,27.2841427 37.2832193,27.2841427 37.3572323,27.2914163 L46.6215431,27.2914163 C47.0316324,27.2999021 47.4294204,27.5369 47.634211,27.8928696 L63.350001,55.898541 C63.429106,56.037006 63.480077,56.191278 63.499418,56.349625 C63.518771,56.191242 63.569693,56.036957 63.648835,55.898541 L79.327009,27.8928696 C79.538298,27.5261109 79.95472,27.2878037 80.37712,27.2914163 L89.641435,27.2914163 C90.4618,27.2986899 91.076151,28.3319643 90.69172,29.0582204 L75.351216,56.500006 L90.69172,83.904199 C91.112538,84.634626 90.48307,85.715809 89.641435,85.708584 L80.37712,85.708584 C79.947338,85.704947 79.528454,85.450153 79.327009,85.069538 L63.648835,57.063867 C63.569729,56.925402 63.518759,56.771117 63.499418,56.612783 C63.480065,56.771153 63.429142,56.925463 63.350001,57.063867 L47.634211,85.069538 C47.4387461,85.439388 47.0388414,85.691745 46.6215431,85.708584 L37.3572323,85.708584 C36.5155962,85.715857 35.8862984,84.634626 36.3071165,83.904199 L51.647616,56.500006 L36.3071165,29.0582204 C35.939386,28.3955961 36.388036,27.4328513 37.1320485,27.2914163 L37.1320485,27.2914163 L37.1320485,27.2914163 Z" id="Logo"></path>
                </g>
            </g>
        </g>
    </g>
</svg>