<?xml version="1.0" encoding="utf-8"?>
<!-- Generator: Adobe Illustrator 16.0.4, SVG Export Plug-In . SVG Version: 6.00 Build 0)  -->
<!DOCTYPE svg PUBLIC "-//W3C//DTD SVG 1.1//EN" "http://www.w3.org/Graphics/SVG/1.1/DTD/svg11.dtd">
<svg version="1.1" id="Layer_1" xmlns="http://www.w3.org/2000/svg" xmlns:xlink="http://www.w3.org/1999/xlink" x="0px" y="0px"
	 width="792px" height="612px" viewBox="0 0 792 612" enable-background="new 0 0 792 612" xml:space="preserve">
<g>
	<defs>
		<rect id="SVGID_1_" width="792" height="612"/>
	</defs>
	<clipPath id="SVGID_2_">
		<use xlink:href="#SVGID_1_"  overflow="visible"/>
	</clipPath>
	<path clip-path="url(#SVGID_2_)" fill="#D0D2D3" d="M599.517,266.11c-8.078,0-14.91,3.806-19.758,11.005
		c-4.819,7.156-7.366,17.145-7.366,28.885c0,11.74,2.547,21.729,7.366,28.884c4.848,7.2,11.68,11.005,19.758,11.005
		s14.91-3.805,19.758-11.005c4.818-7.155,7.365-17.144,7.365-28.884c0-11.74-2.547-21.729-7.365-28.885
		C614.427,269.916,607.595,266.11,599.517,266.11 M599.517,336.005c-3.862,0-6.913-2.185-9.33-6.681
		c-2.919-5.431-4.527-13.714-4.527-23.324c0-9.61,1.608-17.894,4.527-23.324c2.417-4.496,5.468-6.682,9.33-6.682
		c3.861,0,6.913,2.186,9.33,6.682c2.919,5.43,4.526,13.713,4.526,23.324c0,9.611-1.607,17.895-4.526,23.324
		C606.43,333.82,603.378,336.005,599.517,336.005 M424.45,295.172v34.312c0,9.046,7.36,16.405,16.406,16.405
		c7.89,0,13.851-3.914,16.046-5.598c0.122-0.094,0.282-0.122,0.429-0.075s0.261,0.163,0.306,0.311l1.324,4.333h9.776v-49.688
		h-12.562v37.154c0,0.175-0.099,0.336-0.254,0.417c-2.362,1.218-7.022,3.263-11.69,3.263c-3.979,0-7.219-3.238-7.219-7.219v-33.615
		H424.45z M550.237,344.859h12.563v-34.312c0-9.046-7.36-16.406-16.406-16.406c-6.659,0-12.001,2.863-14.592,4.569
		c-0.145,0.095-0.329,0.103-0.48,0.021s-0.247-0.24-0.247-0.413v-31.177h-12.562v77.718h12.562v-37.155
		c0-0.175,0.099-0.336,0.255-0.416c2.361-1.219,7.022-3.263,11.689-3.263c1.928,0,3.741,0.751,5.104,2.114
		c1.363,1.363,2.113,3.177,2.113,5.104V344.859z M477.792,305.055h7.646c0.259,0,0.469,0.21,0.469,0.469v27.334
		c0,7.185,5.846,13.03,13.031,13.03c2.605,0,5.175-0.376,7.647-1.118v-8.974c-1.442,0.127-3.1,0.209-4.272,0.209
		c-2.12,0-3.844-1.725-3.844-3.844v-26.638c0-0.259,0.21-0.469,0.469-0.469h7.647v-9.883h-7.647c-0.259,0-0.469-0.21-0.469-0.469
		v-16.407h-12.562v16.407c0,0.259-0.21,0.469-0.469,0.469h-7.646V305.055z M404.361,344.859h13.068l-19.874-69.309
		c-1.593-5.558-6.744-9.44-12.526-9.44c-5.782,0-10.933,3.882-12.527,9.44l-19.874,69.309h13.069l5.752-20.061
		c0.058-0.201,0.242-0.339,0.451-0.339h26.258c0.209,0,0.394,0.138,0.451,0.339L404.361,344.859z M395.056,314.576h-20.052
		c-0.147,0-0.286-0.069-0.375-0.188c-0.088-0.116-0.116-0.269-0.076-0.41l10.026-34.966c0.058-0.201,0.242-0.339,0.451-0.339
		s0.393,0.138,0.45,0.339l10.027,34.966c0.04,0.142,0.012,0.294-0.077,0.41C395.342,314.507,395.203,314.576,395.056,314.576"/>
	<path clip-path="url(#SVGID_2_)" fill="#EB5424" d="M284.555,357.861l-16.85-51.864l44.108-32.045h-54.522l-16.851-51.862
		l-0.005-0.014h54.53l16.855,51.871l0.001-0.001l0.014-0.008C321.623,304.03,311.542,338.256,284.555,357.861 M196.321,357.861
		l-0.014,0.01l44.119,32.053l44.129-32.062l-44.115-32.054L196.321,357.861z M169.052,273.939L169.052,273.939
		c-10.304,31.721,1.657,65.333,27.26,83.928l0.004-0.016l16.852-51.861l-44.098-32.039h54.509l16.852-51.862l0.004-0.014h-54.533
		L169.052,273.939z"/>
</g>
</svg>
