<?xml version="1.0" encoding="utf-8"?>
<!-- Generator: Adobe Illustrator 18.0.0, SVG Export Plug-In . SVG Version: 6.00 Build 0)  -->
<!DOCTYPE svg PUBLIC "-//W3C//DTD SVG 1.1//EN" "http://www.w3.org/Graphics/SVG/1.1/DTD/svg11.dtd">
<svg version="1.1" id="Layer_1" xmlns="http://www.w3.org/2000/svg" xmlns:xlink="http://www.w3.org/1999/xlink" x="0px" y="0px"
	 viewBox="0 0 792 612" enable-background="new 0 0 792 612" xml:space="preserve">
<g>
	<g>
		<path fill="#D0D2D3" d="M413.8,277.1c-4.8-7.2-11.7-11-19.8-11s-14.9,3.8-19.8,11c-4.8,7.2-7.4,17.1-7.4,28.9s2.5,21.7,7.4,28.9
			c4.8,7.2,11.7,11,19.8,11s14.9-3.8,19.8-11c4.8-7.2,7.4-17.1,7.4-28.9S418.6,284.3,413.8,277.1z M403.3,329.3
			c-2.4,4.5-5.5,6.7-9.3,6.7c-3.9,0-6.9-2.2-9.3-6.7c-2.9-5.4-4.5-13.7-4.5-23.3c0-9.6,1.6-17.9,4.5-23.3c2.4-4.5,5.5-6.7,9.3-6.7
			c3.9,0,6.9,2.2,9.3,6.7c2.9,5.4,4.5,13.7,4.5,23.3S406.3,323.9,403.3,329.3z"/>
		<path fill="#D0D2D3" d="M250.7,332.3c0,0.2-0.1,0.3-0.3,0.4c-2.4,1.2-7,3.3-11.7,3.3c-4,0-7.2-3.2-7.2-7.2v-33.6h-12.6v34.3
			c0,9,7.4,16.4,16.4,16.4c7.9,0,13.8-3.9,16-5.6c0.1-0.1,0.3-0.1,0.4-0.1s0.3,0.2,0.3,0.3l1.3,4.3h9.8v-49.7h-12.6L250.7,332.3z"/>
		<path fill="#D0D2D3" d="M340.9,294.1c-6.7,0-12,2.9-14.6,4.6c-0.1,0.1-0.3,0.1-0.5,0c-0.2-0.1-0.2-0.2-0.2-0.4v-31.2H313v77.7
			h12.6l0-37.2c0-0.2,0.1-0.3,0.3-0.4c2.4-1.2,7-3.3,11.7-3.3c1.9,0,3.7,0.8,5.1,2.1c1.4,1.4,2.1,3.2,2.1,5.1v33.6h12.6v-34.3
			C357.3,301.5,349.9,294.1,340.9,294.1z"/>
		<path fill="#D0D2D3" d="M293,294.7v-16.4h-12.6v16.4c0,0.3-0.2,0.5-0.5,0.5h-7.6v9.9h7.6c0.3,0,0.5,0.2,0.5,0.5v27.3
			c0,7.2,5.8,13,13,13c2.6,0,5.2-0.4,7.6-1.1v-9c-1.4,0.1-3.1,0.2-4.3,0.2c-2.1,0-3.8-1.7-3.8-3.8v-26.6c0-0.3,0.2-0.5,0.5-0.5h7.6
			v-9.9h-7.6C293.2,295.2,293,295,293,294.7z"/>
		<path fill="#D0D2D3" d="M179.5,266.1c-5.8,0-10.9,3.9-12.5,9.4l-19.9,69.3h13.1l5.8-20.1c0.1-0.2,0.2-0.3,0.5-0.3h26.3
			c0.2,0,0.4,0.1,0.5,0.3l5.8,20.1h13.1l-19.9-69.3C190.5,270,185.3,266.1,179.5,266.1z M189.9,314.4c-0.1,0.1-0.2,0.2-0.4,0.2
			h-20.1c-0.1,0-0.3-0.1-0.4-0.2c-0.1-0.1-0.1-0.3-0.1-0.4l10-35c0.1-0.2,0.2-0.3,0.5-0.3s0.4,0.1,0.5,0.3l10,35
			C190,314.1,190,314.3,189.9,314.4z"/>
	</g>
	<g>
		<path fill="#EB5424" d="M520.8,294.1c-7.4,0-13.6,2.5-18,7.1c-4.4,4.6-6.7,11.1-6.7,18.7s2.3,14.1,6.7,18.7
			c4.4,4.7,10.7,7.1,18,7.1c7.4,0,13.6-2.5,18-7.1c4.4-4.6,6.7-11.1,6.7-18.7s-2.3-14.1-6.7-18.7
			C534.4,296.6,528.2,294.1,520.8,294.1z M528.5,333.3c-2,2.6-4.5,3.8-7.7,3.8s-5.7-1.2-7.7-3.8c-2.4-3.1-3.8-7.8-3.8-13.3
			s1.3-10.2,3.8-13.3c2-2.6,4.5-3.8,7.7-3.8s5.7,1.2,7.7,3.8c2.4,3.1,3.8,7.8,3.8,13.3S531,330.2,528.5,333.3z"/>
		<path fill="#EB5424" d="M558.1,301.3c-4.4,4.6-6.7,11.1-6.7,18.7s2.3,14.1,6.7,18.7c4.4,4.7,10.7,7.1,18,7.1
			c5.5,0,10.4-1.4,14.3-4v-7.5h-14.3c-5.5,0-11.5-2.9-11.5-14.4s6-14.4,11.5-14.4h14.3v-7.5c-4-2.6-8.8-4-14.3-4
			C568.8,294.1,562.6,296.6,558.1,301.3z"/>
		<path fill="#EB5424" d="M466.4,332.9v-65.7h-12.6v77.7h39.1v-11.5h-26C466.6,333.3,466.4,333.1,466.4,332.9z"/>
		<path fill="#EB5424" d="M627.5,319.7l17.9-24.6h-16.2l-15.7,21.6c-0.3,0.4-0.8,0.2-0.8-0.3v-49.4h-12.6v77.7h12.6v-21.3
			c0-0.5,0.6-0.6,0.8-0.3l15.7,21.6h16.2l-17.9-24.6C627.4,320.1,627.4,319.9,627.5,319.7z"/>
	</g>
</g>
</svg>
