<?xml version="1.0" encoding="utf-8"?>
<!-- Generator: Adobe Illustrator 16.0.4, SVG Export Plug-In . SVG Version: 6.00 Build 0)  -->
<!DOCTYPE svg PUBLIC "-//W3C//DTD SVG 1.1//EN" "http://www.w3.org/Graphics/SVG/1.1/DTD/svg11.dtd">
<svg version="1.1" id="Layer_1" xmlns="http://www.w3.org/2000/svg" xmlns:xlink="http://www.w3.org/1999/xlink" x="0px" y="0px"
	 width="792px" height="612px" viewBox="0 0 792 612" enable-background="new 0 0 792 612" xml:space="preserve">
<g>
	<defs>
		<rect id="SVGID_1_" width="792" height="612"/>
	</defs>
	<clipPath id="SVGID_2_">
		<use xlink:href="#SVGID_1_"  overflow="visible"/>
	</clipPath>
	<path clip-path="url(#SVGID_2_)" fill="#D0D2D3" d="M505.883,358.128c-8.078,0-14.91,3.806-19.758,11.005
		c-4.819,7.156-7.366,17.145-7.366,28.885s2.547,21.729,7.366,28.884c4.848,7.2,11.68,11.005,19.758,11.005
		s14.91-3.805,19.758-11.005c4.818-7.155,7.365-17.144,7.365-28.884s-2.547-21.729-7.365-28.885
		C520.793,361.934,513.961,358.128,505.883,358.128 M505.883,428.022c-3.862,0-6.913-2.185-9.33-6.681
		c-2.919-5.431-4.527-13.714-4.527-23.324c0-9.609,1.608-17.895,4.527-23.324c2.417-4.496,5.468-6.682,9.33-6.682
		c3.861,0,6.913,2.186,9.33,6.682c2.919,5.43,4.526,13.713,4.526,23.324s-1.607,17.895-4.526,23.324
		C512.796,425.838,509.744,428.022,505.883,428.022 M330.816,387.189v34.312c0,9.046,7.36,16.405,16.406,16.405
		c7.89,0,13.851-3.914,16.046-5.598c0.122-0.094,0.282-0.122,0.429-0.075s0.261,0.163,0.306,0.311l1.324,4.333h9.776v-49.688
		h-12.562v37.154c0,0.175-0.099,0.336-0.254,0.417c-2.362,1.218-7.022,3.263-11.69,3.263c-3.979,0-7.219-3.238-7.219-7.219v-33.615
		H330.816z M456.604,436.877h12.563v-34.312c0-9.046-7.36-16.406-16.406-16.406c-6.659,0-12.001,2.863-14.592,4.569
		c-0.145,0.095-0.329,0.103-0.48,0.021s-0.247-0.239-0.247-0.412v-31.178H424.88v77.719h12.562v-37.155
		c0-0.175,0.099-0.336,0.255-0.416c2.361-1.219,7.022-3.263,11.689-3.263c1.928,0,3.741,0.751,5.104,2.113
		c1.363,1.363,2.113,3.177,2.113,5.104V436.877z M384.158,397.072h7.646c0.259,0,0.469,0.211,0.469,0.469v27.335
		c0,7.185,5.846,13.03,13.031,13.03c2.605,0,5.175-0.376,7.647-1.118v-8.974c-1.442,0.127-3.1,0.209-4.272,0.209
		c-2.12,0-3.844-1.725-3.844-3.844v-26.639c0-0.258,0.21-0.469,0.469-0.469h7.647v-9.883h-7.647c-0.259,0-0.469-0.21-0.469-0.469
		v-16.407h-12.562v16.407c0,0.259-0.21,0.469-0.469,0.469h-7.646V397.072z M310.728,436.877h13.068l-19.874-69.309
		c-1.593-5.559-6.744-9.44-12.526-9.44c-5.782,0-10.933,3.882-12.527,9.44l-19.874,69.309h13.069l5.752-20.061
		c0.058-0.201,0.242-0.339,0.451-0.339h26.258c0.209,0,0.394,0.138,0.451,0.339L310.728,436.877z M301.422,406.594H281.37
		c-0.147,0-0.286-0.069-0.375-0.188c-0.088-0.116-0.116-0.269-0.076-0.41l10.026-34.967c0.058-0.201,0.242-0.338,0.451-0.338
		s0.393,0.137,0.45,0.338l10.027,34.967c0.04,0.142,0.012,0.294-0.077,0.41C301.708,406.524,301.569,406.594,301.422,406.594"/>
	<path clip-path="url(#SVGID_2_)" fill="#EB5424" d="M440.127,309.879l-16.85-51.864l44.107-32.045h-54.521l-16.852-51.862
		l-0.005-0.014h54.53l16.855,51.871v-0.001l0.014-0.008C477.195,256.047,467.113,290.273,440.127,309.879 M351.893,309.879
		l-0.014,0.01l44.119,32.053l44.129-32.062l-44.115-32.054L351.893,309.879z M324.624,225.957L324.624,225.957
		c-10.304,31.721,1.657,65.333,27.26,83.928l0.004-0.016l16.852-51.861l-44.098-32.039h54.508l16.853-51.862l0.004-0.014h-54.533
		L324.624,225.957z"/>
</g>
</svg>
