<svg width="100" height="100" viewBox="0 0 100 100" xmlns="http://www.w3.org/2000/svg"><title>Group</title><g fill="none" fill-rule="evenodd"><path d="M97.496.063a3.124 3.124 0 0 1 2.441 3.677 3.143 3.143 0 0 1-.917 1.65l.015.005-61.829 71.391-.049.01a5.607 5.607 0 0 1-.146.22l-.107.122a1.546 1.546 0 0 1-1.123.479c-.244 0-.479-.054-.684-.156-.049-.024-.088-.049-.137-.073a1.21 1.21 0 0 1-.342-.288l-.146.02a31.294 31.294 0 0 1-11.499-11.456v-.239a1.392 1.392 0 0 1-.352-.391c-.039-.068-.083-.137-.117-.2a1.57 1.57 0 0 1 .317-1.744L94.87.722v.005a3.13 3.13 0 0 1 2.626-.664z" fill="#44C7F4"/><path d="M31.605 82.67a37.373 37.373 0 0 1-21.264 15.875A37.583 37.583 0 0 1 0 100c0-2.441.244-4.917.747-7.408 2.09-10.396 8.301-18.912 16.586-24.195A37.552 37.552 0 0 0 31.605 82.67z" fill="#16214D"/></g></svg>