<svg width="53" height="44" viewBox="0 0 53 44" xmlns="http://www.w3.org/2000/svg"><title>Group 3</title><g fill="none" fill-rule="evenodd"><path fill="#44C7F4" d="M5.175 0h42.947v37.37H5.175z"/><path d="M52.919 18.676c0-1.66-1.179-2.346-2.62-1.541L4.837 42.537C3.39 43.345 3.56 44 5.218 44h44.7a3.004 3.004 0 0 0 3-3.005V18.676z" fill="#BD421A"/><path d="M0 18.676c0-1.66 1.179-2.346 2.62-1.541l45.463 25.402C49.529 43.345 49.359 44 47.7 44H3A3.004 3.004 0 0 1 0 40.995V18.676z" fill="#EB5424"/><path d="M30.747 19.08l-1.422-4.375L33.049 12h-4.603l-1.423-4.374v-.001h4.603L33.05 12h.001a6.33 6.33 0 0 1-2.303 7.078zm-7.449 0h-.001l3.725 2.704 3.725-2.705-3.724-2.703-3.725 2.703zM20.996 12a6.331 6.331 0 0 0 2.301 7.08v-.001l1.423-4.375-3.723-2.703H25.6l1.423-4.374v-.001h-4.604L20.996 12z" fill="#FFF"/></g></svg>