<?xml version="1.0" encoding="UTF-8" standalone="no"?>
<svg width="53px" height="44px" viewBox="0 0 53 44" version="1.1" xmlns="http://www.w3.org/2000/svg" xmlns:xlink="http://www.w3.org/1999/xlink">
    <!-- Generator: Sketch 3.8.3 (29802) - http://www.bohemiancoding.com/sketch -->
    <title>Group 3</title>
    <desc>Created with Sketch.</desc>
    <defs></defs>
    <g id="Page-1" stroke="none" stroke-width="1" fill="none" fill-rule="evenodd">
        <g id="Desktop-HD" transform="translate(-853.000000, -130.000000)">
            <g id="Group-3" transform="translate(853.000000, 130.000000)">
                <rect id="Rectangle-10" fill="#44C7F4" x="5.1754386" y="1.36424205e-12" width="42.9473684" height="37.369863"></rect>
                <path d="M3.19298246,18.6760875 C3.19298246,17.0165521 4.37163376,16.3297848 5.81216366,17.1346571 L51.2755556,42.5365758 C52.7220895,43.3448027 52.5516475,44 50.8936999,44 L6.19401938,44 C4.53659245,44 3.19298246,42.6527026 3.19298246,40.9951453 L3.19298246,18.6760875 Z" id="Rectangle-7" fill="#BD421A" transform="translate(28.055911, 30.171949) scale(-1, 1) translate(-28.055911, -30.171949) "></path>
                <path d="M0,18.6760875 C0,17.0165521 1.1786513,16.3297848 2.61918121,17.1346571 L48.0825732,42.5365758 C49.529107,43.3448027 49.358665,44 47.7007175,44 L3.00103692,44 C1.34361,44 0,42.6527026 0,40.9951453 L0,18.6760875 Z" id="Rectangle-7" fill="#EB5424"></path>
                <path d="M30.7473366,19.0794001 L29.324753,14.7045585 L33.0486295,12.0014929 L28.4455372,12.0014929 L27.0228692,7.62682007 L27.0224471,7.62563913 L31.6262147,7.62563913 L33.0492204,12.0010711 L33.0493049,12.0009868 L33.0504868,12.000312 C33.8768517,14.5386378 33.0257499,17.4256756 30.7473366,19.0794001 L30.7473366,19.0794001 L30.7473366,19.0794001 Z M23.298064,19.0794001 L23.2968821,19.0802436 L27.0216872,21.7839841 L30.7473366,19.0794844 L27.0228692,16.3756596 L23.298064,19.0794001 L23.298064,19.0794001 L23.298064,19.0794001 Z M20.9958425,12.0003963 L20.9958425,12.0003963 C20.1259136,14.6761319 21.1357369,17.5113774 23.2973042,19.0799062 L23.2976419,19.0785566 L24.7203944,14.7039681 L20.9973622,12.0014085 L25.5993569,12.0014085 L27.0221093,7.62673571 L27.0224471,7.62555478 L22.4184261,7.62555478 L20.9958425,12.0003963 L20.9958425,12.0003963 L20.9958425,12.0003963 Z" id="Shape" fill="#FFFFFF"></path>
            </g>
        </g>
    </g>
</svg>