<svg width="48" height="50" viewBox="0 0 48 50" xmlns="http://www.w3.org/2000/svg" xmlns:xlink="http://www.w3.org/1999/xlink"><title>noun_113198_cc</title><defs><path d="M.723 27.403c-.197.26 0 .649.395.454 5.194-1.688 10.323-.909 12.098-.52.395.066.526.455.46.715l-1.183 4.416c-.066.26.066.649.395.714.723.26 2.038.844 3.287 1.883 1.25 1.169 2.039 2.338 2.302 3.052.197.26.46.39.723.26l4.274-1.689c.394-.065.658 0 .855.39.526 1.623 2.038 6.688.855 11.948-.066.26.263.52.526.26 2.498-2.792 7.43-9.026 7.035-18.182 0-.195.066-.26.197-.39C45.764 19.675 47.672 6.884 47.868 0 41.03.974 28.274 4.35 18.674 18.182c-.197.065-.263.195-.46.195-9.206.714-14.926 6.298-17.49 9.026zm33.6-12.468c1.907 1.688 2.104 4.675.395 6.623-1.71 1.884-4.734 2.078-6.707.39-1.907-1.688-2.104-4.675-.395-6.623 1.776-1.948 4.8-2.143 6.707-.39z" id="a"/></defs><g fill="none" fill-rule="evenodd"><path d="M5.852 46.883c4.011-.714 8.153-1.883 10.06-6.753 0-.065-.065-.195-.197-.195-1.71.974-3.945 1.104-4.668 1.104-.198 0-.263-.065-.263-.26-.066-.714-.263-2.922.526-4.675.065-.065-.066-.195-.198-.195-4.668 2.468-5.391 6.623-5.654 10.65.065.194.263.324.394.324z" fill="#EB5424"/><use fill="#44C7F4" xlink:href="#a"/><use xlink:href="#a"/><ellipse fill="#EB5424" cx="31.158" cy="18.333" rx="5.053" ry="5"/></g></svg>