<svg width="82px" height="68px" viewBox="0 0 82 68" version="1.1" xmlns="http://www.w3.org/2000/svg" xmlns:xlink="http://www.w3.org/1999/xlink">
    <!-- Generator: Sketch 3.6.1 (26313) - http://www.bohemiancoding.com/sketch -->
    <title>noun_396828_cc</title>
    <desc>Created with Sketch.</desc>
    <defs></defs>
    <g id="Page-1" stroke="none" stroke-width="1" fill="none" fill-rule="evenodd">
        <g id="noun_396828_cc">
            <path d="M0.001,21.723 C-0.024,21.174 0.406,20.724 0.956,20.724 L80.141,20.724 C80.691,20.724 81.115,21.173 81.082,21.722 L78.421,66.941 C78.389,67.49 77.912,67.939 77.362,67.939 L3.092,67.939 C2.542,67.939 2.071,67.49 2.047,66.94 L0.001,21.723 L0.001,21.723 Z" id="Shape" fill="#16214D"></path>
            <path d="M3.699,16.098 C3.637,16.644 4.037,17.092 4.587,17.092 L76.081,17.092 C76.631,17.092 77.081,16.642 77.081,16.092 L77.081,7.623 C77.081,7.073 76.631,6.623 76.081,6.623 L38.984,6.623 C38.434,6.623 37.666,6.305 37.277,5.916 L32.068,0.707 C31.68,0.318 30.911,0 30.361,0 L6.51,0 C5.96,0 5.46,0.447 5.398,0.994 L3.699,16.098 L3.699,16.098 Z" id="Shape" fill="#44C7F4"></path>
        </g>
    </g>
</svg>