<svg width="82" height="68" viewBox="0 0 82 68" xmlns="http://www.w3.org/2000/svg"><title>noun_396828_cc</title><g fill="none" fill-rule="evenodd"><path d="M.001 21.723a.95.95 0 0 1 .955-.999h79.185c.55 0 .974.449.941.998l-2.661 45.219a1.077 1.077 0 0 1-1.059.998H3.092c-.55 0-1.021-.449-1.045-.999L.001 21.723z" fill="#16214D"/><path d="M3.699 16.098a.876.876 0 0 0 .888.994h71.494c.55 0 1-.45 1-1V7.623c0-.55-.45-1-1-1H38.984c-.55 0-1.318-.318-1.707-.707L32.068.707C31.68.318 30.911 0 30.361 0H6.51c-.55 0-1.05.447-1.112.994L3.699 16.098z" fill="#44C7F4"/></g></svg>